<svg width="42" height="42" viewBox="0 0 42 42" fill="none" xmlns="http://www.w3.org/2000/svg">
<g clip-path="url(#clip0_335_206)">
<path d="M41.5157 21.7134C41.1957 22.0312 40.7775 22.1901 40.3594 22.1901C39.9376 22.1901 39.5162 22.0286 39.1955 21.7058L37.8984 20.4001V26.3736C37.8984 27.2798 37.1639 28.0143 36.2578 28.0143C35.3517 28.0143 34.6172 27.2798 34.6172 26.3736V17.0973L22.1397 4.5375C21.5274 4.013 20.6258 4.01103 20.0112 4.53299L7.38042 17.1388C7.38092 17.1546 7.3828 17.1701 7.3828 17.1861V34.5768C7.3828 36.3861 8.85477 37.858 10.6641 37.858H31.3359C33.1452 37.858 34.6172 36.3861 34.6172 34.5768C34.6172 33.6707 35.3517 32.9361 36.2578 32.9361C37.1639 32.9361 37.8984 33.6707 37.8984 34.5768C37.8984 38.1953 34.9545 41.1393 31.3359 41.1393H10.6641C7.04549 41.1393 4.10155 38.1953 4.10155 34.5768V20.4113L2.79955 21.7107C2.15831 22.3508 1.11955 22.3498 0.479381 21.7084C-0.160709 21.0671 -0.159642 20.0284 0.481678 19.3882C0.481678 19.3882 17.7767 2.12849 17.8 2.10774C19.6737 0.439551 22.4944 0.445621 24.361 2.1216C24.3841 2.14244 41.5232 19.3932 41.5232 19.3932C42.1619 20.036 42.1585 21.0748 41.5157 21.7134Z" fill="#22A7D6"/>
<path d="M24.4376 35.0466L23.1212 35.0466L21.318 32.6844C21.0956 32.3898 20.9002 32.1825 20.7319 32.0622C20.5576 31.936 20.3743 31.8729 20.1819 31.8729C19.9836 31.8729 19.8273 31.939 19.7131 32.0713C19.5989 32.1975 19.5418 32.3658 19.5418 32.5762C19.5418 32.7805 19.6049 32.9789 19.7311 33.1712C19.8513 33.3576 20.0587 33.577 20.3532 33.8294L19.3705 35.0106C18.9016 34.6499 18.559 34.2772 18.3426 33.8925C18.1262 33.5079 18.018 33.024 18.018 32.4409C18.018 31.7497 18.2074 31.1907 18.5861 30.7639C18.9587 30.3311 19.4456 30.1147 20.0467 30.1147C20.5216 30.1147 20.9183 30.2289 21.2368 30.4573C21.5494 30.6858 21.889 31.0584 22.2557 31.5754L23.013 32.6573L23.013 30.0516L24.4376 30.0516L24.4376 35.0466Z" fill="#22A7D6"/>
<path d="M23.6171 24.317C24.2483 24.852 24.5638 25.5583 24.5638 26.4359C24.5638 27.3135 24.2513 28.0197 23.6262 28.5547C22.995 29.0837 22.2136 29.3481 21.2819 29.3481C20.3623 29.3481 19.5869 29.0776 18.9557 28.5367C18.3186 27.9957 18 27.2894 18 26.4178C18 25.5403 18.3156 24.837 18.9467 24.308C19.5778 23.7731 20.3563 23.5056 21.2819 23.5056C22.2016 23.5056 22.98 23.7761 23.6171 24.317ZM22.5352 27.2654C22.8538 27.049 23.013 26.7665 23.013 26.4178C23.013 26.0692 22.8538 25.7897 22.5352 25.5793C22.2106 25.3689 21.7928 25.2638 21.2819 25.2638C20.777 25.2638 20.3623 25.375 20.0377 25.5974C19.7131 25.8137 19.5508 26.0933 19.5508 26.4359C19.5508 26.7845 19.7101 27.064 20.0287 27.2744C20.3472 27.4848 20.765 27.59 21.2819 27.59C21.7928 27.59 22.2106 27.4818 22.5352 27.2654Z" fill="#22A7D6"/>
<path d="M23.6171 17.7309C24.2483 18.2659 24.5638 18.9722 24.5638 19.8498C24.5638 20.7273 24.2513 21.4336 23.6262 21.9686C22.995 22.4975 22.2136 22.762 21.2819 22.762C20.3623 22.762 19.5869 22.4915 18.9557 21.9506C18.3186 21.4096 18 20.7033 18 19.8317C18 18.9541 18.3156 18.2509 18.9467 17.7219C19.5778 17.187 20.3563 16.9195 21.2819 16.9195C22.2016 16.9195 22.98 17.19 23.6171 17.7309ZM22.5352 20.6793C22.8538 20.4629 23.013 20.1804 23.013 19.8317C23.013 19.4831 22.8538 19.2036 22.5352 18.9932C22.2106 18.7828 21.7928 18.6776 21.2819 18.6776C20.777 18.6776 20.3623 18.7888 20.0377 19.0112C19.7131 19.2276 19.5508 19.5071 19.5508 19.8498C19.5508 20.1984 19.7101 20.4779 20.0287 20.6883C20.3472 20.8987 20.765 21.0038 21.2819 21.0038C21.7928 21.0038 22.2106 20.8956 22.5352 20.6793Z" fill="#22A7D6"/>
<path d="M24.4376 16.2155L19.5959 13.4385L19.5959 16.3598L18.1262 16.3598L18.1262 11.5L19.4426 11.5L24.4376 14.286L24.4376 16.2155Z" fill="#22A7D6"/>
</g>
<defs>
<clipPath id="clip0_335_206">
<rect width="42" height="42" fill="white"/>
</clipPath>
</defs>
</svg>
