<svg width="46" height="46" viewBox="0 0 46 46" fill="none" xmlns="http://www.w3.org/2000/svg">
<path d="M37.6424 8.00407L36.0324 7.66673V7.4214C36.0324 6.8114 35.79 6.22639 35.3587 5.79505C34.9274 5.36372 34.3424 5.1214 33.7324 5.1214H25.1304L16.7507 3.17406C16.4546 3.10374 16.1475 3.09288 15.8472 3.1421C15.5469 3.19132 15.2593 3.29965 15.0012 3.46082C14.7431 3.62198 14.5195 3.83276 14.3434 4.08096C14.1673 4.32916 14.0422 4.60984 13.9754 4.90673L13.9294 5.11373H12.2657C11.6557 5.11373 11.0707 5.35605 10.6394 5.78739C10.208 6.21872 9.9657 6.80373 9.9657 7.41373V22.2794L6.62303 36.8001C6.55385 37.0956 6.54386 37.4019 6.59363 37.7014C6.6434 38.0008 6.75195 38.2874 6.91301 38.5447C7.07408 38.802 7.28449 39.0249 7.5321 39.2004C7.7797 39.376 8.05962 39.5008 8.3557 39.5677L9.9657 39.9434V40.1504C9.9657 40.7604 10.208 41.3454 10.6394 41.7767C11.0707 42.2081 11.6557 42.4504 12.2657 42.4504H20.9444L21.0287 42.4887L29.2474 44.3901C29.5435 44.4604 29.8505 44.4713 30.1509 44.422C30.4512 44.3728 30.7387 44.2645 30.9969 44.1033C31.255 43.9422 31.4786 43.7314 31.6547 43.4832C31.8308 43.235 31.9559 42.9543 32.0227 42.6574L32.0687 42.4504H33.7324C34.3424 42.4504 34.9274 42.2081 35.3587 41.7767C35.79 41.3454 36.0324 40.7604 36.0324 40.1504V25.2541L39.375 10.7717C39.4442 10.4762 39.4542 10.1699 39.4044 9.87042C39.3547 9.57099 39.2461 9.28436 39.085 9.02708C38.924 8.7698 38.7136 8.54694 38.466 8.37136C38.2184 8.19578 37.9384 8.07095 37.6424 8.00407ZM9.9657 38.3334L8.7007 38.0344C8.601 38.0127 8.50664 37.9714 8.42313 37.9127C8.33963 37.8541 8.26867 37.7794 8.2144 37.693C8.16014 37.6066 8.12366 37.5103 8.10711 37.4096C8.09056 37.3089 8.09428 37.206 8.11803 37.1067L9.9657 29.1334V38.3334ZM16.4057 4.66907L18.3147 5.11373H15.5317C15.6025 4.94919 15.7287 4.81462 15.8883 4.73339C16.048 4.65217 16.231 4.62941 16.4057 4.66907ZM29.5924 42.8644L27.691 42.4197H30.4664C30.3956 42.5843 30.2694 42.7188 30.1098 42.8001C29.9501 42.8813 29.767 42.9041 29.5924 42.8644ZM34.499 40.1121C34.499 40.3154 34.4183 40.5104 34.2745 40.6542C34.1307 40.798 33.9357 40.8787 33.7324 40.8787H12.2657C12.0624 40.8787 11.8674 40.798 11.7236 40.6542C11.5798 40.5104 11.499 40.3154 11.499 40.1121V7.4214C11.499 7.21807 11.5798 7.02306 11.7236 6.87928C11.8674 6.73551 12.0624 6.65473 12.2657 6.65473H33.7324C33.9357 6.65473 34.1307 6.73551 34.2745 6.87928C34.4183 7.02306 34.499 7.21807 34.499 7.4214V40.1121ZM37.88 10.4267L36.0324 18.4384V9.20007L37.2974 9.4914C37.3979 9.51301 37.493 9.55461 37.5771 9.61374C37.6612 9.67286 37.7326 9.7483 37.787 9.83557C37.8413 9.92283 37.8776 10.0201 37.8936 10.1217C37.9095 10.2232 37.9049 10.327 37.88 10.4267Z" fill="#22A7D6"/>
<path d="M30.6664 36.6696H16.0997V30.4366C16.0997 30.2333 16.019 30.0383 15.8752 29.8945C15.7314 29.7507 15.5364 29.6699 15.3331 29.6699C15.1297 29.6699 14.9347 29.7507 14.791 29.8945C14.6472 30.0383 14.5664 30.2333 14.5664 30.4366V37.4363C14.5664 37.6396 14.6472 37.8346 14.791 37.9784C14.9347 38.1221 15.1297 38.2029 15.3331 38.2029H30.6664C30.8697 38.2029 31.0647 38.1221 31.2085 37.9784C31.3523 37.8346 31.4331 37.6396 31.4331 37.4363C31.4331 37.2329 31.3523 37.0379 31.2085 36.8941C31.0647 36.7504 30.8697 36.6696 30.6664 36.6696Z" fill="#22A7D6"/>
<path d="M17.8861 17.0352C18.7673 17.0352 19.6124 16.6857 20.2362 16.0634C20.86 15.4411 21.2114 14.5967 21.2135 13.7156C21.2088 13.0988 21.0308 12.4957 20.6998 11.9752L22.0951 10.5876C22.2395 10.4432 22.3206 10.2474 22.3206 10.0432C22.3206 9.83908 22.2395 9.64327 22.0951 9.49891C21.9508 9.35454 21.755 9.27344 21.5508 9.27344C21.3466 9.27344 21.1508 9.35454 21.0065 9.49891L17.8785 12.6269L16.1381 10.8866C15.9945 10.7438 15.8002 10.6636 15.5976 10.6636C15.3951 10.6636 15.2008 10.7438 15.0571 10.8866C14.9144 11.0302 14.8342 11.2245 14.8342 11.4271C14.8342 11.6296 14.9144 11.8239 15.0571 11.9676C14.7324 12.4925 14.5624 13.0984 14.5665 13.7156C14.5665 14.596 14.9162 15.4404 15.5388 16.0629C16.1613 16.6855 17.0057 17.0352 17.8861 17.0352ZM16.2071 13.1176L17.3495 14.2599C17.4923 14.4015 17.685 14.4814 17.8861 14.4822C18.0793 14.4755 18.2627 14.3961 18.3998 14.2599L19.5421 13.1176C19.6087 13.3101 19.645 13.5119 19.6495 13.7156C19.6197 14.1701 19.4182 14.5963 19.0857 14.9077C18.7533 15.2191 18.3148 15.3924 17.8593 15.3924C17.4038 15.3924 16.9654 15.2191 16.6329 14.9077C16.3005 14.5963 16.0989 14.1701 16.0691 13.7156C16.0797 13.5097 16.1264 13.3073 16.2071 13.1176Z" fill="#22A7D6"/>
<path d="M17.8861 25.4381C18.5445 25.4396 19.1885 25.2458 19.7367 24.8811C20.2849 24.5164 20.7126 23.9973 20.9656 23.3894C21.2186 22.7816 21.2856 22.1123 21.1581 21.4664C21.0306 20.8204 20.7143 20.2268 20.2492 19.7607C19.7842 19.2946 19.1913 18.977 18.5457 18.8479C17.9 18.7189 17.2306 18.7844 16.6222 19.036C16.0138 19.2876 15.4937 19.7141 15.1277 20.2614C14.7617 20.8088 14.5664 21.4524 14.5664 22.1108C14.5684 22.9913 14.9186 23.8353 15.5405 24.4586C16.1624 25.082 17.0056 25.4341 17.8861 25.4381ZM17.8861 20.3244C18.2415 20.3229 18.5894 20.427 18.8856 20.6236C19.1818 20.8201 19.413 21.1002 19.5497 21.4284C19.6864 21.7565 19.7226 22.1178 19.6536 22.4665C19.5846 22.8153 19.4136 23.1356 19.1623 23.387C18.9109 23.6383 18.5906 23.8093 18.2418 23.8783C17.8931 23.9473 17.5318 23.9111 17.2037 23.7744C16.8755 23.6377 16.5954 23.4065 16.3989 23.1103C16.2023 22.8141 16.0982 22.4662 16.0997 22.1108C16.1018 21.6376 16.2906 21.1844 16.6252 20.8499C16.9597 20.5153 17.4129 20.3265 17.8861 20.3244Z" fill="#22A7D6"/>
<path d="M30.6658 27.1248H27.6604C27.4571 27.1248 27.2621 27.2055 27.1183 27.3493C26.9745 27.4931 26.8938 27.6881 26.8938 27.8914C26.8938 28.0948 26.9745 28.2898 27.1183 28.4335C27.2621 28.5773 27.4571 28.6581 27.6604 28.6581H28.8181L24.5324 32.9668L21.5194 29.9001C21.3758 29.7573 21.1815 29.6771 20.9789 29.6771C20.7764 29.6771 20.5821 29.7573 20.4384 29.9001L17.6938 32.6524C17.6135 32.7212 17.5483 32.8057 17.5023 32.9008C17.4563 32.996 17.4304 33.0996 17.4264 33.2051C17.4223 33.3107 17.4401 33.416 17.4786 33.5144C17.5172 33.6128 17.5756 33.7021 17.6503 33.7769C17.725 33.8516 17.8144 33.91 17.9128 33.9486C18.0112 33.9871 18.1165 34.0049 18.222 34.0008C18.3276 33.9968 18.4312 33.9709 18.5263 33.9249C18.6215 33.8789 18.706 33.8137 18.7748 33.7334L20.9828 31.5254L23.9881 34.5384C24.0594 34.6103 24.1442 34.6673 24.2376 34.7062C24.331 34.7452 24.4312 34.7652 24.5324 34.7652C24.6336 34.7652 24.7338 34.7452 24.8273 34.7062C24.9207 34.6673 25.0055 34.6103 25.0768 34.5384L29.8991 29.7468V30.8968C29.8991 31.1001 29.9799 31.2951 30.1236 31.4389C30.2674 31.5826 30.4624 31.6634 30.6658 31.6634C30.8691 31.6634 31.0641 31.5826 31.2079 31.4389C31.3517 31.2951 31.4324 31.1001 31.4324 30.8968V27.8914C31.4324 27.6881 31.3517 27.4931 31.2079 27.3493C31.0641 27.2055 30.8691 27.1248 30.6658 27.1248Z" fill="#22A7D6"/>
<path d="M24.0206 21.3439H27.3096C27.5129 21.3439 27.7079 21.2631 27.8517 21.1193C27.9955 20.9756 28.0762 20.7805 28.0762 20.5772C28.0762 20.3739 27.9955 20.1789 27.8517 20.0351C27.7079 19.8913 27.5129 19.8105 27.3096 19.8105H24.0206C23.8172 19.8105 23.6222 19.8913 23.4785 20.0351C23.3347 20.1789 23.2539 20.3739 23.2539 20.5772C23.2539 20.7805 23.3347 20.9756 23.4785 21.1193C23.6222 21.2631 23.8172 21.3439 24.0206 21.3439Z" fill="#22A7D6"/>
<path d="M24.0206 24.4183H30.3302C30.5336 24.4183 30.7286 24.3376 30.8724 24.1938C31.0161 24.05 31.0969 23.855 31.0969 23.6517C31.0969 23.4483 31.0161 23.2533 30.8724 23.1096C30.7286 22.9658 30.5336 22.885 30.3302 22.885H24.0206C23.8172 22.885 23.6222 22.9658 23.4785 23.1096C23.3347 23.2533 23.2539 23.4483 23.2539 23.6517C23.2539 23.855 23.3347 24.05 23.4785 24.1938C23.6222 24.3376 23.8172 24.4183 24.0206 24.4183Z" fill="#22A7D6"/>
<path d="M24.0206 12.9491H27.3096C27.5129 12.9491 27.7079 12.8683 27.8517 12.7246C27.9955 12.5808 28.0762 12.3858 28.0762 12.1824C28.0762 11.9791 27.9955 11.7841 27.8517 11.6403C27.7079 11.4965 27.5129 11.4158 27.3096 11.4158H24.0206C23.8172 11.4158 23.6222 11.4965 23.4785 11.6403C23.3347 11.7841 23.2539 11.9791 23.2539 12.1824C23.2539 12.3858 23.3347 12.5808 23.4785 12.7246C23.6222 12.8683 23.8172 12.9491 24.0206 12.9491Z" fill="#22A7D6"/>
<path d="M24.0206 16.0158H30.3302C30.5336 16.0158 30.7286 15.935 30.8724 15.7912C31.0161 15.6474 31.0969 15.4524 31.0969 15.2491C31.0969 15.0458 31.0161 14.8508 30.8724 14.707C30.7286 14.5632 30.5336 14.4824 30.3302 14.4824H24.0206C23.8172 14.4824 23.6222 14.5632 23.4785 14.707C23.3347 14.8508 23.2539 15.0458 23.2539 15.2491C23.2539 15.4524 23.3347 15.6474 23.4785 15.7912C23.6222 15.935 23.8172 16.0158 24.0206 16.0158Z" fill="#22A7D6"/>
</svg>
