<svg width="24" height="24" viewBox="0 0 24 24" fill="none" xmlns="http://www.w3.org/2000/svg">
<g clip-path="url(#clip0_286_319)">
<path d="M20.7616 17.51L19.437 18.8348L20.4608 19.8585H15.9911L22.1133 13.7364V16.2122L23.9866 18.0855V2.61969C23.9866 1.17517 22.8115 0 21.3671 0H5.85425L7.72778 1.87335H10.2973L4.1283 8.04254V3.57294L5.15204 4.59668L6.47662 3.27191L3.2384 0.0335083L0 3.27191L1.32477 4.59668L2.25476 3.6665V19.1124C2.25476 20.5569 3.42993 21.7321 4.87445 21.7321H20.367L19.437 22.662L20.7616 23.9868L24 20.7484L20.7616 17.51ZM13.3416 19.8585H10.7219L22.1133 8.46735V11.0869L13.3416 19.8585ZM4.1283 15.8908L18.1456 1.87354H20.7885L4.1283 18.5338V15.8908ZM22.1133 3.1983V5.81781L8.07257 19.8585H5.45288L22.1133 3.1983ZM12.9467 1.87354H15.496L4.1283 13.2413V10.6919L12.9467 1.87354Z" fill="#010101"/>
</g>
<defs>
<clipPath id="clip0_286_319">
<rect width="24" height="24" fill="white"/>
</clipPath>
</defs>
</svg>
