<svg width="11" height="24" viewBox="0 0 11 24" fill="none" xmlns="http://www.w3.org/2000/svg">
<g clip-path="url(#clip0_702_648)">
<path d="M1.20685 5.29293C1.01938 5.48046 0.914062 5.73476 0.914062 5.99993C0.914062 6.26509 1.01938 6.5194 1.20685 6.70693L5.79285 11.2929C5.97534 11.4831 6.07724 11.7364 6.07724 11.9999C6.07724 12.2635 5.97534 12.5168 5.79285 12.7069L1.20685 17.2929C1.02469 17.4815 0.923896 17.7341 0.926175 17.9963C0.928453 18.2585 1.03362 18.5093 1.21903 18.6947C1.40444 18.8802 1.65525 18.9853 1.91745 18.9876C2.17964 18.9899 2.43225 18.8891 2.62085 18.7069L7.20685 14.1219C7.48548 13.8433 7.7065 13.5126 7.8573 13.1486C8.00809 12.7846 8.08571 12.3944 8.08571 12.0004C8.08571 11.6064 8.00809 11.2163 7.8573 10.8523C7.7065 10.4883 7.48548 10.1575 7.20685 9.87893L2.62085 5.29293C2.43332 5.10546 2.17901 5.00014 1.91385 5.00014C1.64868 5.00014 1.39438 5.10546 1.20685 5.29293V5.29293Z" fill="currentColor"/>
</g>
<defs>
<clipPath id="clip0_702_648">
<rect width="24" height="11" fill="white" transform="translate(0 24) rotate(-90)"/>
</clipPath>
</defs>
</svg>
