<svg width="18" height="18" viewBox="0 0 18 18" fill="none" xmlns="http://www.w3.org/2000/svg">
<path d="M14.0303 6.15524C13.8897 6.01464 13.6989 5.93565 13.5001 5.93565C13.3012 5.93565 13.1105 6.01464 12.9698 6.15524L9.53031 9.59474C9.38771 9.73161 9.19771 9.80804 9.00006 9.80804C8.80241 9.80804 8.61241 9.73161 8.46981 9.59474L5.03031 6.15524C4.88886 6.01862 4.69941 5.94303 4.50276 5.94474C4.30611 5.94645 4.118 6.02532 3.97895 6.16438C3.83989 6.30344 3.76101 6.49154 3.75931 6.68819C3.7576 6.88484 3.83319 7.07429 3.96981 7.21574L7.40856 10.6552C7.6175 10.8642 7.86555 11.03 8.13856 11.1431C8.41157 11.2562 8.70418 11.3144 8.99969 11.3144C9.29519 11.3144 9.5878 11.2562 9.86081 11.1431C10.1338 11.03 10.3819 10.8642 10.5908 10.6552L14.0303 7.21574C14.1709 7.0751 14.2499 6.88437 14.2499 6.68549C14.2499 6.48662 14.1709 6.29589 14.0303 6.15524Z" fill="#818181"/>
</svg>
