<svg width="24" height="24" viewBox="0 0 24 24" fill="none" xmlns="http://www.w3.org/2000/svg">
<path d="M15.7932 18.707C15.9806 18.5195 16.0859 18.2651 16.0859 18C16.0859 17.7348 15.9806 17.4805 15.7932 17.293L11.2072 12.707C11.0247 12.5168 10.9228 12.2635 10.9228 12C10.9228 11.7364 11.0247 11.4831 11.2072 11.293L15.7932 6.70698C15.9753 6.51838 16.0761 6.26578 16.0738 6.00358C16.0715 5.74138 15.9664 5.49057 15.781 5.30516C15.5956 5.11975 15.3447 5.01458 15.0826 5.01231C14.8204 5.01003 14.5678 5.11082 14.3792 5.29298L9.79315 9.87798C9.51452 10.1566 9.2935 10.4873 9.1427 10.8513C8.99191 11.2153 8.91429 11.6055 8.91429 11.9995C8.91429 12.3935 8.99191 12.7836 9.1427 13.1476C9.2935 13.5117 9.51452 13.8424 9.79315 14.121L14.3792 18.707C14.5667 18.8945 14.821 18.9998 15.0862 18.9998C15.3513 18.9998 15.6056 18.8945 15.7932 18.707Z" fill="#C4C4C4"/>
</svg>
