<svg width="69" height="69" viewBox="0 0 69 69" fill="none" xmlns="http://www.w3.org/2000/svg">
<g clip-path="url(#clip0_335_279)">
<path d="M52.4625 29.6605C53.8198 29.6605 54.9241 28.5562 54.9241 27.1988V24.0115C54.9241 23.0008 54.3188 22.105 53.3815 21.7278L34.9231 14.1804C34.3221 13.9383 33.6716 13.9426 33.0859 14.177C33.0722 14.1825 33.3948 14.0506 14.6188 21.7279C13.6815 22.105 13.0762 23.0009 13.0762 24.0116V27.199C13.0762 28.5563 14.1805 29.6606 15.5378 29.6606H17.0148V48.205H15.5378C14.1805 48.205 13.0762 49.3093 13.0762 50.6666V53.5385C13.0762 54.8959 14.1805 56.0002 15.5378 56.0002H52.4624C53.8198 56.0002 54.924 54.8959 54.924 53.5385V50.6666C54.924 49.3093 53.8198 48.205 52.4624 48.205H50.9854V29.6606H52.4625V29.6605ZM52.4625 50.6664C52.464 53.6041 52.4707 53.5384 52.4625 53.5384H15.5379V50.6664H52.4625ZM19.4765 48.2048V29.6605H22.2664V48.2048H19.4765ZM24.728 48.2048V29.6605H30.1436V48.2048H24.728ZM32.6053 48.2048V29.6605H35.3951V48.2048H32.6053ZM37.8568 48.2048V29.6605H43.2724V48.2048H37.8568ZM45.734 48.2048V29.6605H48.5239V48.2048H45.734ZM15.5379 27.1988C15.5379 23.7654 15.5342 24.013 15.5465 24.008L34.0002 16.4625L52.4539 24.008C52.4666 24.013 52.4625 23.7735 52.4625 27.1988C52.0534 27.1988 16.0241 27.1988 15.5379 27.1988Z" fill="#22A7D6"/>
<path d="M34.0004 19.3216C33.3206 19.3216 32.7695 19.8727 32.7695 20.5524V23.1782C32.7695 23.8579 33.3206 24.409 34.0004 24.409C34.6801 24.409 35.2312 23.8579 35.2312 23.1782V20.5524C35.2312 19.8727 34.6801 19.3216 34.0004 19.3216V19.3216Z" fill="#22A7D6"/>
</g>
<defs>
<clipPath id="clip0_335_279">
<rect width="42" height="42" fill="white" transform="translate(13 14)"/>
</clipPath>
</defs>
</svg>
