<svg width="60" height="57" viewBox="0 0 60 57" fill="none" xmlns="http://www.w3.org/2000/svg">
<g clip-path="url(#clip0_745_335)">
<path d="M0.564859 15.504L29.5698 0.227404L30.0012 0L30.4325 0.227404L59.4375 15.504L59.9427 15.7692V16.3363V19.9304V20.8739H59.0071H55.271V52.9539H55.2645V53.8975H4.74064V52.9539H4.73503V20.8739H1.02894H0.106393L0.0979726 19.9379L0.0670964 16.3438L0.0624182 15.7692L0.567666 15.504H0.564859ZM30.9349 15.5889V18.1206C30.9349 18.5084 30.7029 18.8415 30.3698 18.9868H58.0686V16.9024L30.0002 2.11929L1.93184 16.9024L1.95055 18.9868H29.6278C29.2948 18.8415 29.0627 18.5084 29.0627 18.1206V15.6323C28.9579 15.6097 28.8531 15.5842 28.7511 15.5531L28.7203 15.5427C27.7023 15.2228 26.849 14.4831 26.6038 13.247C26.5037 12.7365 26.8321 12.2392 27.3383 12.1383C27.8445 12.0373 28.3376 12.3685 28.4377 12.879C28.5247 13.3234 28.8522 13.6036 29.247 13.7339L29.2919 13.7471C29.4875 13.8065 29.7008 13.8348 29.9151 13.8339H29.9207L29.9263 13.8329H29.9338H29.9469L29.9974 13.831H30.0105H30.0217H30.0236L30.1013 13.8254C30.3736 13.8018 30.6318 13.7329 30.8432 13.6263C31.1052 13.4923 31.2924 13.2951 31.2924 13.0639C31.2924 12.8676 31.254 12.7393 31.1969 12.6629C31.1221 12.5591 30.9845 12.4902 30.8432 12.4477C30.5869 12.3694 30.2996 12.3741 30.0133 12.3789C29.5801 12.3864 29.1422 12.3949 28.6089 12.2298V12.2288C28.2085 12.1052 27.7996 11.8948 27.4721 11.5419L27.416 11.4825C27.0679 11.0824 26.834 10.5408 26.834 9.81421C26.834 8.78004 27.4469 8.0148 28.3151 7.57225C28.5481 7.45431 28.7998 7.359 29.0637 7.29012V5.24444C29.0637 4.72358 29.4838 4.30085 29.9993 4.30085C30.5158 4.30085 30.9349 4.72452 30.9349 5.24444V7.24672C31.0388 7.26748 31.1427 7.29578 31.2437 7.32598C32.2767 7.63736 33.1477 8.38091 33.3957 9.6321C33.4958 10.1426 33.1674 10.6398 32.6612 10.7408C32.155 10.8418 31.6619 10.5106 31.5618 10.0001C31.4711 9.53963 31.1239 9.25561 30.7123 9.132C30.5111 9.07161 30.2893 9.04424 30.0667 9.04613H30.0545H30.0489H30.0414L30.0283 9.04708H30.0246H30.0143H30.0012L29.8973 9.05368C29.625 9.07727 29.3668 9.14615 29.1553 9.25278C28.8934 9.38677 28.7062 9.58397 28.7062 9.81421C28.7062 10.0246 28.753 10.1596 28.8204 10.2369L28.8438 10.2652C28.9224 10.3407 29.0375 10.3945 29.1553 10.4313L29.1591 10.4323V10.4313C29.4155 10.5106 29.7027 10.5049 29.9871 10.5002C30.4194 10.4926 30.8545 10.487 31.3869 10.6493C31.8622 10.7946 32.3487 11.0663 32.6977 11.5419C32.9821 11.9278 33.1665 12.4279 33.1665 13.0639C33.1665 14.099 32.5536 14.8652 31.6853 15.3077C31.4523 15.4257 31.1988 15.521 30.9359 15.5899L30.9349 15.5889ZM0.0605469 54.8392H59.9399V56.7273H0.0605469V54.8392ZM53.3969 52.0103V20.8739H49.6338V52.0103H53.3969ZM47.7625 52.0103V20.8739H45.8931V52.0103H47.7625ZM44.0209 52.0103V20.8739H40.2792V52.0103H44.0209ZM38.407 52.0103V20.8739H21.5804V52.0103H38.407ZM19.7081 52.0103V20.8739H15.9525V52.0103H19.7081ZM14.0802 52.0103V20.8739H12.2108V52.0103H14.0802ZM10.3386 52.0103V20.8739H6.60538V52.0103H10.3386Z" fill="#B2D551"/>
</g>
<defs>
<clipPath id="clip0_745_335">
<rect width="60" height="56.7273" fill="white"/>
</clipPath>
</defs>
</svg>
