<svg width="44" height="44" viewBox="0 0 44 44" fill="none" xmlns="http://www.w3.org/2000/svg">
<path d="M40.78 40.7807L40.6032 40.6039L40.78 40.7807C40.9626 40.5981 41.0652 40.3505 41.0652 40.0922V3.90801C41.0652 3.64977 40.9626 3.40211 40.78 3.21951C40.5974 3.03691 40.3497 2.93433 40.0915 2.93433H3.90728C3.64904 2.93433 3.40138 3.03691 3.21878 3.21951C3.03618 3.40211 2.93359 3.64977 2.93359 3.90801V40.0922C2.93359 40.3505 3.03618 40.5981 3.21878 40.7807C3.40138 40.9633 3.64904 41.0659 3.90728 41.0659H25.3211C25.5793 41.0659 25.827 40.9633 26.0096 40.7807C26.1922 40.5981 26.2948 40.3505 26.2948 40.0922V27.7317C26.2948 27.4735 26.1922 27.2258 26.0096 27.0432C25.827 26.8606 25.5793 26.758 25.3211 26.758C25.0629 26.758 24.8152 26.8606 24.6326 27.0432C24.45 27.2258 24.3474 27.4735 24.3474 27.7317V39.1185H4.88096V28.7054H18.3014C18.5596 28.7054 18.8073 28.6028 18.9899 28.4202C19.1725 28.2376 19.275 27.9899 19.275 27.7317V20.9435C19.275 20.6853 19.1725 20.4376 18.9899 20.255C18.8073 20.0724 18.5596 19.9699 18.3014 19.9699C18.0431 19.9699 17.7955 20.0724 17.6129 20.255C17.4303 20.4376 17.3277 20.6853 17.3277 20.9435V26.758H4.88096V15.0133H18.3014C18.5596 15.0133 18.8073 14.9107 18.9899 14.7281C19.1725 14.5455 19.275 14.2978 19.275 14.0396V4.88169H26.6053V9.63959C26.6053 9.89783 26.7079 10.1455 26.8905 10.3281C27.0731 10.5107 27.3207 10.6133 27.579 10.6133C27.8372 10.6133 28.0849 10.5107 28.2675 10.3281C28.4501 10.1455 28.5527 9.89783 28.5527 9.63959V4.88169H39.1178V15.1501H27.579C27.3207 15.1501 27.0731 15.2527 26.8905 15.4353C26.7079 15.6179 26.6053 15.8656 26.6053 16.1238C26.6053 16.382 26.7079 16.6297 26.8905 16.8123C27.0731 16.9949 27.3208 17.0975 27.579 17.0975H39.1178V26.7291H31.6461C31.3879 26.7291 31.1402 26.8316 30.9576 27.0142C30.775 27.1968 30.6724 27.4445 30.6724 27.7027C30.6724 27.961 30.775 28.2086 30.9576 28.3912C31.1402 28.5738 31.3879 28.6764 31.6461 28.6764H39.1178V39.1185H32.8546C32.5964 39.1185 32.3487 39.2211 32.1661 39.4037C31.9835 39.5863 31.881 39.834 31.881 40.0922C31.881 40.3505 31.9835 40.5981 32.1661 40.7807C32.3487 40.9633 32.5964 41.0659 32.8546 41.0659H40.0915C40.3497 41.0659 40.5974 40.9633 40.78 40.7807ZM17.3277 13.0659H4.88096V4.88169H17.3277V13.0659Z" fill="#22A7D6" stroke="#22A7D6" stroke-width="0.5"/>
</svg>
