<svg width="42" height="42" viewBox="0 0 42 42" fill="none" xmlns="http://www.w3.org/2000/svg">
<path d="M22.6406 19.9336C22.1878 19.9336 21.8203 20.3011 21.8203 20.7539C21.8203 21.2067 22.1878 21.5742 22.6406 21.5742C23.0934 21.5742 23.4609 21.2067 23.4609 20.7539C23.4609 20.3011 23.0934 19.9336 22.6406 19.9336Z" fill="#22A7D6"/>
<path d="M7.87478 8.20312C7.42246 8.20312 7.05447 7.83513 7.05447 7.38281C7.05447 6.93049 7.42246 6.5625 7.87478 6.5625C8.16533 6.5625 8.47221 6.71081 8.76203 6.99128C9.08761 7.30636 9.60703 7.29766 9.92195 6.97225C10.2369 6.64658 10.2284 6.12732 9.90284 5.81224C9.48653 5.40939 9.06997 5.18159 8.69501 5.05714V4.10156C8.69501 3.64859 8.32775 3.28125 7.8747 3.28125C7.42164 3.28125 7.05438 3.64859 7.05438 4.10156V5.06297C6.0997 5.40159 5.41384 6.31345 5.41384 7.38281C5.41384 8.73977 6.51782 9.84375 7.87478 9.84375C8.3271 9.84375 8.69509 10.2117 8.69509 10.6641C8.69509 11.1164 8.3271 11.4844 7.87478 11.4844C7.52426 11.4844 7.14593 11.264 6.80952 10.8639C6.51798 10.517 6.00053 10.4723 5.65378 10.7638C5.30695 11.0554 5.26225 11.5728 5.55379 11.9195C5.99233 12.4413 6.50797 12.8048 7.05447 12.988V13.9453C7.05447 14.3983 7.42172 14.7656 7.87478 14.7656C8.32784 14.7656 8.69509 14.3983 8.69509 13.9453V12.9839C9.64985 12.6453 10.3357 11.7335 10.3357 10.6641C10.3357 9.3071 9.23174 8.20312 7.87478 8.20312Z" fill="#22A7D6"/>
<path d="M22.6406 26.9883H19.3594C18.9063 26.9883 18.5391 27.3556 18.5391 27.8086V31.0898C18.5391 31.5428 18.9063 31.9102 19.3594 31.9102H22.6406C23.0936 31.9102 23.4609 31.5428 23.4609 31.0898V27.8086C23.4609 27.3556 23.0936 26.9883 22.6406 26.9883ZM21.8203 30.2695H20.1797V28.6289H21.8203V30.2695Z" fill="#22A7D6"/>
<path d="M29.2031 26.9883H25.9219C25.4689 26.9883 25.1016 27.3556 25.1016 27.8086V31.0898C25.1016 31.5428 25.4689 31.9102 25.9219 31.9102H29.2031C29.6561 31.9102 30.0234 31.5428 30.0234 31.0898V27.8086C30.0234 27.3556 29.6561 26.9883 29.2031 26.9883ZM28.3828 30.2695H26.7422V28.6289H28.3828V30.2695Z" fill="#22A7D6"/>
<path d="M22.6406 33.5508H19.3594C18.9063 33.5508 18.5391 33.9181 18.5391 34.3711V37.6523C18.5391 38.1053 18.9063 38.4727 19.3594 38.4727H22.6406C23.0936 38.4727 23.4609 38.1053 23.4609 37.6523V34.3711C23.4609 33.9181 23.0936 33.5508 22.6406 33.5508ZM21.8203 36.832H20.1797V35.1914H21.8203V36.832Z" fill="#22A7D6"/>
<path d="M29.2031 33.5508H25.9219C25.4689 33.5508 25.1016 33.9181 25.1016 34.3711V37.6523C25.1016 38.1053 25.4689 38.4727 25.9219 38.4727H29.2031C29.6561 38.4727 30.0234 38.1053 30.0234 37.6523V34.3711C30.0234 33.9181 29.6561 33.5508 29.2031 33.5508ZM28.3828 36.832H26.7422V35.1914H28.3828V36.832Z" fill="#22A7D6"/>
<path d="M35.7656 26.9883H32.4844C32.0314 26.9883 31.6641 27.3556 31.6641 27.8086V37.6523C31.6641 38.1053 32.0314 38.4727 32.4844 38.4727H35.7656C36.2186 38.4727 36.5859 38.1053 36.5859 37.6523V27.8086C36.5859 27.3556 36.2186 26.9883 35.7656 26.9883ZM34.9453 36.832H33.3047V28.6289H34.9453V36.832Z" fill="#22A7D6"/>
<path d="M35.7656 16.6523H19.3594C18.9063 16.6523 18.5391 17.0197 18.5391 17.4727V24.5273C18.5391 24.9803 18.9063 25.3477 19.3594 25.3477H35.7656C36.2186 25.3477 36.5859 24.9803 36.5859 24.5273V17.4727C36.5859 17.0197 36.2186 16.6523 35.7656 16.6523ZM34.9453 23.707H20.1797V18.293H34.9453V23.707Z" fill="#22A7D6"/>
<path d="M37.4062 13.125H30.0234V8.16949C30.0234 7.52727 29.7777 6.91975 29.3321 6.4593L23.8169 0.750422C23.5797 0.505148 23.2883 0.309586 22.9752 0.18293C22.9641 0.177926 22.9528 0.173332 22.9414 0.16882C22.9406 0.168492 22.9398 0.168164 22.9391 0.167836C22.654 0.0564375 22.3538 0 22.0467 0H4.59375C3.23679 0 2.13281 1.10398 2.13281 2.46094V34.3711C2.13281 35.7281 3.23679 36.832 4.59375 36.832H15.2578V39.5391C15.2578 40.896 16.3618 42 17.7188 42H37.4062C38.7632 42 39.8672 40.896 39.8672 39.5391V15.5859C39.8672 14.229 38.7632 13.125 37.4062 13.125ZM23.4609 2.74329L28.1527 7.59987C28.3011 7.75318 28.3828 7.95539 28.3828 8.16949V8.20312H24.2812C23.8289 8.20312 23.4609 7.83513 23.4609 7.38281V2.74329ZM15.2578 15.5859V35.1914H4.59375C4.14143 35.1914 3.77344 34.8234 3.77344 34.3711V2.46094C3.77344 2.00862 4.14143 1.64062 4.59375 1.64062H21.8203V7.38281C21.8203 8.73977 22.9243 9.84375 24.2812 9.84375H28.3828V13.125H17.7188C16.3618 13.125 15.2578 14.229 15.2578 15.5859ZM38.2266 39.5391C38.2266 39.9914 37.8586 40.3594 37.4062 40.3594H17.7188C17.2664 40.3594 16.8984 39.9914 16.8984 39.5391V15.5859C16.8984 15.1336 17.2664 14.7656 17.7188 14.7656H37.4062C37.8586 14.7656 38.2266 15.1336 38.2266 15.5859V39.5391Z" fill="#22A7D6"/>
<path d="M32.4844 19.9336H25.9219C25.4689 19.9336 25.1016 20.3009 25.1016 20.7539C25.1016 21.2069 25.4689 21.5742 25.9219 21.5742H32.4844C32.9374 21.5742 33.3047 21.2069 33.3047 20.7539C33.3047 20.3009 32.9374 19.9336 32.4844 19.9336Z" fill="#22A7D6"/>
<path d="M19.3594 9.84375H12.7969C12.3438 9.84375 11.9766 10.2111 11.9766 10.6641C11.9766 11.117 12.3438 11.4844 12.7969 11.4844H19.3594C19.8124 11.4844 20.1797 11.117 20.1797 10.6641C20.1797 10.2111 19.8124 9.84375 19.3594 9.84375Z" fill="#22A7D6"/>
<path d="M19.3594 6.5625H12.7969C12.3438 6.5625 11.9766 6.92984 11.9766 7.38281C11.9766 7.83579 12.3438 8.20312 12.7969 8.20312H19.3594C19.8124 8.20312 20.1797 7.83579 20.1797 7.38281C20.1797 6.92984 19.8124 6.5625 19.3594 6.5625Z" fill="#22A7D6"/>
<path d="M12.7969 16.6523H6.23438C5.78132 16.6523 5.41406 17.0197 5.41406 17.4727C5.41406 17.9256 5.78132 18.293 6.23438 18.293H12.7969C13.2499 18.293 13.6172 17.9256 13.6172 17.4727C13.6172 17.0197 13.2499 16.6523 12.7969 16.6523Z" fill="#22A7D6"/>
<path d="M7.875 19.9336H6.23438C5.78132 19.9336 5.41406 20.3009 5.41406 20.7539C5.41406 21.2069 5.78132 21.5742 6.23438 21.5742H7.875C8.32806 21.5742 8.69531 21.2069 8.69531 20.7539C8.69531 20.3009 8.32806 19.9336 7.875 19.9336Z" fill="#22A7D6"/>
<path d="M12.7969 19.9336H11.1562C10.7032 19.9336 10.3359 20.3009 10.3359 20.7539C10.3359 21.2069 10.7032 21.5742 11.1562 21.5742H12.7969C13.2499 21.5742 13.6172 21.2069 13.6172 20.7539C13.6172 20.3009 13.2499 19.9336 12.7969 19.9336Z" fill="#22A7D6"/>
<path d="M7.875 23.707H6.23438C5.78132 23.707 5.41406 24.0744 5.41406 24.5273C5.41406 24.9803 5.78132 25.3477 6.23438 25.3477H7.875C8.32806 25.3477 8.69531 24.9803 8.69531 24.5273C8.69531 24.0744 8.32806 23.707 7.875 23.707Z" fill="#22A7D6"/>
<path d="M12.7969 23.707H11.1562C10.7032 23.707 10.3359 24.0744 10.3359 24.5273C10.3359 24.9803 10.7032 25.3477 11.1562 25.3477H12.7969C13.2499 25.3477 13.6172 24.9803 13.6172 24.5273C13.6172 24.0744 13.2499 23.707 12.7969 23.707Z" fill="#22A7D6"/>
<path d="M7.875 26.9883H6.23438C5.78132 26.9883 5.41406 27.3556 5.41406 27.8086C5.41406 28.2616 5.78132 28.6289 6.23438 28.6289H7.875C8.32806 28.6289 8.69531 28.2616 8.69531 27.8086C8.69531 27.3556 8.32806 26.9883 7.875 26.9883Z" fill="#22A7D6"/>
<path d="M12.7969 26.9883H11.1562C10.7032 26.9883 10.3359 27.3556 10.3359 27.8086C10.3359 28.2616 10.7032 28.6289 11.1562 28.6289H12.7969C13.2499 28.6289 13.6172 28.2616 13.6172 27.8086C13.6172 27.3556 13.2499 26.9883 12.7969 26.9883Z" fill="#22A7D6"/>
<path d="M7.875 30.2695H6.23438C5.78132 30.2695 5.41406 30.6369 5.41406 31.0898C5.41406 31.5428 5.78132 31.9102 6.23438 31.9102H7.875C8.32806 31.9102 8.69531 31.5428 8.69531 31.0898C8.69531 30.6369 8.32806 30.2695 7.875 30.2695Z" fill="#22A7D6"/>
<path d="M12.7969 30.2695H11.1562C10.7032 30.2695 10.3359 30.6369 10.3359 31.0898C10.3359 31.5428 10.7032 31.9102 11.1562 31.9102H12.7969C13.2499 31.9102 13.6172 31.5428 13.6172 31.0898C13.6172 30.6369 13.2499 30.2695 12.7969 30.2695Z" fill="#22A7D6"/>
</svg>
