<svg width="69" height="69" viewBox="0 0 69 69" fill="none" xmlns="http://www.w3.org/2000/svg">
<rect width="69" height="69" rx="8" />
<g clip-path="url(#clip0_1295_220)">
<path d="M53.4908 26.0624C53.4208 25.8916 53.3172 25.7376 53.1884 25.6088L41.9912 14.4116C41.8624 14.2828 41.7084 14.1792 41.5376 14.1092C41.3696 14.0392 41.1876 14 41 14H22.8C21.2572 14 20 15.2572 20 16.8V29.4C20 30.1728 20.6272 30.8 21.4 30.8C22.1728 30.8 22.8 30.1728 22.8 29.4V16.8H39.6V25.2C39.6 26.7428 40.8572 28 42.4 28H50.8V50.4H34C33.2272 50.4 32.6 51.0272 32.6 51.8C32.6 52.5728 33.2272 53.2 34 53.2H50.8C52.3428 53.2 53.6 51.9428 53.6 50.4V26.6C53.6 26.4124 53.5608 26.2304 53.4908 26.0624ZM42.4 25.2V18.7796L48.8204 25.2H42.4Z" fill="#22A7D6"/>
<path d="M28.3611 54.2613L26.2163 45.6569C27.5547 44.3801 28.4003 42.5909 28.4003 40.6001C28.4003 36.7417 25.2587 33.6001 21.4003 33.6001C17.5419 33.6001 14.4003 36.7417 14.4003 40.6001C14.4003 42.5909 15.2459 44.3801 16.5843 45.6569L14.4395 54.2613C14.3079 54.7905 14.4983 55.3505 14.9239 55.6921C15.3495 56.0365 15.9375 56.0953 16.4247 55.8517L21.4003 53.3653L26.3731 55.8517C26.5719 55.9497 26.7875 56.0001 27.0003 56.0001C27.3111 56.0001 27.6219 55.8965 27.8767 55.6921C28.3023 55.3505 28.4927 54.7905 28.3611 54.2613ZM22.0247 50.5485C21.6299 50.3525 21.1651 50.3525 20.7731 50.5485L17.8919 51.9877L19.0903 47.1773C19.8183 47.4349 20.5883 47.6001 21.4003 47.6001C22.2123 47.6001 22.9823 47.4349 23.7075 47.1773L24.9059 51.9877L22.0247 50.5485ZM21.4003 44.8001C19.0847 44.8001 17.2003 42.9157 17.2003 40.6001C17.2003 38.2845 19.0847 36.4001 21.4003 36.4001C23.7159 36.4001 25.6003 38.2845 25.6003 40.6001C25.6003 42.9157 23.7159 44.8001 21.4003 44.8001Z" fill="#22A7D6"/>
<path d="M35.3996 22.4001H26.9996C26.2268 22.4001 25.5996 23.0273 25.5996 23.8001C25.5996 24.5729 26.2268 25.2001 26.9996 25.2001H35.3996C36.1724 25.2001 36.7996 24.5729 36.7996 23.8001C36.7996 23.0273 36.1724 22.4001 35.3996 22.4001Z" fill="#22A7D6"/>
<path d="M46.6004 30.8H29.8004C29.0276 30.8 28.4004 31.4272 28.4004 32.2C28.4004 32.9728 29.0276 33.6 29.8004 33.6H46.6004C47.3732 33.6 48.0004 32.9728 48.0004 32.2C48.0004 31.4272 47.3732 30.8 46.6004 30.8Z" fill="#22A7D6"/>
<path d="M46.6012 39.2H32.6012C31.8284 39.2 31.2012 39.8272 31.2012 40.5999C31.2012 41.3727 31.8284 41.9999 32.6012 41.9999H46.6012C47.374 41.9999 48.0012 41.3727 48.0012 40.5999C48.0012 39.8272 47.374 39.2 46.6012 39.2Z" fill="#22A7D6"/>
</g>
<defs>
<clipPath id="clip0_1295_220">
<rect width="42" height="42" fill="white" transform="translate(13 14)"/>
</clipPath>
</defs>
</svg>
