<svg width="42" height="42" viewBox="0 0 42 42" fill="none" xmlns="http://www.w3.org/2000/svg">
<path fill-rule="evenodd" clip-rule="evenodd" d="M0 21C0 9.40202 9.40202 0 21 0C32.5924 0.0135008 41.9865 9.40762 42 21C42 32.598 32.598 42 21 42C9.40202 42 0 32.598 0 21ZM21.1436 30.6057L33.1223 14.35C33.5273 13.8487 33.624 13.1655 33.3742 12.5716C33.1243 11.9776 32.5682 11.569 31.9268 11.508C31.2853 11.447 30.6622 11.7435 30.3048 12.2797L19.4076 27.069L12.2746 21.3622C11.5198 20.7581 10.4181 20.8804 9.81409 21.6352C9.21003 22.39 9.33225 23.4916 10.0871 24.0957L18.6411 30.9347C19.015 31.227 19.4907 31.3568 19.9613 31.295C20.4319 31.2331 20.8579 30.9847 21.1436 30.6057Z" fill="#B6DB51"/>
</svg>
