<svg width="80" height="80" viewBox="0 0 80 80" fill="none" xmlns="http://www.w3.org/2000/svg">
<path d="M14.4001 78.4001H65.6001V72.0001H78.4001V52.8001C78.4001 43.4657 72.2193 35.5505 63.7361 32.9265C67.7361 30.3649 70.4001 25.8913 70.4001 20.8001C70.4001 12.8609 63.9409 6.4001 56.0001 6.4001C54.6321 6.4001 53.2753 6.6049 51.9505 6.9969C49.0177 3.6961 44.7537 1.6001 40.0001 1.6001C35.2465 1.6001 30.9825 3.6961 28.0497 6.9969C26.7249 6.6049 25.3681 6.4001 24.0001 6.4001C16.0593 6.4001 9.6001 12.8609 9.6001 20.8001C9.6001 25.8913 12.2641 30.3649 16.2641 32.9265C7.7809 35.5505 1.6001 43.4657 1.6001 52.8001V72.0001H14.4001V78.4001ZM62.4001 75.2001H17.6001V72.0001V51.2001C17.6001 50.6657 17.6337 50.1377 17.6801 49.6145C17.6961 49.4433 17.7169 49.2737 17.7361 49.1025C17.7793 48.7409 17.8353 48.3841 17.9009 48.0305C17.9345 47.8513 17.9617 47.6705 18.0001 47.4929C18.0993 47.0337 18.2161 46.5825 18.3489 46.1361C18.4161 45.9153 18.4961 45.7009 18.5713 45.4833C18.6577 45.2305 18.7489 44.9809 18.8465 44.7329C18.9409 44.4945 19.0401 44.2577 19.1441 44.0241C19.2465 43.7953 19.3585 43.5713 19.4705 43.3473C19.6337 43.0209 19.8065 42.7009 19.9889 42.3857C20.1489 42.1121 20.3089 41.8385 20.4817 41.5745C20.6161 41.3697 20.7601 41.1713 20.9025 40.9713C21.0529 40.7601 21.2081 40.5521 21.3681 40.3489C21.5153 40.1617 21.6625 39.9761 21.8177 39.7953C22.0193 39.5601 22.2289 39.3329 22.4417 39.1089C22.6385 38.9009 22.8401 38.6961 23.0465 38.4977C23.3009 38.2545 23.5585 38.0161 23.8273 37.7873C24.0033 37.6385 24.1857 37.4961 24.3681 37.3537C24.5777 37.1905 24.7889 37.0305 25.0065 36.8769C25.2081 36.7329 25.4097 36.5905 25.6193 36.4545C25.8305 36.3169 26.0481 36.1905 26.2641 36.0625C26.6721 35.8209 27.0913 35.5953 27.5217 35.3857C27.7377 35.2801 27.9505 35.1697 28.1713 35.0721L28.4289 34.9569C30.5153 34.0849 32.8017 33.6001 35.2001 33.6001H44.8001C47.1985 33.6001 49.4849 34.0849 51.5697 34.9585L51.8273 35.0737C52.0481 35.1697 52.2609 35.2817 52.4769 35.3873C52.9073 35.5969 53.3265 35.8225 53.7345 36.0641C53.9521 36.1921 54.1697 36.3185 54.3793 36.4561C54.5873 36.5921 54.7905 36.7345 54.9921 36.8785C55.2081 37.0321 55.4209 37.1921 55.6305 37.3553C55.8129 37.4977 55.9953 37.6401 56.1713 37.7889C56.4401 38.0161 56.6977 38.2561 56.9521 38.4993C57.1601 38.6977 57.3601 38.9025 57.5569 39.1105C57.7697 39.3345 57.9809 39.5617 58.1809 39.7969C58.3345 39.9777 58.4833 40.1633 58.6305 40.3505C58.7905 40.5537 58.9457 40.7617 59.0961 40.9729C59.2385 41.1729 59.3841 41.3697 59.5169 41.5761C59.6897 41.8401 59.8513 42.1137 60.0097 42.3873C60.1921 42.7025 60.3649 43.0241 60.5281 43.3489C60.6401 43.5729 60.7521 43.7969 60.8545 44.0257C60.9601 44.2593 61.0577 44.4961 61.1521 44.7345C61.2497 44.9809 61.3393 45.2321 61.4273 45.4849C61.5025 45.7025 61.5825 45.9185 61.6497 46.1377C61.7841 46.5825 61.9009 47.0353 61.9985 47.4945C62.0369 47.6721 62.0657 47.8529 62.0977 48.0321C62.1617 48.3857 62.2193 48.7441 62.2625 49.1041C62.2833 49.2737 62.3041 49.4449 62.3185 49.6161C62.3665 50.1377 62.4001 50.6657 62.4001 51.2001V72.0001V75.2001ZM75.2001 52.8001V68.8001H65.6001V51.2001C65.6001 50.4401 65.5537 49.6913 65.4737 48.9521C65.4545 48.7777 65.4177 48.6081 65.3953 48.4353C65.3185 47.8641 65.2289 47.2961 65.1073 46.7409C65.0673 46.5585 65.0129 46.3825 64.9681 46.2017C64.8337 45.6593 64.6849 45.1233 64.5089 44.5985C64.4497 44.4209 64.3809 44.2481 64.3169 44.0737C64.1281 43.5569 63.9217 43.0481 63.6945 42.5521C63.6145 42.3777 63.5297 42.2049 63.4433 42.0337C63.2049 41.5489 62.9489 41.0769 62.6737 40.6145C62.5729 40.4449 62.4721 40.2753 62.3649 40.1073C62.0769 39.6545 61.7713 39.2161 61.4513 38.7873C61.3345 38.6305 61.2225 38.4721 61.1009 38.3185C60.7505 37.8753 60.3777 37.4513 59.9921 37.0385C59.8833 36.9217 59.7825 36.7985 59.6705 36.6849C59.1649 36.1665 58.6369 35.6705 58.0801 35.2081C67.5633 35.4625 75.2001 43.2561 75.2001 52.8001ZM53.9569 9.7937C54.6321 9.6657 55.3137 9.6001 56.0001 9.6001C62.1745 9.6001 67.2001 14.6241 67.2001 20.8001C67.2001 26.9761 62.1745 32.0001 56.0001 32.0001C53.8033 32.0001 51.6897 31.3601 49.8785 30.1697C49.9025 30.1521 49.9217 30.1297 49.9441 30.1105C51.3217 29.0145 52.5089 27.6961 53.4625 26.2097C53.4929 26.1617 53.5201 26.1137 53.5505 26.0657C53.8273 25.6241 54.0817 25.1697 54.3153 24.7009C54.3537 24.6241 54.3889 24.5473 54.4257 24.4705C54.6385 24.0273 54.8289 23.5729 55.0001 23.1073C55.0353 23.0113 55.0721 22.9153 55.1057 22.8193C55.2609 22.3729 55.3937 21.9169 55.5089 21.4529C55.5377 21.3377 55.5713 21.2241 55.5969 21.1089C55.6993 20.6561 55.7761 20.1953 55.8385 19.7281C55.8561 19.6049 55.8817 19.4833 55.8945 19.3585C55.9617 18.7825 56.0001 18.1953 56.0001 17.6001C56.0001 16.9665 55.9537 16.3457 55.8817 15.7313C55.8593 15.5361 55.8225 15.3441 55.7921 15.1489C55.7249 14.7201 55.6449 14.2961 55.5457 13.8785C55.4977 13.6753 55.4465 13.4737 55.3905 13.2737C55.2609 12.8113 55.1089 12.3585 54.9393 11.9153C54.8913 11.7921 54.8529 11.6657 54.8033 11.5441C54.5601 10.9521 54.2833 10.3793 53.9729 9.8241C53.9649 9.8129 53.9617 9.8033 53.9569 9.7937ZM49.8609 9.4481L49.9585 9.5745C50.0369 9.6721 50.1073 9.7745 50.1825 9.8737C50.9985 10.9473 51.6225 12.1169 52.0609 13.3505C52.0897 13.4305 52.1217 13.5089 52.1489 13.5905C52.3393 14.1649 52.4833 14.7521 52.5905 15.3505C52.6129 15.4753 52.6305 15.6033 52.6481 15.7297C52.7377 16.3457 52.8001 16.9681 52.8001 17.6001C52.8001 18.1249 52.7601 18.6433 52.6961 19.1569C52.6817 19.2769 52.6593 19.3953 52.6417 19.5153C52.5761 19.9393 52.4945 20.3585 52.3873 20.7697C52.3649 20.8561 52.3441 20.9441 52.3201 21.0305C52.0305 22.0609 51.6177 23.0497 51.0865 23.9713C51.0769 23.9873 51.0673 24.0033 51.0577 24.0193C50.8001 24.4625 50.5121 24.8897 50.2017 25.2993C50.1729 25.3361 50.1457 25.3745 50.1169 25.4129C49.4657 26.2561 48.7073 27.0193 47.8545 27.6849C47.8049 27.7233 47.7521 27.7601 47.7025 27.7985C47.3073 28.0977 46.8945 28.3761 46.4625 28.6305C46.3857 28.6753 46.3137 28.7249 46.2353 28.7681L46.0529 28.8737C44.2481 29.8465 42.1889 30.4001 40.0001 30.4001C37.8113 30.4001 35.7521 29.8465 33.9489 28.8737L33.7665 28.7681C33.6897 28.7249 33.6161 28.6753 33.5393 28.6305C33.1073 28.3761 32.6945 28.0977 32.2993 27.7985C32.2481 27.7601 32.1969 27.7233 32.1473 27.6849C31.2961 27.0193 30.5377 26.2561 29.8849 25.4129C29.8561 25.3761 29.8289 25.3377 29.8001 25.2993C29.4897 24.8897 29.2033 24.4625 28.9441 24.0193C28.9345 24.0033 28.9249 23.9873 28.9153 23.9713C28.3825 23.0481 27.9697 22.0593 27.6801 21.0289C27.6561 20.9441 27.6353 20.8561 27.6129 20.7713C27.5057 20.3585 27.4241 19.9393 27.3585 19.5153C27.3409 19.3953 27.3185 19.2785 27.3041 19.1569C27.2401 18.6433 27.2001 18.1249 27.2001 17.6001C27.2001 16.9681 27.2625 16.3457 27.3521 15.7313C27.3713 15.6049 27.3873 15.4785 27.4097 15.3521C27.5169 14.7553 27.6609 14.1665 27.8513 13.5921C27.8785 13.5105 27.9105 13.4321 27.9393 13.3521C28.3777 12.1185 29.0017 10.9473 29.8177 9.8753C29.8929 9.7761 29.9633 9.6721 30.0417 9.5761L30.1393 9.4497C32.4897 6.6113 36.0369 4.8001 40.0001 4.8001C43.9633 4.8001 47.5105 6.6113 49.8609 9.4481ZM12.8001 20.8001C12.8001 14.6241 17.8257 9.6001 24.0001 9.6001C24.6865 9.6001 25.3681 9.6657 26.0433 9.7937C26.0385 9.8033 26.0337 9.8145 26.0289 9.8241C25.7201 10.3777 25.4417 10.9505 25.1985 11.5425C25.1473 11.6657 25.1089 11.7921 25.0609 11.9169C24.8913 12.3601 24.7393 12.8129 24.6097 13.2737C24.5537 13.4737 24.5025 13.6753 24.4545 13.8785C24.3553 14.2961 24.2753 14.7201 24.2081 15.1489C24.1777 15.3425 24.1425 15.5345 24.1185 15.7313C24.0465 16.3457 24.0001 16.9665 24.0001 17.6001C24.0001 18.1953 24.0385 18.7825 24.1025 19.3601C24.1169 19.4849 24.1425 19.6049 24.1585 19.7281C24.2209 20.1953 24.2993 20.6577 24.4001 21.1105C24.4257 21.2257 24.4593 21.3377 24.4881 21.4513C24.6033 21.9153 24.7361 22.3729 24.8913 22.8209C24.9249 22.9185 24.9617 23.0129 24.9969 23.1105C25.1681 23.5745 25.3601 24.0289 25.5713 24.4721C25.6081 24.5489 25.6449 24.6273 25.6833 24.7041C25.9169 25.1729 26.1713 25.6273 26.4481 26.0689C26.4785 26.1169 26.5057 26.1649 26.5361 26.2129C27.4897 27.6993 28.6785 29.0161 30.0545 30.1137C30.0769 30.1329 30.0977 30.1537 30.1201 30.1729C28.3105 31.3601 26.1969 32.0001 24.0001 32.0001C17.8257 32.0001 12.8001 26.9761 12.8001 20.8001ZM4.8001 68.8001V52.8001C4.8001 43.2561 12.4369 35.4625 21.9217 35.2065C21.3649 35.6689 20.8369 36.1665 20.3313 36.6833C20.2193 36.7969 20.1185 36.9201 20.0097 37.0369C19.6241 37.4497 19.2513 37.8737 18.8993 38.3185C18.7793 38.4705 18.6673 38.6289 18.5505 38.7857C18.2289 39.2145 17.9233 39.6529 17.6353 40.1073C17.5297 40.2753 17.4289 40.4433 17.3265 40.6145C17.0513 41.0769 16.7953 41.5489 16.5569 42.0337C16.4721 42.2065 16.3873 42.3777 16.3057 42.5521C16.0769 43.0481 15.8721 43.5569 15.6833 44.0737C15.6193 44.2497 15.5505 44.4209 15.4913 44.5985C15.3153 45.1249 15.1665 45.6609 15.0305 46.2049C14.9857 46.3841 14.9329 46.5601 14.8929 46.7409C14.7713 47.2977 14.6817 47.8657 14.6049 48.4385C14.5809 48.6113 14.5457 48.7793 14.5265 48.9537C14.4465 49.6913 14.4001 50.4401 14.4001 51.2001V68.8001H4.8001Z" fill="#B2D551"/>
</svg>
