<svg width="69" height="69" viewBox="0 0 69 69" fill="none" xmlns="http://www.w3.org/2000/svg">
<path d="M46.578 22.7937C42.2332 22.7937 38.144 20.9562 35.0771 17.9375C32.0103 20.9562 27.9211 22.7937 23.5763 22.7937C21.7873 22.7937 20.1261 22.4 18.4648 21.875C18.4648 40.25 25.4931 47.6 35.0771 52.0625C44.6612 47.6 51.6894 40.25 51.6894 21.875C50.0282 22.4 48.367 22.7937 46.578 22.7937Z" stroke="#B2D551" stroke-width="2" stroke-miterlimit="10" stroke-linecap="round" stroke-linejoin="round"/>
<path d="M38.9105 42.875H31.2432C29.8376 42.875 28.6875 41.6938 28.6875 40.25V35C28.6875 33.5562 29.8376 32.375 31.2432 32.375H38.9105C40.3161 32.375 41.4662 33.5562 41.4662 35V40.25C41.4662 41.6938 40.3161 42.875 38.9105 42.875Z" stroke="#B2D551" stroke-width="2" stroke-miterlimit="10" stroke-linecap="round" stroke-linejoin="round"/>
<path d="M40.1878 32.375H29.9648V29.75C29.9648 26.8625 32.265 24.5 35.0763 24.5C37.8876 24.5 40.1878 26.8625 40.1878 29.75V32.375Z" stroke="#B2D551" stroke-width="2" stroke-miterlimit="10" stroke-linecap="round" stroke-linejoin="round"/>
<path d="M35.0762 36.3125V38.9375" stroke="#B2D551" stroke-width="2" stroke-miterlimit="10" stroke-linecap="round" stroke-linejoin="round"/>
</svg>
