<svg width="63" height="63" viewBox="0 0 63 63" fill="none" xmlns="http://www.w3.org/2000/svg">
<path d="M31.4994 26.7286C38.3397 26.7286 43.9051 21.1632 43.9051 14.3229C43.9051 7.48261 38.3397 1.91724 31.4994 1.91724C24.6591 1.91724 19.0938 7.48261 19.0938 14.3229C19.0938 21.1632 24.6591 26.7286 31.4994 26.7286ZM31.4994 3.8258C37.2871 3.8258 41.9965 8.53518 41.9965 14.3229C41.9965 20.1106 37.2871 24.82 31.4994 24.82C25.7117 24.82 21.0023 20.1106 21.0023 14.3229C21.0023 8.53518 25.7117 3.8258 31.4994 3.8258Z" fill="#B2D551"/>
<path d="M14.3236 36.2715C7.48334 36.2715 1.91797 41.8369 1.91797 48.6772C1.91797 55.5175 7.48334 61.0828 14.3236 61.0828C21.1639 61.0828 26.7293 55.5175 26.7293 48.6772C26.7293 41.8369 21.1639 36.2715 14.3236 36.2715ZM14.3236 59.1743C8.53592 59.1743 3.82653 54.4649 3.82653 48.6772C3.82653 42.8894 8.53592 38.18 14.3236 38.18C20.1114 38.18 24.8207 42.8894 24.8207 48.6772C24.8207 54.4649 20.1114 59.1743 14.3236 59.1743Z" fill="#B2D551"/>
<path d="M48.6772 36.2715C41.8369 36.2715 36.2715 41.8369 36.2715 48.6772C36.2715 55.5175 41.8369 61.0828 48.6772 61.0828C55.5175 61.0828 61.0828 55.5175 61.0828 48.6772C61.0828 41.8369 55.5175 36.2715 48.6772 36.2715ZM48.6772 59.1743C42.8894 59.1743 38.18 54.4649 38.18 48.6772C38.18 42.8894 42.8894 38.18 48.6772 38.18C54.4649 38.18 59.1743 42.8894 59.1743 48.6772C59.1743 54.4649 54.4649 59.1743 48.6772 59.1743Z" fill="#B2D551"/>
<path d="M48.6773 45.8142C47.0989 45.8142 45.8145 47.0987 45.8145 48.6771C45.8145 50.2554 47.0989 51.5399 48.6773 51.5399C50.2557 51.5399 51.5401 50.2554 51.5401 48.6771C51.5401 47.0987 50.2557 45.8142 48.6773 45.8142ZM48.6773 49.6313C48.1505 49.6313 47.723 49.2038 47.723 48.6771C47.723 48.1503 48.1505 47.7228 48.6773 47.7228C49.2041 47.7228 49.6316 48.1503 49.6316 48.6771C49.6316 49.2038 49.2041 49.6313 48.6773 49.6313Z" fill="#B2D551"/>
<path d="M41.9976 45.8142C40.4192 45.8142 39.1348 47.0987 39.1348 48.6771C39.1348 50.2554 40.4192 51.5399 41.9976 51.5399C43.576 51.5399 44.8605 50.2554 44.8605 48.6771C44.8605 47.0987 43.576 45.8142 41.9976 45.8142ZM41.9976 49.6313C41.4708 49.6313 41.0433 49.2038 41.0433 48.6771C41.0433 48.1503 41.4708 47.7228 41.9976 47.7228C42.5244 47.7228 42.9519 48.1503 42.9519 48.6771C42.9519 49.2038 42.5244 49.6313 41.9976 49.6313Z" fill="#B2D551"/>
<path d="M52.4941 48.6771C52.4941 50.2554 53.7786 51.5399 55.357 51.5399C56.9354 51.5399 58.2198 50.2554 58.2198 48.6771C58.2198 47.0987 56.9354 45.8142 55.357 45.8142C53.7786 45.8142 52.4941 47.0987 52.4941 48.6771ZM56.3113 48.6771C56.3113 49.2038 55.8838 49.6313 55.357 49.6313C54.8302 49.6313 54.4027 49.2038 54.4027 48.6771C54.4027 48.1503 54.8302 47.7228 55.357 47.7228C55.8838 47.7228 56.3113 48.1503 56.3113 48.6771Z" fill="#B2D551"/>
<path d="M34.8394 17.1857C36.4178 17.1857 37.7023 15.9012 37.7023 14.3228C37.7023 12.7444 36.4178 11.46 34.8394 11.46C33.261 11.46 31.9766 12.7444 31.9766 14.3228C31.9766 15.9012 33.261 17.1857 34.8394 17.1857ZM34.8394 13.3685C35.3662 13.3685 35.7937 13.796 35.7937 14.3228C35.7937 14.8496 35.3662 15.2771 34.8394 15.2771C34.3126 15.2771 33.8851 14.8496 33.8851 14.3228C33.8851 13.796 34.3126 13.3685 34.8394 13.3685Z" fill="#B2D551"/>
<path d="M28.1597 17.1857C29.7381 17.1857 31.0226 15.9012 31.0226 14.3228C31.0226 12.7444 29.7381 11.46 28.1597 11.46C26.5813 11.46 25.2969 12.7444 25.2969 14.3228C25.2969 15.9012 26.5813 17.1857 28.1597 17.1857ZM28.1597 13.3685C28.6865 13.3685 29.114 13.796 29.114 14.3228C29.114 14.8496 28.6865 15.2771 28.1597 15.2771C27.633 15.2771 27.2054 14.8496 27.2054 14.3228C27.2054 13.796 27.633 13.3685 28.1597 13.3685Z" fill="#B2D551"/>
<path d="M14.3238 45.8142C12.7454 45.8142 11.4609 47.0987 11.4609 48.6771C11.4609 50.2554 12.7454 51.5399 14.3238 51.5399C15.9022 51.5399 17.1866 50.2554 17.1866 48.6771C17.1866 47.0987 15.9022 45.8142 14.3238 45.8142ZM14.3238 49.6313C13.797 49.6313 13.3695 49.2038 13.3695 48.6771C13.3695 48.1503 13.797 47.7228 14.3238 47.7228C14.8505 47.7228 15.2781 48.1503 15.2781 48.6771C15.2781 49.2038 14.8505 49.6313 14.3238 49.6313Z" fill="#B2D551"/>
<path d="M17.7582 16.0405L16.6121 14.5137C10.3062 19.2507 6.68945 26.4851 6.68945 34.3627C6.68945 34.6948 6.69613 35.0241 6.70949 35.3533L8.61615 35.2808C8.6047 34.9763 8.59802 34.67 8.59802 34.3627C8.59802 27.0911 11.9371 20.413 17.7582 16.0405Z" fill="#B2D551"/>
<path d="M26.002 56.6023L25.5449 58.4546C27.4821 58.9317 29.4852 59.1741 31.4996 59.1741C33.5141 59.1741 35.5172 58.9317 37.4534 58.4546L36.9963 56.6023C33.4225 57.4821 29.5768 57.4821 26.002 56.6023Z" fill="#B2D551"/>
<path d="M56.2919 35.3533C56.3052 35.0241 56.3119 34.6948 56.3119 34.3627C56.3119 26.4851 52.6952 19.2507 46.3902 14.5137L45.2441 16.0405C51.0643 20.413 54.4033 27.0911 54.4033 34.3627C54.4033 34.67 54.3967 34.9763 54.3852 35.2808L56.2919 35.3533Z" fill="#B2D551"/>
</svg>
