<svg width="36" height="36" viewBox="0 0 36 36" fill="none" xmlns="http://www.w3.org/2000/svg">
<path d="M33.4207 17.7672L18.7957 3.14216C18.3558 2.70229 17.6448 2.70229 17.2049 3.14216L2.57991 17.7672C2.14003 18.207 2.14003 18.918 2.57991 19.3579C3.01978 19.7978 3.73078 19.7978 4.17066 19.3579L18.0003 5.52829L27.016 14.544C27.0149 14.5722 27.0003 14.5969 27.0003 14.625V31.5H9.00028V20.25C9.00028 19.6279 8.49628 19.125 7.87528 19.125C7.25428 19.125 6.75028 19.6279 6.75028 20.25V32.625C6.75028 33.2472 7.25428 33.75 7.87528 33.75H28.1253C28.7474 33.75 29.2503 33.2472 29.2503 32.625V16.7783L31.8299 19.3579C32.0493 19.5773 32.3373 19.6875 32.6253 19.6875C32.9133 19.6875 33.2013 19.5773 33.4207 19.3579C33.8605 18.918 33.8605 18.207 33.4207 17.7672Z" fill="currentColor"/>
</svg>
