<svg width="42" height="42" viewBox="0 0 42 42" fill="none" xmlns="http://www.w3.org/2000/svg">
<path d="M24.5 1.75H10.5C9.10761 1.75 7.77226 2.30312 6.78769 3.28769C5.80312 4.27225 5.25 5.60761 5.25 7V35C5.25 36.3924 5.80312 37.7277 6.78769 38.7123C7.77226 39.6969 9.10761 40.25 10.5 40.25H31.5C32.8924 40.25 34.2277 39.6969 35.2123 38.7123C36.1969 37.7277 36.75 36.3924 36.75 35V14L24.5 1.75Z" stroke="#22A7D6" stroke-width="2" stroke-linecap="round" stroke-linejoin="round"/>
<path d="M24.5 8.75C24.5 10.1424 25.0531 11.4777 26.0377 12.4623C27.0223 13.4469 28.3576 14 29.75 14H36.75L24.5 1.75V8.75Z" stroke="#22A7D6" stroke-width="2" stroke-linecap="round" stroke-linejoin="round"/>
</svg>
