<svg width="44" height="44" viewBox="0 0 44 44" fill="none" xmlns="http://www.w3.org/2000/svg">
<path d="M39.5015 14.1257C38.8636 14.1257 38.346 14.6436 38.346 15.2811V19.7997H37.0545V18.77C37.0545 16.2093 34.9708 14.1257 32.4108 14.1257C31.0199 14.1257 29.7743 14.7437 28.9219 15.7148C28.0695 14.7437 26.8238 14.1257 25.4336 14.1257C24.0428 14.1257 22.7964 14.7437 21.9447 15.7148C21.0924 14.7437 19.8463 14.1257 18.4558 14.1257C17.0656 14.1257 15.8192 14.7437 14.9672 15.7148C14.1152 14.7437 12.8688 14.1257 11.4783 14.1257C8.91799 14.1257 6.83442 16.2095 6.83442 18.77V19.7997H4.49909C3.86162 19.7997 3.34375 20.3173 3.34375 20.9551C3.34375 21.5927 3.86162 22.1106 4.49909 22.1106H6.83265V39.3557C6.83265 41.9164 8.91638 43.9999 11.4766 43.9999C12.8671 43.9999 14.1135 43.3823 14.9655 42.4112C15.8175 43.3823 17.0635 43.9999 18.454 43.9999C19.8445 43.9999 21.0906 43.3823 21.9426 42.4112C22.7944 43.3823 24.041 43.9999 25.4312 43.9999C26.8214 43.9999 28.0684 43.3823 28.9201 42.4112C29.7716 43.3823 31.0188 43.9999 32.409 43.9999C34.9696 43.9999 37.0532 41.9162 37.0532 39.3557V22.1114H39.4996C40.1374 22.1114 40.6549 21.5935 40.6549 20.9561V15.2819C40.657 14.6436 40.1387 14.1257 39.5015 14.1257ZM34.7435 22.1114V39.3565C34.7435 40.6435 33.6971 41.6901 32.4108 41.6901C31.1244 41.6901 30.0774 40.6437 30.0774 39.3565V22.1114V19.8006V18.7708C30.0774 17.4841 31.1244 16.4372 32.4108 16.4372C33.6971 16.4372 34.7435 17.4839 34.7435 18.7708V19.8006V22.1114ZM27.7657 39.3559C27.7657 40.6427 26.7187 41.6893 25.4323 41.6893C24.1459 41.6893 23.0988 40.6429 23.0988 39.3559V22.1114V19.8006V18.7708C23.0988 17.4841 24.1458 16.4372 25.4323 16.4372C26.7185 16.4372 27.7657 17.4839 27.7657 18.7708V19.8006V22.1114V39.3559ZM20.7884 39.3559C20.7884 40.6427 19.7417 41.6893 18.4553 41.6893C17.1691 41.6893 16.1222 40.6429 16.1222 39.3559V22.1114V19.8006V18.7708C16.1222 17.4841 17.1691 16.4372 18.4553 16.4372C19.7417 16.4372 20.7884 17.4839 20.7884 18.7708V19.8006V22.1114V39.3559ZM13.8106 39.3559C13.8106 40.6427 12.7634 41.6893 11.4772 41.6893C10.1908 41.6893 9.14413 40.6429 9.14413 39.3559V22.1114V19.8006V18.7708C9.14413 17.4841 10.1908 16.4372 11.4772 16.4372C12.7634 16.4372 13.8106 17.4839 13.8106 18.7708V19.8006V22.1114V39.3559Z" fill="#22A7D6"/>
<path d="M14.2586 0.38767C13.2172 1.63004 12.7886 2.94559 13.3047 4.52499C13.814 6.08312 15.3783 7.51214 14.1299 9.11749C13.2269 10.2781 14.8499 11.9267 15.7635 10.7514C16.7918 9.42921 17.2364 8.08062 16.7174 6.43981C16.2491 4.95937 14.6469 3.50682 15.8921 2.02155C16.8429 0.887489 15.2173 -0.756062 14.2586 0.38767Z" fill="#22A7D6"/>
<path d="M22.697 10.7511C23.7261 9.42897 24.1698 8.08038 23.6508 6.43957C23.1829 4.95913 21.5802 3.50658 22.8256 2.02131C23.7764 0.887245 22.1501 -0.756306 21.192 0.387426C20.1507 1.6298 19.7222 2.94535 20.2383 4.52475C20.7477 6.08288 22.3119 7.5119 21.0636 9.11725C20.1597 10.2781 21.7826 11.9265 22.697 10.7511Z" fill="#22A7D6"/>
<path d="M28.1237 0.38767C27.0826 1.63004 26.6539 2.94559 27.1698 4.52499C27.6798 6.08312 29.2437 7.51214 27.9959 9.11749C27.0924 10.2781 28.715 11.9267 29.6289 10.7514C30.6573 9.42921 31.102 8.08062 30.5828 6.43981C30.1142 4.95937 28.5118 3.50682 29.7576 2.02155C30.7084 0.887489 29.0829 -0.756062 28.1237 0.38767Z" fill="#22A7D6"/>
</svg>
