<svg width="36" height="36" viewBox="0 0 36 36" fill="none" xmlns="http://www.w3.org/2000/svg">
<g clip-path="url(#clip0_613_362)">
<path d="M30.5284 2.18567H5.7284C3.77174 2.18567 2.18555 3.77186 2.18555 5.72853V30.5285C2.18555 32.4852 3.77174 34.0714 5.7284 34.0714H30.5284C32.4851 34.0714 34.0713 32.4852 34.0713 30.5285V5.72853C34.0713 3.77186 32.4851 2.18567 30.5284 2.18567Z" stroke="currentColor" stroke-width="2" stroke-linecap="round" stroke-linejoin="round"/>
<path d="M27.6779 19.8079L20.0851 14.8625C19.6168 14.5606 19.0714 14.4 18.5142 14.4C17.957 14.4 17.4116 14.5606 16.9433 14.8625L9.35059 19.8079C9.01562 20.0075 8.7369 20.289 8.54062 20.6259C8.34434 20.9627 8.23694 21.344 8.22852 21.7338V34.9715H16.6441V29.7643H20.3844V34.9715H28.7999V21.7338C28.7915 21.344 28.6841 20.9627 28.4878 20.6259C28.2916 20.289 28.0128 20.0075 27.6779 19.8079ZM26.9298 33.1017H22.2545V27.8945H14.774V33.1017H10.0986V21.7338C10.1055 21.6575 10.1313 21.5842 10.1738 21.5205C10.2162 21.4568 10.274 21.4048 10.3418 21.3692L17.9345 16.4237C18.1009 16.3231 18.2917 16.2699 18.4862 16.2699C18.6807 16.2699 18.8715 16.3231 19.0379 16.4237L26.6306 21.3692C26.6984 21.4048 26.7561 21.4568 26.7986 21.5205C26.8411 21.5842 26.8669 21.6575 26.8737 21.7338L26.9298 33.1017Z" fill="currentColor"/>
</g>
<defs>
<clipPath id="clip0_613_362">
<rect width="36" height="36" fill="white"/>
</clipPath>
</defs>
</svg>
