<svg width="82" height="82" viewBox="0 0 82 82" fill="none" xmlns="http://www.w3.org/2000/svg">
<g clip-path="url(#clip0_702_644)">
<path d="M74.0544 40.6692C72.9581 40.6692 72.0689 41.5584 72.0689 42.6547V78.0291H50.7625V55.8233C50.7625 54.7269 49.8733 53.8377 48.7769 53.8377H33.2234C32.127 53.8377 31.2378 54.7269 31.2378 55.8233V73.4309C31.2378 74.5273 32.127 75.4165 33.2234 75.4165C34.3197 75.4165 35.2089 74.5273 35.2089 73.4309V57.8088H46.7914V78.0291H9.93108V29.4289L40.9998 4.53031L72.8125 30.0249C73.6682 30.7109 74.9178 30.5726 75.6035 29.7171C76.2892 28.8614 76.1515 27.6121 75.2957 26.9261L42.2414 0.436083C41.5161 -0.145686 40.4836 -0.145686 39.7582 0.436083L6.70388 26.9261C6.23364 27.303 5.95996 27.8725 5.95996 28.4755V80.0144C5.95996 81.1107 6.84883 81.9999 7.94552 81.9999H74.0544C75.1511 81.9999 76.04 81.1107 76.04 80.0144V42.6547C76.04 41.558 75.1511 40.6692 74.0544 40.6692Z" fill="#B2D551"/>
</g>
<defs>
<clipPath id="clip0_702_644">
<rect width="82" height="82" fill="white"/>
</clipPath>
</defs>
</svg>
