<svg width="85" height="85" viewBox="0 0 85 85" fill="none" xmlns="http://www.w3.org/2000/svg">
<path d="M16.0957 37.3179L42.5591 18.3002L68.6259 37.3179" stroke="#2C3B00" stroke-width="2.28375" stroke-miterlimit="10" stroke-linecap="round" stroke-linejoin="round"/>
<path d="M42.027 60.5182C42.1394 60.5806 42.2656 60.6146 42.3944 60.6173H42.397H42.3994L42.4145 60.6132C42.5345 60.609 42.652 60.5779 42.758 60.5221C42.7723 60.5155 42.79 60.5178 42.8043 60.5104C45.0698 59.2169 46.951 57.3572 48.2589 55.118C49.5668 52.8788 50.2553 50.339 50.2553 47.7537C50.2553 45.1684 49.5668 42.6286 48.2589 40.3894C46.951 38.1502 45.0698 36.2905 42.8043 34.9971C42.6813 34.927 42.5419 34.8901 42.4 34.8901C42.2581 34.8901 42.1187 34.927 41.9958 34.9971C38.7665 36.8525 36.3581 39.836 35.2453 43.3593C35.1952 43.4457 35.1622 43.5407 35.1481 43.6394C34.7457 44.9746 34.5386 46.3598 34.5332 47.753C34.5382 50.3387 35.2301 52.8778 36.5397 55.1164C37.8493 57.355 39.7308 59.2148 41.9959 60.5097C42.0059 60.5155 42.0177 60.5132 42.027 60.5182ZM43.2036 58.3156V53.5806L48.5186 49.4812C48.2766 51.2304 47.6814 52.9137 46.7684 54.4313C45.8554 55.9489 44.6432 57.2698 43.2036 58.3156ZM42.4001 36.6199C44.2499 37.7728 45.7843 39.3576 46.868 41.2347C47.9516 43.1118 48.5513 45.2235 48.6141 47.3836L43.2034 51.5575V43.2875C43.2034 43.0757 43.1183 42.8725 42.9666 42.7227C42.815 42.5729 42.6094 42.4887 42.3949 42.4887C42.1805 42.4887 41.9749 42.5729 41.8232 42.7227C41.6716 42.8725 41.5864 43.0757 41.5864 43.2875V47.0911L36.9048 43.4805C37.8904 40.641 39.8296 38.2201 42.4001 36.6199ZM36.1502 47.753C36.1583 46.8774 36.2562 46.0048 36.4422 45.1486L41.5871 49.1157V58.3092C39.9085 57.0924 38.5421 55.5034 37.5978 53.6701C36.6536 51.8367 36.1578 49.8101 36.1502 47.753Z" fill="#2C3B00" stroke="#2C3B00" stroke-width="0.32625"/>
<path d="M25.7773 29.9962V18.3002H31.7125V25.2278" stroke="#2C3B00" stroke-width="1.9575" stroke-miterlimit="10" stroke-linecap="round" stroke-linejoin="round"/>
<path d="M64.9263 34.717V62.6878C64.9263 65.147 62.9336 67.1391 60.475 67.1391H23.9767C21.5175 67.1391 19.5254 65.1464 19.5254 62.6878L19.5254 34.89" stroke="#2C3B00" stroke-width="2.28375" stroke-miterlimit="10" stroke-linecap="round" stroke-linejoin="round"/>
</svg>
