<svg width="42" height="42" viewBox="0 0 42 42" fill="none" xmlns="http://www.w3.org/2000/svg">
<path d="M39.8246 14.1534C38.5028 12.3333 36.669 10.9344 34.5212 10.1076C32.3734 9.28093 30.075 9.08931 27.8739 9.55336C25.5041 10.053 23.3586 11.3051 21.6693 13.1744L21 13.915L20.3306 13.1743C18.6414 11.3051 16.4958 10.053 14.126 9.55328C11.9251 9.08931 9.62645 9.28093 7.47871 10.1076C5.33097 10.9343 3.49707 12.3333 2.1753 14.1534C0.752227 16.1131 0 18.4807 0 21.0001C0 23.5195 0.752227 25.887 2.1753 27.8467C3.49707 29.6668 5.33097 31.0657 7.47871 31.8924C9.62645 32.7192 11.9251 32.9108 14.126 32.4468C16.4958 31.9471 18.6414 30.695 20.3306 28.8258L20.9999 28.0852L21.6692 28.8258C23.3586 30.695 25.504 31.9471 27.8738 32.4468C28.6571 32.6119 29.4525 32.694 30.2494 32.694C31.6915 32.694 33.1378 32.425 34.5211 31.8925C36.6689 31.0658 38.5028 29.6668 39.8245 27.8467C41.2478 25.8871 42 23.5195 42 21C42 18.4805 41.2478 16.1131 39.8246 14.1534ZM33.6372 29.5958C30.7838 30.694 26.6214 30.6349 23.4951 27.1757L15.4973 17.6155L15.4618 17.5745C14.4541 16.4594 13.1733 15.87 11.7579 15.87C10.6075 15.87 9.36961 16.2971 8.44676 17.0125C7.58715 17.6787 6.5625 18.9114 6.5625 21.0001C6.5625 23.0888 7.58715 24.3214 8.44676 24.9877C9.36969 25.703 10.6075 26.1301 11.7579 26.1301C13.1732 26.1301 14.4541 25.5407 15.4618 24.4256L16.6984 22.9306L19.3943 26.1914L18.5048 27.1757C15.3783 30.635 11.2158 30.694 8.36268 29.5958C5.50963 28.4976 2.46094 25.6627 2.46094 21C2.46094 16.3373 5.50963 13.5025 8.36276 12.4043C11.2158 11.306 15.3784 11.3649 18.5049 14.8244L26.5027 24.3847L26.5381 24.4257C27.5458 25.5408 28.8266 26.1301 30.2421 26.1301C31.3925 26.1301 32.6303 25.7031 33.5532 24.9878C34.4128 24.3215 35.4374 23.0888 35.4374 21.0002C35.4374 18.9115 34.4128 17.6788 33.5532 17.0125C32.6303 16.2971 31.3925 15.8701 30.2421 15.8701C28.8266 15.8701 27.5458 16.4595 26.5381 17.5745L25.3037 19.0668L22.6131 15.8005L23.4952 14.8244C26.6214 11.3653 30.784 11.3061 33.6373 12.4044C36.4904 13.5026 39.5391 16.3374 39.5391 21.0001C39.5391 25.6627 36.4904 28.4976 33.6372 29.5958ZM15.1024 21.0001L13.6192 22.7942C13.08 23.3829 12.4709 23.6692 11.7579 23.6692C10.9974 23.6692 9.02344 23.1897 9.02344 21.0002C9.02344 18.8106 10.9974 18.331 11.7579 18.331C12.4708 18.331 13.0799 18.6173 13.6192 19.206L15.1024 21.0001ZM26.8975 21.0001L28.3808 19.2059C28.92 18.6172 29.529 18.3309 30.242 18.3309C31.0025 18.3309 32.9764 18.8105 32.9764 21.0001C32.9764 23.1897 31.0025 23.6691 30.242 23.6691C29.529 23.6691 28.92 23.3829 28.3808 22.7942L26.8975 21.0001Z" fill="#22A7D6"/>
</svg>
