<svg width="48" height="48" viewBox="0 0 48 48" fill="none" xmlns="http://www.w3.org/2000/svg">
<path d="M8.4 48L39.6 48C44.2392 48 48 44.2392 48 39.6L48 8.4C48 3.76081 44.2392 0 39.6 0L8.4 0C3.76081 0 0 3.76081 0 8.4L0 39.6C0 44.2392 3.76081 48 8.4 48Z" fill="url(#paint0_radial_477_130)"/>
<path d="M33 42H15C12.6131 42 10.3239 41.0518 8.63604 39.364C6.94821 37.6761 6 35.3869 6 33V15C6 12.6131 6.94821 10.3239 8.63604 8.63604C10.3239 6.94821 12.6131 6 15 6H33C35.3869 6 37.6761 6.94821 39.364 8.63604C41.0518 10.3239 42 12.6131 42 15V33C42 35.3869 41.0518 37.6761 39.364 39.364C37.6761 41.0518 35.3869 42 33 42ZM15 9.6C13.5684 9.60198 12.1961 10.1715 11.1838 11.1838C10.1715 12.1961 9.60198 13.5684 9.6 15V33C9.60198 34.4316 10.1715 35.8039 11.1838 36.8162C12.1961 37.8285 13.5684 38.398 15 38.4H33C34.4316 38.398 35.8039 37.8285 36.8162 36.8162C37.8285 35.8039 38.398 34.4316 38.4 33V15C38.398 13.5684 37.8285 12.1961 36.8162 11.1838C35.8039 10.1715 34.4316 9.60198 33 9.6H15Z" fill="white"/>
<path d="M23.9998 34.1998C21.9824 34.1998 20.0104 33.6016 18.333 32.4808C16.6556 31.36 15.3483 29.767 14.5762 27.9032C13.8042 26.0394 13.6022 23.9885 13.9958 22.0099C14.3894 20.0313 15.3608 18.2138 16.7873 16.7873C18.2138 15.3608 20.0313 14.3894 22.0099 13.9958C23.9885 13.6022 26.0394 13.8042 27.9032 14.5762C29.767 15.3483 31.36 16.6556 32.4808 18.333C33.6016 20.0104 34.1998 21.9824 34.1998 23.9998C34.1978 26.7044 33.1225 29.2977 31.2101 31.2101C29.2977 33.1225 26.7044 34.1978 23.9998 34.1998ZM23.9998 17.3998C22.6945 17.3998 21.4184 17.7869 20.333 18.5121C19.2477 19.2373 18.4017 20.2681 17.9022 21.4741C17.4027 22.6801 17.272 24.0071 17.5266 25.2874C17.7813 26.5677 18.4099 27.7437 19.3329 28.6667C20.2559 29.5897 21.4319 30.2183 22.7122 30.473C23.9925 30.7277 25.3195 30.597 26.5255 30.0974C27.7315 29.5979 28.7623 28.7519 29.4875 27.6666C30.2127 26.5812 30.5998 25.3052 30.5998 23.9998C30.5978 22.25 29.9018 20.5724 28.6645 19.3351C27.4272 18.0978 25.7496 17.4018 23.9998 17.3998Z" fill="white"/>
<path d="M34.2004 16.2006C35.1945 16.2006 36.0004 15.3947 36.0004 14.4006C36.0004 13.4065 35.1945 12.6006 34.2004 12.6006C33.2063 12.6006 32.4004 13.4065 32.4004 14.4006C32.4004 15.3947 33.2063 16.2006 34.2004 16.2006Z" fill="white"/>
<defs>
<radialGradient id="paint0_radial_477_130" cx="0" cy="0" r="1" gradientUnits="userSpaceOnUse" gradientTransform="translate(-0.965622 47.025) rotate(180) scale(110.846)">
<stop stop-color="#F9ED32"/>
<stop offset="0.36" stop-color="#EE2A7B"/>
<stop offset="0.44" stop-color="#D22A8A"/>
<stop offset="0.6" stop-color="#8B2AB2"/>
<stop offset="0.83" stop-color="#1B2AF0"/>
<stop offset="0.88" stop-color="#002AFF"/>
</radialGradient>
</defs>
</svg>
