<svg width="24" height="24" viewBox="0 0 24 24" fill="none" xmlns="http://www.w3.org/2000/svg">
<path d="M19.7143 0H4.28569C1.91993 0.0028125 0.0028125 1.91993 0 4.28569V19.7143C0.0028125 22.08 1.91993 23.9971 4.28569 23.9999H19.7143C22.08 23.9971 23.9971 22.08 23.9999 19.7143V4.28569C23.9971 1.91993 22.08 0.0028125 19.7143 0ZM11.1429 22.2857H4.28569C2.86553 22.2857 1.71427 21.1344 1.71427 19.7143V4.28569C1.71427 2.86553 2.86553 1.71427 4.28569 1.71427H11.1428V22.2857H11.1429ZM22.2857 19.7143C22.2857 21.1344 21.1344 22.2857 19.7143 22.2857H12.8571V12.8571H22.2857V19.7143ZM22.2857 11.1429H12.8571V1.71427H19.7143C21.1344 1.71427 22.2857 2.86553 22.2857 4.28569V11.1429Z" fill="currentColor"/>
</svg>
