<svg width="69" height="69" viewBox="0 0 69 69" fill="none" xmlns="http://www.w3.org/2000/svg">
<path d="M50.625 34.7687C50.625 32.6187 48.9453 31.4766 46.5938 31.4766H39.8078C40.2781 29.6625 40.5469 27.9156 40.5469 26.4375C40.5469 20.5922 38.9344 19.3828 37.5234 19.3828C36.5828 19.3828 35.9109 19.45 34.9703 20.0547C34.7016 20.1891 34.5672 20.4578 34.5 20.7266L33.4922 26.1688C32.4172 29.0578 29.6625 31.5438 27.4453 33.2234V47.6016C28.1844 47.6016 29.125 48.0047 29.9984 48.475C31.0734 49.0125 32.2156 49.55 33.4922 49.55H43.1C45.1156 49.55 46.5938 47.9375 46.5938 46.5266C46.5938 46.2578 46.5937 45.9891 46.5266 45.7875C47.8031 45.3172 48.6094 44.2422 48.6094 43.0328C48.6094 42.4281 48.475 41.8906 48.2734 41.4875C49.0125 40.95 49.8187 40.0766 49.8187 39.0016C49.8187 38.4641 49.55 37.7922 49.1469 37.3219C50.0203 36.65 50.625 35.7094 50.625 34.7687ZM48.5422 34.7687C48.5422 36.0453 47.1984 36.1797 46.9969 36.7844C46.7953 37.4562 47.8031 37.725 47.8031 38.9344C47.8031 40.2109 46.2578 40.2109 46.0563 40.8156C45.7875 41.5547 46.5266 41.8234 46.5266 43.0328C46.5266 43.1 46.5266 43.1672 46.5266 43.2344C46.325 44.2422 44.7797 44.3094 44.5109 44.7125C44.2422 45.1828 44.5781 45.4516 44.5781 46.5266C44.5781 47.1312 43.9062 47.5344 43.1 47.5344H33.4922C32.7531 47.5344 31.8125 47.1313 30.9391 46.6609C30.1328 46.2578 29.3266 45.8547 28.4531 45.6531V34.9703C30.9391 33.0891 34.1641 30.2 35.4406 26.7062C35.4406 26.6391 35.4406 26.5719 35.5078 26.5719L36.4484 21.5328C36.7844 21.3984 37.0531 21.3984 37.5906 21.3984C37.7922 21.3984 38.5984 22.6078 38.5984 26.4375C38.5984 27.9156 38.3297 29.5953 37.7922 31.4766H37.5234C36.9859 31.4766 36.5156 31.9469 36.5156 32.4844C36.5156 33.0219 36.9859 33.4922 37.5234 33.4922H46.5938C47.6016 33.4922 48.5422 33.9625 48.5422 34.7687Z" fill="#B2D551"/>
<path d="M26.4375 49.6172H20.3906C19.2484 49.6172 18.375 48.7438 18.375 47.6016V33.4922C18.375 32.35 19.2484 31.4766 20.3906 31.4766H26.4375C27.5797 31.4766 28.4531 32.35 28.4531 33.4922V47.6016C28.4531 48.7438 27.5797 49.6172 26.4375 49.6172ZM20.3906 33.4922V47.6016H26.4375V33.4922H20.3906Z" fill="#B2D551"/>
</svg>
