<svg xmlns="http://www.w3.org/2000/svg" viewBox="0 0 714.97 454.26"><defs><style>.cls-1{fill:#1d1e1e;}.cls-2{fill:#94ce0e;}.cls-3{fill:#fdfdfd;}</style></defs><g id="Слой_2" data-name="Слой 2"><g id="Слой_1-2" data-name="Слой 1"><path class="cls-1" d="M715,392.29c-1.92,2.44-1.58,5.56-2.42,8.32-7,22.95-22.21,36.9-45.81,41.31-3.28.61-8.41,2.27-9.22-2.73-.76-4.66,4.54-4.07,7.43-4.55,21.11-3.48,34.9-15.35,41.19-35.71,3.18-10.28,2.18-20.94,2.31-32.88-7,8.51-14.57,13.69-24.24,15.56a37.23,37.23,0,0,1-44.15-32.1c-1.7-13.78-.69-27.62-.89-41.43-.15-10.66,0-21.32,0-32,0-2.76-.65-6.43,3.37-6.57,4.19-.13,3.52,3.6,3.53,6.33,0,20.32,0,40.64.07,61,0,3.49.44,7,.57,10.47.63,17.62,16.79,29,31.33,28.37,16.82-.76,29-12.87,29.87-30.7,1.13-22,.34-44,.53-65.94,0-1.34,0-2.67,0-4,.13-5.57,1.26-6.38,6.53-4.68Z"/><path class="cls-1" d="M201.83,454.26c1.7-4,.56-8.11.75-12.16.21-4.64,0-9.3,0-14,0-3.32.05-3.34,3.4-2,1,.4,1.42-.42,2.1-.73,5.8-2.71,11-1.73,14.25,2.64a11.84,11.84,0,0,1-.76,14.72c-3.53,3.86-8.65,4.34-14.05,1.32l-1.75-1v11.12Zm4-19.57c0,5.28,2.74,8.46,7.38,8.47a7.88,7.88,0,0,0,7.88-7.92c.15-4.83-3.14-8.38-7.81-8.39C209.78,426.84,204.77,429.48,205.81,434.69Z"/><path class="cls-1" d="M440.43,454.26q.09-13,.2-26c0-2.59-.54-6.21,3.68-2.38.95.86,1.42-.25,2.08-.53,6.12-2.63,11.07-1.68,14.25,2.75a12.25,12.25,0,0,1-.6,14.39c-3.59,4.15-8.64,4.66-14.42,1.46a11.31,11.31,0,0,0-1.34-.44,43.07,43.07,0,0,0,.14,10.71Zm3.64-19.19c0,5.15,2.59,8,7.24,8.08a8,8,0,0,0,8.07-8.27,7.84,7.84,0,0,0-7.74-8C446.83,426.76,444.05,429.78,444.07,435.07Z"/><path class="cls-1" d="M495.34,454.26c0-9,.07-17.95.07-26.93,0-2.77.53-4.56,3.26-1.72,1.16,1.2,1.64.13,2.42-.2,6.19-2.62,11.09-1.7,14.25,2.68a12.11,12.11,0,0,1-.49,14.36q-5.24,6.15-14.4,1.64a7.47,7.47,0,0,0-1.33-.25c-.57,3.51-1,7,.21,10.42Zm3.32-19.41c0,5.18,2.94,8.39,7.66,8.3a8.16,8.16,0,0,0,7.86-8.06,8,8,0,0,0-8.1-8.23C501.46,426.92,498.68,429.92,498.66,434.85Z"/><path class="cls-2" d="M332.64,192.35c1.94,12,6,23.46,9.47,35A883.26,883.26,0,0,0,402.66,378c.66,1.28,1.77,2.45,1.49,4.08a1.54,1.54,0,0,1-.48.19c-9.58.63-9.55.62-13.23-8.19q-36.3-86.77-63.67-176.78c-.46-1.52-1-3-1.74-5.37-19.25,20-46.62,23.79-68.75,37.44-.86.54-2.24.34-3.55-.5,3.34-3.91,6.9-7.6,9.9-11.69,7.94-10.84,5.64-18.63-6.8-23.8A34.15,34.15,0,0,0,239.24,191c-6.87.65-13.78,1.19-20.73-.81,3-.84,6.18-1.44,9.12-2.56,6-2.29,7.51-6.83,2.65-10.47-7.4-5.56-11.64-12.94-16.12-20.62s-12.2-12-21-15.79c7,.34,13,.55,19.11.95a46.78,46.78,0,0,0,23.6-5c8-3.87,9.1-9.7,3.13-16.41-7.59-8.55-17.66-13.41-27.9-17.9-2.69-1.18-5.45-2.19-9.19-3.68,7.21-.57,13.44.45,19.55-1,10-2.34,11.95-7.43,5.89-15.67-3.37-4.59-7.8-8.12-12.72-12.34,2.48-.22,4.33-.3,6.16-.55,8-1.09,10-4.48,6.16-11.55-2.9-5.4-6.52-10.42-9.81-15.61l.87-.75c5.19,3.25,10.28,6.69,15.61,9.7,3.54,2,7.49,3.06,11.31.44,1.31-.9,2-.69,2.68.61a20.94,20.94,0,0,0,2.19,3.32c1.39,1.68,3,3.52,5.4,2.84s3.44-3,3.59-5.48,0-4.85,0-8.78c3.21,4.71,5.6,8.2,8,11.71,5.34,7.87,11.06,15.43,18.24,21.74,2.51,2.21,5.1,5.94,8.8,4.1,3.44-1.71,2.25-5.93,2-9.13-1-13-5.05-25.38-8.63-37.83a30.69,30.69,0,0,1-1.3-5.72c3.07,3.15,5.16,7,8.38,9.85,5.5,4.92,9.55,3.82,11.65-3.3s1.16-14.49.56-22c1.91.58,2.15,2.25,3.06,3.31,1.82,2.14,3.45,4.94,6.68,4.46s4.39-3.4,5.34-6.07c1.17-3.28,2.05-6.66,3-10,.41-1.42.73-2.87,1.26-5,2.7,5.13,5,9.72,7.49,14.18,4.49,8,7.13,8.44,14.36,2.82.73-.57,1.27-1.61,2.83-1.29.31,6.3-.87,12.76.85,19,1,3.82,1.45,8.79,6.1,9.32,4.46.5,5.82-4.26,7.56-7.57,1.14-2.18,1.89-4.56,3.13-6.81.15,6.63-1.19,13.11-2.2,19.63-2.09,13.65-4.32,27.31-2.65,41.19.82,6.79,3.42,7.91,8.7,3.49,12.41-10.4,24.33-21.28,30.69-36.79,1.12-2.73,2.64-5.29,4.44-8.87.4,3.44.59,5.95,1,8.41,1.18,6.88,3.9,8.3,9.95,4.66,5.38-3.24,10.42-7.06,15.8-10.75,1.17,2.78.69,6.17,3.68,7.83,3.25,1.8,6.49.66,9.69-.13,2.9-.71,5.75-1.61,8.62-2.42.19.21.39.41.59.6-3.15,5.83-6.37,11.63-9.43,17.5a30.92,30.92,0,0,0-2.33,6c-1.84,6.82.75,10.52,7.8,11.37,6.14.74,12.28,0,19.49-.06-1.72,1.06-2.67,1.68-3.65,2.24-12.65,7.26-24.13,16-33.19,27.54-3.43,4.38-7.81,9.23-5,15.25s9.38,5.4,14.92,5.84,10.94-.59,16.38-1.24c1.9-.22,3.67-.35,3.6,1.94-.32,10.49,6.7,12,14.74,12.47a7.43,7.43,0,0,1,1.77.71c-2.69,2.16-5.8,1.75-8.43,2.69-.78.28-1.64.35-2.39.68-3.09,1.39-7.54,1.49-8.31,5.44s4.27,3.85,6.39,6.64c-3.3,1.08-6.39,2-9.45,3.11a29.85,29.85,0,0,0-4.57,2c-3.17,1.76-7.06,3.21-7.31,7.46s3.37,6.25,6.49,8.11,6.69,3.47,11.35,5.84c-12.73.43-24.07.89-35.41,1.16-6,.15-12,.26-17.87,1.45-6.94,1.4-8.05,4.6-3.4,9.89,6,6.8,13.55,11.73,20.87,16.92,2.27,1.61,4.55,3.2,6.9,4.85-1.37,1.69-2.33.42-3.21.11A77.76,77.76,0,0,0,415,227.81c-3.37-.34-7.28-.61-9.54,1.74-3.35,3.49-5.89,1.83-9,.27-9-4.54-17.84-9.8-28.49-9.51-2,.05-2.77-1.69-3.73-2.95-8-10.54-18.85-17.71-29.84-24.65a5,5,0,0,0-1.82-.3l-.32-.54c0,.12-.07.3,0,.33A1.46,1.46,0,0,0,332.64,192.35Z"/><path class="cls-1" d="M66.65,327.33H24.74c-2.52,0-5.52.28-5.5-3.31s3.08-3.34,5.57-3.34c26.1,0,52.21-.18,78.31.13,5.13.06,5.31-1.85,4.58-5.74-4.76-25.15-28.36-43.52-53.29-41.39C27.33,276,7.24,296.94,6.81,323.47c-.34,20.15,8.81,35.34,25.69,45.44,16.47,9.84,33.57,9,50.28-.11,2.91-1.57,5.54-3.66,8.3-5.51,1.75-1.17,3.67-2.1,5.28,0s.13,3.74-1.33,5.17A30,30,0,0,1,92,371c-19,14.12-45.18,15.28-64.62,2.88a58.38,58.38,0,0,1-26-62.21c4.83-22.43,24.22-40.43,47.46-44.05,31.4-4.9,61.42,17.41,65.84,48.94a33.73,33.73,0,0,1,.26,3.48c.25,6.49-.51,7.33-6.88,7.34Z"/><path class="cls-1" d="M334.94,325c-.31,33.11-25.45,57.68-58.67,57.35-31.5-.32-56.69-26.38-56.41-58.35.28-32.16,26.21-57.2,58.85-56.81A56.87,56.87,0,0,1,334.94,325Zm-57.35,50.68a51,51,0,0,0-.27-102.07c-28.48,0-50.75,22.49-50.72,51.13A50.63,50.63,0,0,0,277.59,375.64Z"/><path class="cls-1" d="M478.79,375.72c14.21-.3,25.86-4.8,35.79-13.73,1-.89,1.92-1.84,2.94-2.7,1.42-1.2,3-1.6,4.42-.1a3.29,3.29,0,0,1,.27,4.54,19.7,19.7,0,0,1-2.64,3c-17,16.11-43.92,20.3-64.44,10.06-22.49-11.22-34.39-33.86-31.74-60.39,2.18-21.79,19.7-42.15,42-47.46,19.73-4.7,38-1.39,53.31,12.95,1.09,1,2.07,2.17,3.09,3.26,1.29,1.39,1.68,2.75.17,4.33a3,3,0,0,1-4.43.38c-3.35-2.45-6.49-5.21-9.95-7.49-17.54-11.55-38.72-11.69-55.36-.48-17.89,12-26,32.31-21.63,54,3.82,19,20.18,35.12,39.67,38.94A82.49,82.49,0,0,0,478.79,375.72Z"/><path class="cls-1" d="M173.61,267.14c16-.17,29.08,4.56,39.76,15.23,1.79,1.78,6,3.55,2.7,7.12-3,3.18-5.09-.37-7-1.95-8.83-7.12-18.41-12.27-29.91-13.68C152,270.52,125.29,292.78,124,320.14s14.79,49.6,40.26,54.57c16.47,3.21,31.27-1.17,44-12.16,1.14-1,2.13-2.11,3.28-3.06,1.34-1.1,2.85-1.94,4.47-.56s1.52,3.26.45,4.94a15.84,15.84,0,0,1-2.65,3c-17.06,15.93-43.63,20.12-64,10.12-21.32-10.44-34.79-34.19-32.47-57.22,2.5-24.9,18.73-44.48,42-50.79A52.08,52.08,0,0,1,173.61,267.14Z"/><path class="cls-1" d="M578.14,327c0-15.49-.12-31,.09-46.47,0-3.57-1-4.68-4.42-4.3a73.19,73.19,0,0,1-8,.05c-2.29,0-4-.92-4-3.38s1.57-3.51,3.94-3.5a60.64,60.64,0,0,1,8,.06c4,.54,4.81-1.16,4.49-4.71-.3-3.31,0-6.66-.07-10,0-2.37,1-4,3.34-4.12s3.48,1.68,3.53,3.94c.08,3.66.23,7.34,0,11-.21,3,.64,4,3.8,3.9,11.64-.21,23.29-.08,34.94-.08,2.7,0,5.81-.3,5.68,3.66-.12,3.63-3.1,3.23-5.59,3.23-11.31,0-22.63.17-33.94-.09-3.82-.08-5,.83-4.92,4.84.18,30.14.1,60.29.1,90.44,0,1.17,0,2.33,0,3.5,0,2.53-.49,4.84-3.73,4.67-2.92-.16-3.18-2.32-3.18-4.67Q578.17,350.95,578.14,327Z"/><path class="cls-1" d="M551.23,324.84q0,24.2,0,48.39a22,22,0,0,1-.17,4,2.94,2.94,0,0,1-3.27,2.43,2.68,2.68,0,0,1-2.9-2.22,25.33,25.33,0,0,1-.35-4.44q0-48.15,0-96.3c0-2.78-1.12-7,3.22-7.1s3.41,4.06,3.42,6.86C551.27,292.57,551.23,308.7,551.23,324.84Z"/><path class="cls-1" d="M41.35,428.31c0,3-.05,6,0,9,.06,2.42-1.12,5.57,3.45,5.36,1.31-.06,2,8.65.67,9.5a2.12,2.12,0,0,1-1.44.12c-1.41-.29-1.16-1.53-1-2.38.73-4.1-1.42-4.58-4.79-4.43-5.47.24-11,.22-16.44,0-3.19-.12-5.16.39-4.59,4.2.15,1,.58,2.51-1.28,2.64-2.19.15-1.76-1.52-1.73-2.75,0-3.2-.34-5.83,3.38-8.46s4-8.5,4.44-13.34a94.6,94.6,0,0,0,.31-10c0-2.18.75-2.93,2.88-2.88,4.48.1,9,.15,13.45,0,2.32-.08,2.79.9,2.72,2.94C41.26,421.32,41.35,424.81,41.35,428.31ZM21.16,442.46H32.82a20.67,20.67,0,0,1,2.49,0c2.18.28,2.88-.62,2.81-2.79-.14-4.48,0-9,0-13.46,0-8.44,0-8.25-8.22-8.39-3.36-.05-4.11,1.09-4.16,4.2C25.58,428.84,24.83,435.6,21.16,442.46Z"/><path class="cls-1" d="M569,433.75c0,2,0,4,0,6,0,.93-.41,2.41.8,2.58,5.36.75,2.36,4.84,3,7.42a1.56,1.56,0,0,1-1.51,2.09,1.53,1.53,0,0,1-1.67-1.94c.76-4.73-2.25-4.53-5.43-4.4-3,.13-6,.16-9,0-3.28-.18-6.08-.13-5.22,4.46a1.51,1.51,0,0,1-1.23,1.86c-.67.15-1.52,0-1.65-.7-.45-2.61-1.38-6.7.21-7.61,5.87-3.34,5.38-8.94,5.48-13.88s1.75-6,6-5.34a2.78,2.78,0,0,0,.5,0C569,424.28,569,424.28,569,433.75Zm-3.35,1.49c0-8.7,0-8.59-7-8.05-2,.15-2.5.84-2.46,2.66a28.91,28.91,0,0,1-1.74,10.24c-.3.84-1,2.26.51,2.35,3.29.2,6.81.68,9.83-.27,2-.62.59-3.88.9-5.93A8.34,8.34,0,0,0,565.67,435.24Z"/><path class="cls-1" d="M548,263.72a10.25,10.25,0,0,1-10.56-10.28,10.38,10.38,0,0,1,20.75.2A10.1,10.1,0,0,1,548,263.72Zm-.22-6.38c2.49.1,3.51-1.15,3.53-3.58s-1-3.74-3.42-3.77-3.61,1.21-3.59,3.62S545.34,257.34,547.82,257.34Z"/><path class="cls-1" d="M250.2,429.83c-3.95,2.56-5.18,7.88-8.55,7.57-2.76-.25-5.18-4.2-7.76-6.52-.8,3.4,0,7.47-.33,11.46-.08,1.19.67,3-1.42,3.1-2.51.14-1.75-1.92-1.77-3.23q-.1-7.48,0-15c0-1-.64-2.48,1-2.9a2.89,2.89,0,0,1,3.06,1.15c1.7,2,3.57,3.95,5.14,6.09,1.67,2.29,2.89,2.06,4.48-.09s3.48-4,5.16-6.07a2.88,2.88,0,0,1,3.08-1.06c1.68.38,1.09,1.84,1.11,2.88.06,5.15,0,10.3,0,15.46,0,1.31.28,2.86-1.8,2.75-1.75-.09-1.46-1.48-1.46-2.6C250.19,438.75,250.2,434.65,250.2,429.83Z"/><path class="cls-1" d="M190.52,433.6c.25-5.78-2.32-7.46-8.68-6.6-1.47.2-3.86,2.81-4.42.16s2.71-2.73,4.72-3c8.53-1.26,11.93,1.82,12.21,10.36.1,3.14-1.81,7.17,2.9,9,.61.24.46,1.21-.14,1.65-1,.75-2.6.94-3.27.18-2.33-2.64-4.3-1.34-6.61-.06a8.39,8.39,0,0,1-5.82.77c-3.7-.81-6.57-2.57-6.53-6.88.05-4.48,2.89-6.41,6.94-6.94A15.51,15.51,0,0,1,190.52,433.6Zm-6.28,9.61c2.65-.89,6.72-.93,6.56-5-.15-3.73-4.08-3.27-6.61-3.41-2.81-.16-6.13.5-6,4.28C178.29,442.36,181.17,443,184.24,443.21Z"/><path class="cls-1" d="M119.91,434.46c0-11.12,0-11.12,11.28-10.15,5.1.44,7.28,3.34,5.54,8.07-.63,1.69-.48,2.26.59,3.63,3.25,4.17,1.21,8.62-4,9.37-.49.07-1,.08-1.49.11C119.91,446.19,119.91,446.19,119.91,434.46Zm8.5,1.67c-.49,0-1,0-1.47,0-2.23-.12-4.06-.27-4,3.12,0,3,1.22,3.67,3.79,3.39,1.14-.12,2.3,0,3.44,0,2.32-.07,5.07,0,5.16-3.13s-2.53-3.34-4.94-3.35Zm-.67-2.79c2.41-.43,6.11,1,6.16-3.06s-3.65-2.91-6.06-3c-2.14,0-5-1.28-4.91,3.15S125.93,432.77,127.74,433.34Z"/><path class="cls-1" d="M472.82,439.34c3.56-4.33,7.14-8.64,10.68-13,1-1.19,1.89-2.54,3.64-2,2.09.66,1,2.54,1.06,3.83.14,4.66.11,9.33,0,14,0,1.28.88,3.38-1.71,3.25S485,443.27,485,442c-.11-3.6,0-7.21-1.08-11.28-3.42,4.1-6.85,8.18-10.25,12.3-1.06,1.27-1.91,3-3.93,2.44-2.49-.67-1.15-2.8-1.2-4.2-.19-4.65-.12-9.32,0-14,0-1.13-.73-2.87,1.51-3s1.7,1.59,1.72,2.8c.05,4,0,7.95,0,11.93Z"/><path class="cls-1" d="M357.83,429.36c-4.37,5.31-7.75,9.41-11.14,13.51-1.14,1.39-2.16,3.41-4.34,2.47-1.72-.74-.73-2.67-.76-4-.13-4.66-.1-9.33,0-14,0-1.13-.75-2.91,1.46-3s1.6,1.7,1.62,2.85c.08,4,0,7.91,0,13.48,4.4-5.33,7.88-9.57,11.39-13.79,1-1.23,1.81-3.09,3.87-2.48,2.38.7,1.16,2.81,1.21,4.24.16,4.66.07,9.33.06,14,0,1.28.37,2.88-1.73,2.84s-1.63-1.68-1.64-2.92C357.81,438.6,357.83,434.67,357.83,429.36Z"/><path class="cls-1" d="M317.72,440.67c4.47-5.43,8-9.7,11.49-14,1.05-1.28,2-3,4-2.3s1,2.57,1,3.89c.12,4.65.08,9.29,0,13.94,0,1.34.67,3.33-1.8,3.23s-1.55-2.12-1.59-3.4c-.1-3.76,0-7.52,0-12.6-4.33,5.24-7.85,9.49-11.36,13.77-1.05,1.28-2.07,3-4,2.15s-.82-2.62-.86-3.95c-.12-4.81-.06-9.63,0-14.44,0-1.24-.37-2.86,1.81-2.66,1.83.16,1.32,1.61,1.33,2.63C317.76,431,317.72,435.1,317.72,440.67Z"/><path class="cls-1" d="M609.21,439.5c3.54-4.31,7.1-8.6,10.61-12.94,1.06-1.3,2.06-2.92,4-2.11s.89,2.63.92,4c.11,4.81,0,9.63,0,14.44,0,1.43,0,2.75-2,2.61-1.73-.13-1.48-1.45-1.48-2.59V429.45c-4.38,5.31-7.92,9.59-11.45,13.88-.94,1.15-1.78,2.58-3.58,2.14-2.29-.54-1.13-2.46-1.17-3.71-.15-4.47-.17-9,0-13.43.06-1.37-1.25-3.8,1.42-3.94,2.85-.15,1.57,2.37,1.64,3.71.18,3.62.06,7.24.06,10.86Z"/><path class="cls-1" d="M533.22,423.87c6.67,0,11.35,4.7,11.29,11.28a11,11,0,0,1-11.15,11A11.22,11.22,0,0,1,521.71,435C521.66,428.68,526.63,423.85,533.22,423.87Zm.13,19.28a8,8,0,0,0,7.88-8.48,7.84,7.84,0,0,0-8.48-7.79c-4.53.21-7.59,3.51-7.56,8.15A7.84,7.84,0,0,0,533.35,443.15Z"/><path class="cls-1" d="M588,423.87c6.56.06,11.32,4.8,11.26,11.24a11.05,11.05,0,0,1-11.52,11.05,11.3,11.3,0,0,1-11.38-11.31A11.19,11.19,0,0,1,588,423.87Zm-.27,19.29A8.21,8.21,0,0,0,596,435a8,8,0,0,0-7.72-8.11,7.72,7.72,0,0,0-8.43,7.8A8,8,0,0,0,587.68,443.16Z"/><path class="cls-1" d="M60.73,423.86c6.58,0,11.37,4.71,11.36,11.14a11,11,0,0,1-11.41,11.16,11.16,11.16,0,1,1,0-22.3ZM68.84,435a8,8,0,0,0-8.2-8.16,7.72,7.72,0,0,0-7.94,7.82,8,8,0,0,0,7.85,8.49A8.21,8.21,0,0,0,68.84,435Z"/><path class="cls-1" d="M270.82,423.88c6.64.08,11.31,4.85,11.17,11.41a11,11,0,0,1-11.3,10.86,11.16,11.16,0,0,1-11.49-11.24C259.24,428.48,264.18,423.79,270.82,423.88Zm7.87,11a7.83,7.83,0,0,0-8.24-8,7.68,7.68,0,0,0-7.8,7.92,7.87,7.87,0,0,0,7.94,8.36A8,8,0,0,0,278.69,434.9Z"/><path class="cls-1" d="M97.91,428.86a83.75,83.75,0,0,0-5.56,6.52c-2.18,3.19-3.92,2.65-5.92-.14-1.35-1.87-3-3.54-4.88-5.74-1,4.7-.23,9.07-.52,13.37-.07,1,.56,2.49-1.34,2.62-2.24.15-1.72-1.53-1.73-2.74,0-5.14-.06-10.29,0-15.43,0-1-.7-2.45.94-2.93A2.79,2.79,0,0,1,82,425.45c.74.88,1.51,1.76,2.27,2.63,5.15,5.92,5.15,5.92,10.48-.16.77-.87,1.54-1.73,2.28-2.63a2.74,2.74,0,0,1,3.14-.86c1.33.41.8,1.64.8,2.52q.09,8,0,15.93c0,1,.55,2.49-1.34,2.61-2.25.14-1.71-1.55-1.72-2.75C97.88,438.59,97.91,434.44,97.91,428.86Z"/><path class="cls-1" d="M307.19,435.32c0,2.67,0,5.33,0,8,0,1.39-.37,2.3-1.94,2.17-1.35-.12-1.3-1.1-1.45-2.15-1-7.14-1-6.82-7.88-7.22-4.39-.27-5.44,1.33-5,5.29.14,1.31,1.27,3.88-1.37,4-3.2.12-1.64-2.7-1.7-4.14-.21-4.82-.09-9.65-.07-14.47,0-1.1-.28-2.41,1.55-2.47s1.65,1.21,1.67,2.36a25.4,25.4,0,0,1,0,3.49c-.24,2.31.53,3.42,3,3.13a14.34,14.34,0,0,1,4,0c4.6.77,6.84-.64,5.95-5.69-.21-1.2-.81-3.38,1.71-3.23s1.45,2.2,1.52,3.48C307.3,430.33,307.2,432.83,307.19,435.32Z"/><path class="cls-1" d="M433.46,434.91c0,2.82,0,5.64,0,8.46,0,1,.06,2-1.38,2.11-1.69.12-1.82-1-1.82-2.22,0-4.31-.12-8.63.05-12.94.09-2.4-.73-3-3.09-3.13-9.66-.41-9.65-.5-9.65,8.92,0,2.49,0,5,0,7.46,0,1.09-.18,1.95-1.59,1.93s-1.54-.93-1.54-2c0-5.64,0-11.29,0-16.93,0-1.67.49-2.43,2.26-2.33,2,.11,4,0,6,0C433.46,424.28,433.46,424.28,433.46,434.91Z"/><path class="cls-1" d="M378.49,434.87A11.37,11.37,0,0,1,394,424.4c1.24.45,2.81,1,2.21,2.68s-2,.28-2.88.12c-4.44-.79-8.38-.28-10.63,4.16a7.58,7.58,0,0,0,1.07,8.83c2.53,2.89,5.8,3.5,9.5,2.56,1-.25,2.48-2,3.15,0s-1.28,2.28-2.69,2.75C385.84,448.06,378.45,442.9,378.49,434.87Z"/><path class="cls-1" d="M156.65,434.81c0-10.54,0-10.54,10.51-10.53,1,0,2,0,3,0s2.53-.21,2.38,1.64c-.11,1.43-1.26,1.25-2.22,1.31-.5,0-1,0-1.5,0-9,.2-9,.21-9,9.06,0,2.5,0,5,0,7.49,0,1-.31,1.58-1.34,1.67-1.23.11-1.87-.4-1.86-1.68C156.66,440.8,156.65,437.81,156.65,434.81Z"/><path class="cls-1" d="M614.82,420.88c-3.08-.34-5.65-1.25-6.67-4.39-.23-.71-.67-1.67.37-2.13a1.59,1.59,0,0,1,2.14.64c2.8,4.69,5.62,4.47,8.38,0a1.56,1.56,0,0,1,2.1-.65c1.48.58.52,1.62.23,2.42C620.22,419.88,617.57,420.6,614.82,420.88Z"/><path class="cls-2" d="M455.94,56c.41-.35.84-.58,1.22,0,0,0-.41.4-.63.61C456.33,56.36,456.13,56.16,455.94,56Z"/><path class="cls-2" d="M217.17,42c-.37-.48-.76-1-.31-1.58l-.07.09,1.25.74Z"/><path class="cls-2" d="M216.86,40.37l-.68-.16c.53-.7.43.09.61.25Z"/><path class="cls-3" d="M332.64,192.35a1.46,1.46,0,0,1-.43-.15s0-.21,0-.33l.32.54Z"/></g></g></svg>