<svg width="42" height="42" viewBox="0 0 42 42" fill="none" xmlns="http://www.w3.org/2000/svg">
<g clip-path="url(#clip0_335_262)">
<path d="M20.2644 13.6789C19.8114 13.6789 19.4441 14.0462 19.4441 14.4992C19.4441 14.5922 19.3684 14.6679 19.2754 14.6679C18.8224 14.6679 18.4551 15.0352 18.4551 15.4882C18.4551 15.9412 18.8224 16.3085 19.2754 16.3085C20.273 16.3085 21.0847 15.4968 21.0847 14.4992C21.0847 14.0462 20.7174 13.6789 20.2644 13.6789Z" fill="#22A7D6"/>
<path d="M36.6344 32.1447C36.2157 31.9705 35.7359 32.1689 35.562 32.5871C33.6289 37.2361 27.9705 40.3595 21.4819 40.3595C21.0854 40.3595 20.6904 40.3462 20.297 40.3227L20.8844 36.579C21.083 36.5877 21.282 36.5935 21.4819 36.5935C24.1546 36.5935 26.6765 35.8152 28.5831 34.4018C30.5634 32.9338 31.654 30.9589 31.654 28.8409C31.654 28.388 31.2866 28.0206 30.8337 28.0206C30.3807 28.0206 30.0134 28.388 30.0134 28.8409C30.0134 31.0217 28.4106 32.939 26.005 34.0209C25.7052 31.4056 23.6484 29.2776 20.9853 28.9457C20.7375 28.9149 20.5073 28.804 20.3367 28.6335C20.0715 28.3682 19.9633 28.0055 20.0401 27.6381C20.1169 27.2708 20.3613 26.9816 20.7107 26.8448L22.2195 26.2538C24.2584 25.4551 25.9064 23.9721 26.8597 22.0778C27.307 21.1894 27.5873 20.2559 27.698 19.293C31.4036 20.5946 34.2949 23.0413 35.5385 25.9764C35.6709 26.2891 35.9746 26.477 36.2942 26.477C36.4009 26.477 36.5094 26.456 36.6138 26.4118C37.0309 26.235 37.2258 25.7536 37.0491 25.3365C36.2789 23.5189 34.9582 21.8311 33.2294 20.4554C32.3311 19.7406 31.3193 19.1093 30.229 18.576C31.4244 16.6475 31.8896 14.2686 31.5421 11.7742C31.15 8.9594 29.7463 6.22157 27.5898 4.0651C25.2741 1.74948 22.3375 0.322904 19.3207 0.0482692C16.2482 -0.231452 13.4588 0.711233 11.4672 2.70283C8.6987 5.47133 8.0117 9.76526 9.59758 13.8883C6.52746 14.2545 4.13867 16.8726 4.13867 20.0398C4.13867 22.2943 5.34927 24.2709 7.15416 25.3552C7.03801 27.0565 7.17771 28.6854 7.57046 30.212C6.5478 30.8288 5.86236 31.9504 5.86236 33.2292C5.86236 35.1707 7.44184 36.7501 9.38332 36.7501C10.0286 36.7501 10.6335 36.5748 11.154 36.2706C12.1081 37.143 13.196 37.8526 14.3995 38.3872C14.4334 38.779 14.5323 39.1689 14.6997 39.5431C15.1699 40.5945 16.0855 41.332 17.2115 41.5661C18.5967 41.8541 20.0334 42.0001 21.4817 42.0001C24.9952 42.0001 28.3433 41.1543 31.1643 39.5544C33.9701 37.963 36.0145 35.7716 37.0767 33.2171C37.2508 32.7987 37.0527 32.3186 36.6344 32.1447ZM12.6273 3.86298C14.2685 2.22181 16.5927 1.44778 19.172 1.68205C21.8074 1.92199 24.3848 3.18024 26.4297 5.22508C30.1785 8.97375 31.1041 14.3265 28.7041 17.9144C28.3459 17.7779 27.9818 17.6513 27.6124 17.5359C27.2914 16.582 26.4507 15.8422 25.4501 15.6888C26.2475 13.5243 25.7801 10.9953 24.0449 9.25995L23.8217 9.03675C22.4535 7.66874 20.3166 7.36892 18.6248 8.30751C18.2224 8.53087 17.7664 8.64883 17.3062 8.64883H15.3578C15.103 8.64883 14.8627 8.7672 14.7074 8.96924C14.5521 9.17128 14.4995 9.43394 14.5651 9.68011C14.9905 11.278 14.5278 12.9965 13.3574 14.1647C13.3574 14.1647 13.0716 14.4519 13.0546 14.4725C12.5372 14.2188 11.9793 14.0361 11.3937 13.9349C9.71693 10.2271 10.1873 6.30295 12.6273 3.86298ZM16.3772 18.6665C17.3908 19.3345 18.5615 19.6686 19.7321 19.6686C20.596 19.6686 21.4596 19.4859 22.2604 19.1221C21.8044 20.6822 20.008 22.0548 17.5809 22.6068C17.0068 22.7373 16.3793 22.8984 15.7329 23.079C16.241 22.1803 16.5325 21.1438 16.5325 20.0398C16.5324 19.5678 16.4777 19.1086 16.3772 18.6665ZM16.5796 16.7251L14.8362 14.9817C15.9537 13.6841 16.4904 11.9809 16.3339 10.2896H17.3061C18.0442 10.2896 18.7754 10.1003 19.4208 9.74221C20.4757 9.15668 21.8083 9.34387 22.6615 10.197L22.8847 10.4202C23.7268 11.2622 24.1905 12.3818 24.1905 13.5727C24.1905 14.7636 23.7268 15.8831 22.8847 16.7251C21.1465 18.4634 18.318 18.4634 16.5796 16.7251ZM5.77926 20.0398C5.77926 17.5274 7.8232 15.4835 10.3355 15.4835C12.8182 15.4835 14.8421 17.4797 14.8896 19.9511C14.7893 20.1419 14.5649 20.2426 14.3506 20.1798C13.9158 20.053 13.4603 20.3021 13.333 20.737C13.2059 21.1718 13.4554 21.6273 13.8902 21.7545C14.0858 21.8116 14.2851 21.84 14.4833 21.84C14.4958 21.84 14.5084 21.839 14.5209 21.8389C13.8219 23.459 12.2092 24.5961 10.3356 24.5961C7.8232 24.5961 5.77926 22.5521 5.77926 20.0398ZM9.3834 35.1096C8.34655 35.1096 7.50304 34.266 7.50304 33.2292C7.50304 32.1922 8.34655 31.3487 9.3834 31.3487C10.4203 31.3487 11.2638 32.1922 11.2638 33.2292C11.2638 34.266 10.4202 35.1096 9.3834 35.1096ZM14.8681 36.3094C14.7937 36.4378 14.7283 36.5692 14.6711 36.7027C13.8192 36.2824 13.0397 35.7576 12.3425 35.1337C12.6974 34.5842 12.9044 33.9306 12.9044 33.2292C12.9044 31.2877 11.3249 29.7081 9.3834 29.7081C9.30047 29.7081 9.21844 29.7121 9.13682 29.7177C8.84676 28.5553 8.72159 27.3217 8.76211 26.0336C9.26479 26.1657 9.79199 26.2366 10.3355 26.2366C11.1313 26.2366 11.8916 26.0842 12.5913 25.8098C14.2671 25.1925 16.3403 24.5712 17.9446 24.2065C19.6085 23.8282 21.12 23.0753 22.2005 22.0868C23.3878 21.0008 24.0153 19.7077 24.0153 18.3477C24.0153 18.0648 24.1263 17.7995 24.3278 17.6009C24.5292 17.4024 24.7924 17.2968 25.0794 17.2994C25.6329 17.3075 26.1152 17.8164 26.1117 18.3885C26.1055 19.4137 25.8641 20.4067 25.3942 21.34C24.6229 22.8726 23.2828 24.0751 21.6209 24.726L20.1121 25.317C19.2507 25.6545 18.6233 26.3967 18.4341 27.3024C18.2447 28.208 18.5224 29.1393 19.1765 29.7933C19.6039 30.2207 20.1742 30.4978 20.7824 30.5735C22.8147 30.8267 24.3539 32.5422 24.4011 34.584C23.49 34.8224 22.5067 34.9527 21.4818 34.9527C20.5551 34.9527 19.6437 34.846 18.7728 34.6356C17.2565 34.2692 15.6507 34.9574 14.8681 36.3094ZM18.6625 40.1554C18.2868 40.1007 17.914 40.0363 17.5456 39.9598C16.9414 39.8342 16.4502 39.4383 16.1974 38.8733C15.9431 38.3048 15.9762 37.6699 16.2879 37.1314C16.7091 36.4039 17.5723 36.0337 18.3875 36.2305C18.6718 36.2992 18.96 36.3571 19.2509 36.4064L18.6625 40.1554Z" fill="#22A7D6"/>
<path d="M12.5913 25.8099C12.5795 25.8142 12.6032 25.8061 12.5913 25.8099V25.8099Z" fill="#22A7D6"/>
<path d="M37.041 28.4895C36.588 28.4895 36.2207 28.8568 36.2207 29.3098C36.2207 29.7628 36.588 30.1301 37.041 30.1301H37.0454C37.4983 30.1301 37.8635 29.7628 37.8635 29.3098C37.8635 28.8568 37.494 28.4895 37.041 28.4895Z" fill="#22A7D6"/>
</g>
<defs>
<clipPath id="clip0_335_262">
<rect width="42" height="42" fill="white"/>
</clipPath>
</defs>
</svg>
