<svg width="69" height="69" viewBox="0 0 69 69" fill="none" xmlns="http://www.w3.org/2000/svg">
<path d="M53.3333 15H48.6666H44.2H36.6666H24.1333H19.6666H14.6666C14.2666 15 14 15.2666 14 15.6666V20.6666V28.2V35.7333V43.3333V50.8666V54.3333C14 54.7333 14.2666 54.9999 14.6666 54.9999H18.7333H25.0666H32.6666H35.6666H43.2666H49.5999H53.3332C53.7332 54.9999 53.9998 54.7333 53.9998 54.3333V50.5333V43.0001C53.9998 43 53.9998 43 53.9998 42.9999V35.4666V35.4665V27.9333C53.9998 27.9236 53.999 27.9148 53.9987 27.9055C53.9993 27.8926 53.9998 27.8796 53.9998 27.8667V20.3334V15.6666C54 15.2666 53.7333 15 53.3333 15ZM48.1333 44.4L47.0794 43.3461C47.0462 43.27 46.9977 43.1977 46.9333 43.1334L43.6333 39.8333L46.4332 37.0334L52.6666 43.2667V48.9334L48.1333 44.4ZM32.9333 53.6667L31.3666 52.1L42.6666 40.8L45.4707 43.604L42.3412 46.7895C42.2669 46.8227 42.1963 46.8702 42.1333 46.9332L35.4 53.6667H32.9333ZM19.9334 16.4H23.8667L33.2 25.7333L30.538 28.3953L30.4115 28.5217L22.4 20.4666C22.3355 20.4022 22.2633 20.3538 22.1872 20.3205L19.0666 17.2L19.9334 16.4ZM48.4 16.3333L52.6667 20.6666V26.2666L43.6 17.2L44.4666 16.3333H48.4ZM52.6667 41.4L52.6661 41.3994L47.0317 35.7235C47.0043 35.6802 46.972 35.6386 46.9334 35.6L43.6334 32.2999L46.4334 29.5L52.6667 35.7333V41.4H52.6667ZM19.0848 24.7514L21.8977 21.9643L33.2 33.2666L30.4 36.0666L22.4 28.0666L19.0848 24.7514ZM21.8977 29.4977L33.2 40.8L30.4 43.5999L22.4 35.6L19.0848 32.2847L21.8977 29.4977ZM31.3374 44.5374L34.6666 41.2666L42.6666 33.2666L45.4333 36.0333L34.1333 47.3333L31.3374 44.5374ZM34.1333 39.8L31.3666 37.0333L34.6667 33.7333L42.6666 25.7333L45.4333 28.5L34.1333 39.8ZM34.1347 32.2652L31.3423 29.4576L42.6333 18.1667L45.4332 20.9666L34.1347 32.2652ZM15.3333 36.0667L18.1333 33.2667L20.9333 36.0667L15.3333 41.6667V36.0667H15.3333ZM19.0666 39.8666L21.8666 37.0667L33.1666 48.3667L30.3999 51.1333L22.4 43.1333C22.3355 43.0689 22.2633 43.0204 22.1872 42.9871L19.0666 39.8666ZM15.3333 20.9334L18.1333 18.1334L20.9666 20.9667L17.6667 24.2667C17.6667 24.2667 17.6667 24.2667 17.6666 24.2667L15.3333 26.6001V20.9334H15.3333ZM15.3333 28.4685L18.147 25.6807L20.9333 28.5334L17.6666 31.8001L15.3333 34.1334V28.4685H15.3333ZM15.3333 43.6L18.1333 40.8667L20.9333 43.6666L17.6666 46.9333L15.3333 49.2666V43.6H15.3333ZM47.0316 28.1902C47.0042 28.1468 46.9719 28.1052 46.9333 28.0666L43.6333 24.7666L46.4332 21.9666L52.6666 28.2V33.8666L47.0316 28.1902ZM52.6667 16.3333V18.7333L50.2667 16.3333H52.6667V16.3333ZM34.1333 24.7333L31.3333 21.9333L36.9333 16.3333H42.5999L34.1333 24.7333ZM34.9999 16.3333L30.3667 20.9666L25.7334 16.3333H34.9999V16.3333ZM15.3333 16.3333H18.0667L17.6667 16.7333L15.3333 19.0667V16.3333ZM15.3333 51.1352L18.1472 48.3471L20.9667 51.1666L18.4667 53.6667H15.3333V51.1352ZM20.4 53.6667L21.9333 52.1333L23.4667 53.6667H20.4ZM25.4 53.6667L19.1516 47.3518L21.9429 44.5862L29.9333 52.5333L31.0666 53.6667H25.4ZM42.6666 48.3333L45.5 51.1666L43 53.6666H37.3334L42.6666 48.3333ZM44.8666 53.6667L46.4333 52.1L48 53.6667H44.8666ZM52.6667 53.6667H49.9333L46.9334 50.6667C46.869 50.6023 46.7968 50.5538 46.7206 50.5206L43.6001 47.4L46.4334 44.5667L52.6667 50.8001V53.6667H52.6667Z" fill="#22A7D6"/>
</svg>
