<svg width="48" height="48" viewBox="0 0 48 48" fill="none" xmlns="http://www.w3.org/2000/svg">
<path d="M40.9706 7.02938C36.4375 2.49647 30.4106 0 24 0C17.5894 0 11.5625 2.49647 7.02938 7.02938C2.49647 11.5625 0 17.5894 0 24C0 30.4106 2.49647 36.4375 7.02938 40.9706C11.5625 45.5035 17.5894 48 24 48C28.3887 48 32.6828 46.8039 36.4183 44.5413C37.304 44.0047 37.5871 42.8517 37.0506 41.9661C36.5139 41.0802 35.3611 40.7973 34.4753 41.3338C31.326 43.2416 27.7036 44.25 24 44.25C12.8341 44.25 3.75 35.1659 3.75 24C3.75 12.8341 12.8341 3.75 24 3.75C35.1659 3.75 44.25 12.8341 44.25 24C44.25 27.9927 43.0627 31.8791 40.8163 35.2391C40.2408 36.0999 40.4721 37.2644 41.3329 37.8399C42.1939 38.4157 43.3582 38.1842 43.9337 37.3234C46.5939 33.3444 48 28.7372 48 24C48 17.5894 45.5035 11.5625 40.9706 7.02938Z" fill="url(#paint0_linear_286_268)"/>
<path d="M18.2157 35.0244C18.4992 35.1777 18.8045 35.2503 19.1056 35.2503C19.7721 35.2503 20.4176 34.894 20.7567 34.2666L30.8918 15.5166C31.3843 14.6056 31.045 13.4679 30.134 12.9756C29.2229 12.4832 28.0852 12.8225 27.593 13.7334L17.4579 32.4834C16.9654 33.3944 17.3047 34.532 18.2157 35.0244Z" fill="url(#paint1_linear_286_268)"/>
<path d="M20.9062 17.4375C20.9062 14.8528 18.8034 12.75 16.2188 12.75C13.6341 12.75 11.5312 14.8528 11.5312 17.4375C11.5312 20.0222 13.6341 22.125 16.2188 22.125C18.8034 22.125 20.9062 20.0222 20.9062 17.4375ZM16.2188 18.375C15.7018 18.375 15.2812 17.9544 15.2812 17.4375C15.2812 16.9206 15.7018 16.5 16.2188 16.5C16.7357 16.5 17.1562 16.9206 17.1562 17.4375C17.1562 17.9544 16.7357 18.375 16.2188 18.375Z" fill="url(#paint2_linear_286_268)"/>
<path d="M31.6875 35.25C34.2722 35.25 36.375 33.1472 36.375 30.5625C36.375 27.9778 34.2722 25.875 31.6875 25.875C29.1028 25.875 27 27.9778 27 30.5625C27 33.1472 29.1028 35.25 31.6875 35.25ZM31.6875 29.625C32.2044 29.625 32.625 30.0456 32.625 30.5625C32.625 31.0794 32.2044 31.5 31.6875 31.5C31.1706 31.5 30.75 31.0794 30.75 30.5625C30.75 30.0456 31.1706 29.625 31.6875 29.625Z" fill="url(#paint3_linear_286_268)"/>
<defs>
<linearGradient id="paint0_linear_286_268" x1="-3.13333" y1="-2.112" x2="58.0943" y2="5.34167" gradientUnits="userSpaceOnUse">
<stop stop-color="#C4EF4C"/>
<stop offset="1" stop-color="#B2D551"/>
</linearGradient>
<linearGradient id="paint1_linear_286_268" x1="16.3255" y1="11.7597" x2="34.1995" y2="13.1025" gradientUnits="userSpaceOnUse">
<stop stop-color="#C4EF4C"/>
<stop offset="1" stop-color="#B2D551"/>
</linearGradient>
<linearGradient id="paint2_linear_286_268" x1="10.9193" y1="12.3375" x2="22.8778" y2="13.7933" gradientUnits="userSpaceOnUse">
<stop stop-color="#C4EF4C"/>
<stop offset="1" stop-color="#B2D551"/>
</linearGradient>
<linearGradient id="paint3_linear_286_268" x1="26.388" y1="25.4625" x2="38.3465" y2="26.9183" gradientUnits="userSpaceOnUse">
<stop stop-color="#C4EF4C"/>
<stop offset="1" stop-color="#B2D551"/>
</linearGradient>
</defs>
</svg>
