<svg width="24" height="24" viewBox="0 0 24 24" fill="none" xmlns="http://www.w3.org/2000/svg">
<path d="M5.67962 3.32087L6.29289 2.7076C6.68342 2.31707 7.31658 2.31707 7.70711 2.70759L10.2929 5.29338C10.6834 5.68391 10.6834 6.31707 10.2929 6.7076L8.50048 8.50001C8.2016 8.79889 8.1275 9.25549 8.31653 9.63355C9.40929 11.8191 11.1814 13.5912 13.3669 14.684C13.745 14.873 14.2016 14.7989 14.5005 14.5L16.2929 12.7076C16.6834 12.3171 17.3166 12.3171 17.7071 12.7076L20.2929 15.2934C20.6834 15.6839 20.6834 16.3171 20.2929 16.7076L19.6796 17.3209C17.5683 19.4322 14.2257 19.6698 11.837 17.8782L10.6286 16.9719C8.88504 15.6643 7.33622 14.1154 6.02857 12.3719L5.12226 11.1635C3.33072 8.77478 3.56827 5.43222 5.67962 3.32087Z" fill="#B2D551"/>
</svg>
