<svg width="24" height="24" viewBox="0 0 24 24" fill="none" xmlns="http://www.w3.org/2000/svg">
<path d="M5.67962 3.32038L6.29289 2.70711C6.68342 2.31658 7.31658 2.31658 7.70711 2.70711L10.2929 5.29289C10.6834 5.68342 10.6834 6.31658 10.2929 6.70711L8.50048 8.49952C8.2016 8.7984 8.1275 9.255 8.31653 9.63307C9.40929 11.8186 11.1814 13.5907 13.3669 14.6835C13.745 14.8725 14.2016 14.7984 14.5005 14.4995L16.2929 12.7071C16.6834 12.3166 17.3166 12.3166 17.7071 12.7071L20.2929 15.2929C20.6834 15.6834 20.6834 16.3166 20.2929 16.7071L19.6796 17.3204C17.5683 19.4317 14.2257 19.6693 11.837 17.8777L10.6286 16.9714C8.88504 15.6638 7.33622 14.115 6.02857 12.3714L5.12226 11.163C3.33072 8.7743 3.56827 5.43173 5.67962 3.32038Z" fill="#B2D551"/>
</svg>
