<svg width="24" height="24" viewBox="0 0 24 24" fill="none" xmlns="http://www.w3.org/2000/svg">
<path fill-rule="evenodd" clip-rule="evenodd" d="M12.398 18.804C13.881 18.0348 19 15.0163 19 10C19 6.13401 15.866 3 12 3C8.13401 3 5 6.13401 5 10C5 15.0163 10.119 18.0348 11.602 18.804C11.8548 18.9351 12.1452 18.9351 12.398 18.804ZM12 13C13.6569 13 15 11.6569 15 10C15 8.34315 13.6569 7 12 7C10.3431 7 9 8.34315 9 10C9 11.6569 10.3431 13 12 13Z" fill="#B2D551"/>
<path d="M18.0622 17.5C18.6766 17.9561 19 18.4734 19 19C19 19.5266 18.6766 20.0439 18.0622 20.5C17.4478 20.9561 16.5641 21.3348 15.5 21.5981C14.4359 21.8614 13.2288 22 12 22C10.7712 22 9.56414 21.8614 8.5 21.5981C7.43587 21.3348 6.5522 20.9561 5.93782 20.5C5.32344 20.0439 5 19.5266 5 19C5 18.4734 5.32344 17.9561 5.93782 17.5" stroke="#B2D551" stroke-width="2" stroke-linecap="round"/>
</svg>
