<svg width="111" height="95" viewBox="0 0 111 95" fill="none" xmlns="http://www.w3.org/2000/svg">
<rect opacity="0.85" y="5" width="111" height="86" rx="25" fill="#B2D551"/>
<g clip-path="url(#clip0_286_558)">
<path d="M69.1225 43.231L48.1347 31.7474C46.928 31.0871 45.5016 31.1118 44.3187 31.8126C43.1351 32.5142 42.4292 33.7536 42.4292 35.1293V57.8994C42.4292 59.2685 43.1308 60.5057 44.3064 61.2081C44.9203 61.5748 45.6009 61.7589 46.2829 61.7589C46.9077 61.7589 47.5339 61.6045 48.1101 61.2943L69.0986 50.0086C70.3445 49.3381 71.1222 48.0429 71.128 46.6274C71.133 45.2119 70.3648 43.9109 69.1225 43.231ZM47.9963 55.035V38.0169L63.6822 46.5999L47.9963 55.035Z" fill="white"/>
<path d="M101.301 28.4865L101.297 28.443C101.216 27.6784 100.415 20.8769 97.1087 17.4175C93.2869 13.3485 88.9541 12.8542 86.8704 12.6172C86.6979 12.5976 86.5399 12.5795 86.3985 12.5607L86.2326 12.5433C73.6734 11.63 54.7064 11.5054 54.5165 11.5046L54.4998 11.5039L54.4831 11.5046C54.2932 11.5054 35.3262 11.63 22.654 12.5433L22.4866 12.5607C22.3518 12.5788 22.2032 12.5954 22.0416 12.6143C19.9817 12.852 15.6953 13.3471 11.8626 17.5632C8.7134 20.9856 7.80307 27.6414 7.70957 28.3894L7.6987 28.4865C7.67043 28.8047 7 36.3795 7 43.984V51.0928C7 58.6973 7.67043 66.2721 7.6987 66.591L7.70377 66.6389C7.78422 67.3912 8.58439 74.068 11.8757 77.5289C15.4692 81.4616 20.0129 81.982 22.4569 82.2618C22.8432 82.306 23.1759 82.3437 23.4027 82.3835L23.6223 82.414C30.8738 83.104 53.6098 83.4439 54.5737 83.4577L54.6027 83.4584L54.6317 83.4577C54.8216 83.457 73.7879 83.3323 86.3471 82.4191L86.513 82.4017C86.6718 82.3806 86.8501 82.3618 87.0458 82.3415C89.094 82.1241 93.3572 81.6725 97.137 77.5137C100.286 74.0905 101.197 67.4347 101.29 66.6874L101.301 66.5903C101.329 66.2714 102 58.6973 102 51.0928V43.984C102 36.3795 101.329 28.8054 101.301 28.4865ZM96.4325 51.0928C96.4325 58.1313 95.8179 65.3799 95.7599 66.0453C95.5236 67.8783 94.5633 72.0893 93.0289 73.7571C90.6632 76.3598 88.233 76.6178 86.4587 76.8055C86.2441 76.828 86.0456 76.8497 85.8658 76.8722C73.7183 77.7507 55.4674 77.8855 54.6267 77.8905C53.6837 77.8768 31.2805 77.534 24.25 76.8809C23.8898 76.8222 23.5006 76.7773 23.0903 76.7309C21.0095 76.4924 18.161 76.1663 15.9707 73.7571L15.9193 73.702C14.4117 72.1313 13.4789 68.1936 13.2419 66.067C13.1977 65.564 12.5671 58.2298 12.5671 51.0928V43.984C12.5671 36.9535 13.1803 29.7129 13.2397 29.0337C13.5217 26.8746 14.5001 22.9187 15.9707 21.3198C18.4089 18.638 20.9797 18.3409 22.6801 18.1445C22.8425 18.1256 22.9939 18.1082 23.1338 18.0901C35.4581 17.2073 53.8403 17.0761 54.4998 17.071C55.1594 17.0754 73.535 17.2073 85.7498 18.0901C85.8999 18.1089 86.0637 18.1278 86.2398 18.1481C87.9887 18.3474 90.632 18.6489 93.0579 21.2364L93.0804 21.2603C94.5879 22.831 95.5207 26.8376 95.7577 29.0069C95.7998 29.4817 96.4325 36.8318 96.4325 43.984V51.0928Z" fill="white"/>
</g>
<defs>
<clipPath id="clip0_286_558">
<rect width="95" height="95" fill="white" transform="translate(7)"/>
</clipPath>
</defs>
</svg>
