<svg width="40" height="40" viewBox="0 0 40 40" fill="none" xmlns="http://www.w3.org/2000/svg">
<path d="M29.0887 2.74178C26.5549 0.914222 23.3727 0 19.5429 0C16.6278 0 14.1696 0.644 12.1704 1.92889C9.00022 3.94267 7.31444 7.36089 7.11133 12.1831H14.4584C14.4584 10.7796 14.8682 9.42622 15.6878 8.12222C16.5082 6.81911 17.8989 6.16844 19.8607 6.16844C21.8553 6.16844 23.2296 6.69733 23.9811 7.75422C24.7336 8.81244 25.1096 9.98444 25.1096 11.2698C25.1096 12.3867 24.5487 13.4102 23.8736 14.3409C23.502 14.8831 23.0122 15.3818 22.4038 15.8382C22.4038 15.8382 18.4193 18.3938 16.6704 20.4462C15.6558 21.6378 15.5647 23.4204 15.4753 25.9791C15.4691 26.1609 15.5389 26.5369 16.1758 26.5369C16.8127 26.5369 21.3233 26.5369 21.89 26.5369C22.4567 26.5369 22.5749 26.1142 22.5829 25.9316C22.6229 24.9991 22.7278 24.524 22.8971 23.9862C23.2184 22.9702 24.0918 22.0827 25.0718 21.3209L27.0944 19.9249C28.9198 18.5031 30.3767 17.3356 31.0189 16.4213C32.1175 14.9164 32.8891 13.0636 32.8891 10.8636C32.8891 7.27689 31.6215 4.56933 29.0887 2.74178ZM19.4247 30.9409C16.8927 30.8653 14.8033 32.6169 14.7233 35.3636C14.6442 38.1093 16.6313 39.9227 19.1633 39.9973C21.8073 40.076 23.8402 38.3809 23.9193 35.6356C23.9984 32.8889 22.0687 31.0191 19.4247 30.9409Z" fill="#22A7D6"/>
</svg>
