<svg width="88" height="88" viewBox="0 0 88 88" fill="none" xmlns="http://www.w3.org/2000/svg">
<path d="M86.2471 5.40698H1.75295C0.784953 5.40698 0 6.19211 0 7.16011V63.1893C0 64.1573 0.784953 64.9422 1.75295 64.9422H33.1315V73.6527H25.4183C24.4503 73.6527 23.6653 74.4377 23.6653 75.4056V80.84C23.6653 81.808 24.4503 82.5929 25.4183 82.5929H62.5816C63.5496 82.5929 64.3345 81.808 64.3345 80.84V75.4056C64.3345 74.4377 63.5496 73.6527 62.5816 73.6527H54.8684V64.9422H86.2469C87.2149 64.9422 87.9998 64.1573 87.9998 63.1893V7.16011C88 6.19194 87.215 5.40698 86.2471 5.40698ZM60.8286 77.1586V79.0869H27.1714V77.1586H60.8286ZM36.6374 73.6527V64.9422H51.3624V73.6527H36.6374ZM84.4941 61.4362H3.50591V8.91306H84.4939V61.4362H84.4941Z" fill="#B2D551"/>
<path d="M63.1333 26.7604C63.1328 26.7592 63.1331 26.7584 63.1324 26.7572L63.1232 26.7395C63.1221 26.7376 63.1211 26.7357 63.1201 26.7335L57.0044 15.0693C56.7017 14.492 56.1038 14.1304 55.452 14.1304H32.7487C32.1054 14.1304 31.5136 14.4829 31.2072 15.0485L24.881 26.7314C24.7445 26.9808 24.667 27.2668 24.667 27.571V54.8953C24.667 55.8633 25.4519 56.6483 26.4199 56.6483H61.5799V56.6485C62.5479 56.6485 63.3328 55.8635 63.3328 54.8955V27.5712C63.333 27.2785 63.2603 27.0031 63.1333 26.7604ZM33.793 17.6364H54.3919L58.6816 25.8182H29.3628L33.793 17.6364ZM47.069 53.1426H40.9312V42.5845H47.069V53.1426ZM59.8271 53.1426H50.5751V40.8315C50.5751 39.8635 49.7901 39.0785 48.8221 39.0785H39.1782C38.2102 39.0785 37.4253 39.8635 37.4253 40.8315V53.1426H28.1732V29.3241H59.8273V53.1426H59.8271Z" fill="#B2D551"/>
</svg>
