<svg width="48" height="48" viewBox="0 0 48 48" fill="none" xmlns="http://www.w3.org/2000/svg">
<path d="M11.6876 30.2855C11.4021 30.363 11.1587 30.5498 11.01 30.8055C10.8613 31.0612 10.8192 31.3651 10.8929 31.6516C10.9304 31.7935 10.9955 31.9265 11.0845 32.0433C11.1735 32.16 11.2845 32.258 11.4114 32.3318C11.5382 32.4056 11.6784 32.4537 11.8238 32.4733C11.9693 32.4929 12.1171 32.4837 12.259 32.4462C12.4009 32.4087 12.534 32.3436 12.6507 32.2546C12.7674 32.1657 12.8655 32.0546 12.9392 31.9278C13.013 31.8009 13.0611 31.6608 13.0807 31.5153C13.1004 31.3699 13.0912 31.222 13.0536 31.0801C12.9761 30.7947 12.7893 30.5513 12.5336 30.4026C12.278 30.2538 11.974 30.2118 11.6876 30.2855Z" fill="#22A7D6"/>
<path d="M35.795 31.1783C35.5096 31.2559 35.2661 31.4427 35.1174 31.6983C34.9687 31.954 34.9266 32.258 35.0004 32.5444C35.0379 32.6863 35.103 32.8194 35.1919 32.9361C35.2809 33.0528 35.392 33.1509 35.5188 33.2246C35.6457 33.2984 35.7858 33.3465 35.9312 33.3661C36.0767 33.3858 36.2245 33.3766 36.3664 33.339C36.5083 33.3015 36.6414 33.2364 36.7581 33.1475C36.8748 33.0585 36.9729 32.9474 37.0467 32.8206C37.1205 32.6937 37.1685 32.5536 37.1882 32.4082C37.2078 32.2627 37.1986 32.1148 37.1611 31.973C37.0835 31.6875 36.8967 31.4441 36.6411 31.2954C36.3854 31.1467 36.0814 31.1046 35.795 31.1783Z" fill="#22A7D6"/>
<path d="M38.4727 33.857C38.1873 33.9346 37.9439 34.1214 37.7951 34.377C37.6464 34.6327 37.6044 34.9367 37.6781 35.2231C37.7156 35.365 37.7807 35.4981 37.8697 35.6148C37.9586 35.7315 38.0697 35.8296 38.1965 35.9034C38.3234 35.9771 38.4635 36.0252 38.609 36.0449C38.7544 36.0645 38.9023 36.0553 39.0442 36.0178C39.186 35.9802 39.3191 35.9151 39.4358 35.8262C39.5526 35.7372 39.6506 35.6261 39.7244 35.4993C39.7982 35.3724 39.8463 35.2323 39.8659 35.0869C39.8855 34.9414 39.8763 34.7936 39.8388 34.6517C39.7613 34.3662 39.5745 34.1228 39.3188 33.9741C39.0631 33.8254 38.7592 33.7833 38.4727 33.857Z" fill="#22A7D6"/>
<path d="M34.7419 35.366C33.7319 35.3668 32.7274 35.5141 31.7598 35.8035L33.8669 27.9731C34.0173 27.4143 33.9401 26.8187 33.6523 26.3167C33.3645 25.8146 32.8894 25.4471 32.3312 25.2946L30.6794 24.8571L30.858 24.1874C30.9031 24.0108 30.8931 23.8245 30.8293 23.6537C30.7654 23.4829 30.6508 23.3358 30.5009 23.2321L35.4116 4.89278C35.537 4.58686 35.5959 4.25776 35.5843 3.92734C35.5727 3.59691 35.491 3.27273 35.3445 2.97633C35.198 2.67993 34.9901 2.41809 34.7347 2.20821C34.4792 1.99833 34.182 1.84521 33.8628 1.75903C33.5436 1.67285 33.2097 1.65557 32.8834 1.70835C32.557 1.76113 32.2456 1.88276 31.9698 2.06516C31.694 2.24755 31.4602 2.48654 31.2839 2.76624C31.1076 3.04594 30.9929 3.35995 30.9473 3.68742L26.0366 22.0356C25.9045 22.046 25.7764 22.0857 25.6616 22.1517C25.4565 22.2679 25.3056 22.4605 25.2419 22.6874L25.0634 23.3571L23.358 22.9106C23.0813 22.835 22.7923 22.8147 22.5078 22.851C22.2232 22.8872 21.9486 22.9794 21.6997 23.1221C21.4508 23.2647 21.2326 23.4552 21.0575 23.6824C20.8824 23.9097 20.7539 24.1693 20.6794 24.4463L18.5098 32.5356C18.2817 33.4094 18.2271 34.3194 18.3491 35.2142L18.2241 35.2678C17.3032 34.385 16.0801 33.8868 14.8044 33.8749C13.5403 33.8827 12.3274 34.375 11.4154 35.2503C10.5035 36.1257 9.96205 37.3176 9.90264 38.5803C8.91998 38.9935 8.03168 39.6024 7.29183 40.3699C6.55198 41.1374 5.97604 42.0474 5.59907 43.0446C5.4574 43.4221 5.41019 43.8285 5.46155 44.2285C5.5129 44.6284 5.66126 45.0097 5.89371 45.3392C6.18644 45.7383 6.56978 46.0622 7.01219 46.2842C7.45459 46.5062 7.9434 46.6199 8.43835 46.616H41.7776C42.2591 46.6196 42.7352 46.5138 43.1698 46.3066C43.6045 46.0993 43.9863 45.796 44.2866 45.4196C44.5382 45.0948 44.7117 44.7166 44.7938 44.314C44.8758 43.9115 44.8642 43.4955 44.7598 43.0981C44.1781 40.884 42.8799 38.9247 41.0676 37.526C39.2554 36.1273 37.0312 35.3678 34.7419 35.366ZM25.9026 26.9731L26.6884 24.0535L28.9026 24.6428L28.7241 25.3035C28.2955 26.2946 28.3759 28.8124 26.7151 28.366C26.5699 28.3286 26.4335 28.2628 26.3139 28.1724C26.1942 28.082 26.0937 27.9687 26.0181 27.8392C25.9426 27.7096 25.8935 27.5664 25.8736 27.4177C25.8538 27.2691 25.8637 27.118 25.9026 26.9731ZM32.6259 4.20527C32.6373 4.1304 32.6642 4.05874 32.7049 3.99486C32.7456 3.93098 32.7991 3.87628 32.8621 3.83427C32.9252 3.79226 32.9963 3.76385 33.0709 3.75087C33.1455 3.73788 33.222 3.7406 33.2955 3.75885C33.3665 3.77642 33.4333 3.80813 33.4918 3.85208C33.5504 3.89604 33.5994 3.95133 33.6361 4.01467C33.6728 4.07801 33.6963 4.14809 33.7053 4.22072C33.7142 4.29336 33.7085 4.36706 33.6884 4.43742L28.7866 22.7321L27.7241 22.4463L32.6259 4.20527ZM20.2687 32.9999L22.4651 24.9106C22.4776 24.8611 22.4998 24.8146 22.5304 24.7738C22.5611 24.733 22.5996 24.6987 22.6436 24.6729C22.6877 24.6471 22.7365 24.6304 22.7871 24.6237C22.8377 24.617 22.8891 24.6204 22.9384 24.6339L24.5812 25.0803L24.2062 26.4731C24.0049 27.2238 24.1101 28.0237 24.4986 28.6968C24.887 29.3699 25.527 29.8611 26.2776 30.0624C27.0283 30.2637 27.8282 30.1585 28.5013 29.7701C29.1744 29.3816 29.6656 28.7416 29.8669 27.991L30.2419 26.5981L31.8937 27.0356C31.9424 27.0491 31.988 27.0719 32.0278 27.103C32.0677 27.1341 32.101 27.1727 32.1259 27.2166C32.1507 27.2606 32.1667 27.309 32.1728 27.3592C32.179 27.4093 32.1751 27.4602 32.1616 27.5088L30.0009 35.5981C28.1488 34.4741 26.0245 33.8782 23.858 33.8749C22.6008 33.8814 21.3529 34.0894 20.1616 34.491C20.121 33.9914 20.1571 33.4886 20.2687 32.9999ZM42.8669 44.3303C42.7349 44.4904 42.5683 44.6186 42.3796 44.7052C42.191 44.7918 41.9852 44.8346 41.7776 44.8303H8.43835C8.23107 44.8355 8.02544 44.7922 7.83786 44.7039C7.65028 44.6155 7.48596 44.4845 7.358 44.3214C7.28898 44.2274 7.24532 44.1173 7.23125 44.0015C7.21717 43.8858 7.23315 43.7684 7.27764 43.6606C7.59572 42.8058 8.10311 42.0341 8.76182 41.4032C9.42053 40.7723 10.2135 40.2987 11.0812 40.0178C11.2677 39.9572 11.429 39.837 11.5404 39.6756C11.6517 39.5143 11.7069 39.3207 11.6973 39.1249C11.6973 39.0356 11.6973 38.9553 11.6973 38.8928C11.6914 38.3079 11.8498 37.733 12.1544 37.2337C12.4591 36.7344 12.8978 36.3306 13.4206 36.0682C13.9434 35.8059 14.5294 35.6955 15.1118 35.7498C15.6942 35.804 16.2497 36.0206 16.7151 36.3749C16.1216 36.8592 15.6428 37.469 15.3134 38.1606C15.2175 38.3773 15.2115 38.6232 15.2969 38.8442C15.3823 39.0653 15.552 39.2433 15.7687 39.3392C15.9854 39.4351 16.2313 39.441 16.4523 39.3556C16.6733 39.2702 16.8514 39.1005 16.9473 38.8839C17.8401 36.9017 21.6259 35.741 23.8312 35.741C26.1043 35.7375 28.3101 36.5126 30.0812 37.9374C30.2128 38.0428 30.3715 38.1088 30.5389 38.1277C30.7064 38.1467 30.8759 38.1179 31.0276 38.0446C32.1813 37.4672 33.4519 37.1618 34.7419 37.1517C36.6317 37.1591 38.4661 37.7908 39.9597 38.9485C41.4534 40.1063 42.5225 41.7252 43.0009 43.5535C43.0395 43.6846 43.0475 43.8228 43.0243 43.9575C43.001 44.0921 42.9472 44.2197 42.8669 44.3303Z" fill="#22A7D6"/>
</svg>
