<svg width="26" height="24" viewBox="0 0 26 24" fill="none" xmlns="http://www.w3.org/2000/svg">
<path d="M21.504 1H4.504C3.57468 1 2.68343 1.39046 2.0263 2.08549C1.36917 2.78052 1 3.72318 1 4.70609V22.1535C1 22.3779 1.08429 22.5931 1.23431 22.7518C1.38434 22.9105 1.58783 22.9996 1.8 22.9996H5C5.18275 23.0053 5.36181 22.9445 5.50736 22.8275C5.65292 22.7105 5.7562 22.5443 5.8 22.3566L6.424 19.6151H19.576L20.2 22.3566C20.2438 22.5443 20.3471 22.7105 20.4926 22.8275C20.6382 22.9445 20.8173 23.0053 21 22.9996H24.2C24.4122 22.9996 24.6157 22.9105 24.7657 22.7518C24.9157 22.5931 25 22.3779 25 22.1535V4.70609C25 3.72464 24.6319 2.78326 23.9765 2.08848C23.3211 1.39369 22.4319 1.00224 21.504 1ZM5.8 17.9228H2.6V13.6921H23.4V17.9228H5.8ZM6.6 9.07218V8.15834C6.60204 8.05579 6.64147 7.95804 6.71004 7.88551C6.77862 7.81298 6.87104 7.77128 6.968 7.76912H10.232C10.329 7.77128 10.4214 7.81298 10.49 7.88551C10.5585 7.95804 10.598 8.05579 10.6 8.15834V9.07218C10.598 9.17473 10.5585 9.27248 10.49 9.34501C10.4214 9.41754 10.329 9.45924 10.232 9.4614H6.968C6.87104 9.45924 6.77862 9.41754 6.71004 9.34501C6.64147 9.27248 6.60204 9.17473 6.6 9.07218ZM5.248 11.1537H20.752C20.8178 11.1537 20.8809 11.1813 20.9274 11.2305C20.9739 11.2797 21 11.3464 21 11.416V11.9998H5V11.416C5 11.3464 5.02613 11.2797 5.07264 11.2305C5.11915 11.1813 5.18223 11.1537 5.248 11.1537ZM15.4 9.07218V8.15834C15.402 8.05579 15.4415 7.95804 15.51 7.88551C15.5786 7.81298 15.671 7.77128 15.768 7.76912H19.032C19.129 7.77128 19.2214 7.81298 19.29 7.88551C19.3585 7.95804 19.398 8.05579 19.4 8.15834V9.07218C19.398 9.17473 19.3585 9.27248 19.29 9.34501C19.2214 9.41754 19.129 9.45924 19.032 9.4614H15.768C15.671 9.45924 15.5786 9.41754 15.51 9.34501C15.4415 9.27248 15.402 9.17473 15.4 9.07218ZM2.6 4.70609C2.60211 4.17268 2.80338 3.66175 3.16 3.28457C3.51661 2.90739 3.99968 2.69451 4.504 2.69228H21.504C22.0076 2.69452 22.4898 2.90767 22.8452 3.2851C23.2005 3.66252 23.4 4.17346 23.4 4.70609V11.9998H22.6V11.416C22.6058 10.9395 22.4461 10.4773 22.1512 10.1171C21.8563 9.75681 21.4467 9.52352 21 9.4614C21.0256 9.32483 21.039 9.18601 21.04 9.04679V8.15834C21.0401 7.8814 20.9879 7.60723 20.8865 7.35189C20.7851 7.09656 20.6365 6.86519 20.4495 6.67134C20.2625 6.47749 20.0408 6.32506 19.7974 6.22297C19.554 6.12089 19.2938 6.07121 19.032 6.07684H15.768C15.5096 6.07684 15.2536 6.13068 15.0149 6.23529C14.7761 6.33989 14.5592 6.49321 14.3764 6.6865C14.1937 6.87978 14.0487 7.10925 13.9498 7.36179C13.8509 7.61433 13.8 7.885 13.8 8.15834V9.07218C13.801 9.20301 13.8144 9.3334 13.84 9.4614H12.2C12.2256 9.3334 12.239 9.20301 12.24 9.07218V8.15834C12.2401 7.8814 12.1879 7.60723 12.0865 7.35189C11.9851 7.09656 11.8365 6.86519 11.6495 6.67134C11.4625 6.47749 11.2408 6.32506 10.9974 6.22297C10.754 6.12089 10.4938 6.07121 10.232 6.07684H6.968C6.44605 6.07684 5.94549 6.29614 5.57641 6.6865C5.20734 7.07686 5 7.6063 5 8.15834V9.07218C4.9878 9.21008 4.9878 9.34888 5 9.48678C4.55743 9.54837 4.15112 9.77801 3.85676 10.1329C3.5624 10.4879 3.40007 10.9439 3.4 11.416V11.9998H2.6V4.70609ZM4.376 21.3074H2.6V19.6151H4.776L4.376 21.3074ZM23.4 21.3074H21.624L21.224 19.6151H23.4V21.3074Z" fill="currentColor"/>
</svg>
