<svg width="24" height="24" viewBox="0 0 24 24" fill="none" xmlns="http://www.w3.org/2000/svg">
<path d="M24 8.85938V15.5625C24 16.0803 23.5803 16.5 23.0625 16.5C22.5447 16.5 22.125 16.0803 22.125 15.5625V9.79688H18.5625V13.875C18.5625 14.3928 18.1428 14.8125 17.625 14.8125H13.1719V18C13.1719 18.5178 12.7522 18.9375 12.2344 18.9375H7.82812V19.6406C7.82812 20.1584 7.40845 20.5781 6.89062 20.5781C6.3728 20.5781 5.95312 20.1584 5.95312 19.6406V18C5.95312 17.4822 6.3728 17.0625 6.89062 17.0625H11.2969V13.875C11.2969 13.3572 11.7166 12.9375 12.2344 12.9375H16.6875V8.85938C16.6875 8.34155 17.1072 7.92188 17.625 7.92188H23.0625C23.5803 7.92188 24 8.34155 24 8.85938ZM23.0625 19.3125C22.5447 19.3125 22.125 19.7322 22.125 20.25C22.125 21.2838 21.2838 22.125 20.25 22.125H3.75C2.71619 22.125 1.875 21.2838 1.875 20.25V1.875H6V4.96875C6 5.48657 6.41968 5.90625 6.9375 5.90625H11.25V8.85938C11.25 9.3772 11.6697 9.79688 12.1875 9.79688H14.2031C14.7209 9.79688 15.1406 9.3772 15.1406 8.85938C15.1406 8.34155 14.7209 7.92188 14.2031 7.92188H13.125V4.96875C13.125 4.45093 12.7053 4.03125 12.1875 4.03125H7.875V0.9375C7.875 0.419678 7.45532 0 6.9375 0H0.9375C0.419678 0 0 0.419678 0 0.9375V20.25C0 22.3178 1.68219 24 3.75 24H20.25C22.3178 24 24 22.3178 24 20.25C24 19.7322 23.5803 19.3125 23.0625 19.3125Z" fill="currentColor"/>
</svg>
