<svg width="50" height="50" viewBox="0 0 50 50" fill="none" xmlns="http://www.w3.org/2000/svg">
<g clip-path="url(#clip0_618_500)">
<path d="M28.125 45.3125H9.375C6.71875 45.3125 4.6875 43.2813 4.6875 40.625C4.6875 37.9687 6.71875 35.9375 9.375 35.9375H28.125C30.7813 35.9375 32.8125 37.9687 32.8125 40.625C32.8125 43.2813 30.7813 45.3125 28.125 45.3125Z" stroke="#22A7D6" stroke-width="2" stroke-miterlimit="10" stroke-linecap="round" stroke-linejoin="round"/>
<path d="M18.75 17.1875H6.25V31.25H18.75V17.1875Z" stroke="#22A7D6" stroke-width="2" stroke-miterlimit="10" stroke-linecap="round" stroke-linejoin="round"/>
<path d="M25 31.25H18.75" stroke="#22A7D6" stroke-width="2" stroke-miterlimit="10" stroke-linecap="round" stroke-linejoin="round"/>
<path d="M25 25L45.3125 7.8125L42.1875 4.6875L23.4375 17.1875H34.375L35.9375 9.375" stroke="#22A7D6" stroke-width="2" stroke-miterlimit="10" stroke-linecap="round" stroke-linejoin="round"/>
<path d="M40.625 29.6875H39.0625V31.25C39.0625 32.9688 40.4687 34.375 42.1875 34.375C43.9063 34.375 45.3125 32.9688 45.3125 31.25V26.0938V7.8125" stroke="#22A7D6" stroke-width="2" stroke-miterlimit="10" stroke-linecap="round" stroke-linejoin="round"/>
</g>
<defs>
<clipPath id="clip0_618_500">
<rect width="50" height="50" fill="white"/>
</clipPath>
</defs>
</svg>
