<svg width="26" height="26" viewBox="0 0 26 26" fill="none" xmlns="http://www.w3.org/2000/svg">
<path d="M23.1559 11.375H22.7497V3.33124C22.7497 2.66322 22.4843 2.02257 22.0119 1.55021C21.5396 1.07785 20.8989 0.812487 20.2309 0.812487H18.1997C17.9433 0.811412 17.6892 0.861116 17.4522 0.958732C17.2151 1.05635 16.9997 1.19994 16.8184 1.38123C16.6371 1.56252 16.4935 1.77791 16.3959 2.01498C16.2983 2.25205 16.2486 2.50611 16.2497 2.76249V3.36374C15.5538 3.54341 14.9371 3.94868 14.496 4.51615C14.055 5.08362 13.8145 5.78128 13.8122 6.49999V7.31249C13.8122 7.52797 13.8978 7.73464 14.0501 7.88701C14.2025 8.03938 14.4092 8.12499 14.6247 8.12499H19.4997C19.7152 8.12499 19.9218 8.03938 20.0742 7.88701C20.2266 7.73464 20.3122 7.52797 20.3122 7.31249V6.49999C20.3098 5.78128 20.0693 5.08362 19.6283 4.51615C19.1873 3.94868 18.5706 3.54341 17.8747 3.36374V2.76249C17.8747 2.67629 17.9089 2.59363 17.9699 2.53268C18.0308 2.47173 18.1135 2.43749 18.1997 2.43749H20.2309C20.4673 2.43961 20.6934 2.53445 20.8606 2.7016C21.0277 2.86876 21.1225 3.09486 21.1247 3.33124V11.375H2.84342C2.41671 11.3721 2.00001 11.5042 1.65292 11.7524C1.30582 12.0007 1.0461 12.3523 0.910889 12.757C0.775678 13.1617 0.771902 13.5989 0.900102 14.0059C1.0283 14.4129 1.28191 14.7689 1.62467 15.0231V17.4606C1.62824 18.5622 1.97204 19.6359 2.60905 20.5347C3.24606 21.4335 4.14517 22.1135 5.18342 22.4819L4.20029 23.9281C4.0827 24.1072 4.04063 24.3256 4.08324 24.5356C4.12584 24.7456 4.24968 24.9302 4.42779 25.0494C4.55864 25.141 4.71493 25.1893 4.87467 25.1875C5.00849 25.1868 5.14007 25.1531 5.25772 25.0893C5.37537 25.0255 5.47544 24.9336 5.54904 24.8219L6.93842 22.75H19.0609L20.4503 24.8219C20.5239 24.9336 20.624 25.0255 20.7416 25.0893C20.8593 25.1531 20.9908 25.1868 21.1247 25.1875C21.2844 25.1893 21.4407 25.141 21.5715 25.0494C21.7497 24.9302 21.8735 24.7456 21.9161 24.5356C21.9587 24.3256 21.9166 24.1072 21.799 23.9281L20.8159 22.4412C21.8542 22.0729 22.7533 21.3928 23.3903 20.4941C24.0273 19.5953 24.3711 18.5216 24.3747 17.42V14.9825C24.701 14.7235 24.9394 14.3702 25.0574 13.9706C25.1753 13.5711 25.1671 13.1449 25.0337 12.7502C24.9004 12.3555 24.6485 12.0116 24.3124 11.7655C23.9763 11.5194 23.5724 11.383 23.1559 11.375V11.375ZM18.6872 6.49999H15.4372C15.4372 6.06901 15.6084 5.65568 15.9131 5.35094C16.2179 5.04619 16.6312 4.87499 17.0622 4.87499C17.4931 4.87499 17.9065 5.04619 18.2112 5.35094C18.516 5.65568 18.6872 6.06901 18.6872 6.49999V6.49999ZM2.84342 13H23.1559C23.2637 13 23.367 13.0428 23.4432 13.119C23.5194 13.1952 23.5622 13.2985 23.5622 13.4062C23.5622 13.514 23.5194 13.6173 23.4432 13.6935C23.367 13.7697 23.2637 13.8125 23.1559 13.8125H2.84342C2.73567 13.8125 2.63234 13.7697 2.55616 13.6935C2.47997 13.6173 2.43717 13.514 2.43717 13.4062C2.43717 13.2985 2.47997 13.1952 2.55616 13.119C2.63234 13.0428 2.73567 13 2.84342 13V13ZM22.7497 17.42C22.7475 18.402 22.3565 19.3431 21.6621 20.0374C20.9678 20.7318 20.0266 21.1228 19.0447 21.125H6.95467C5.9727 21.1228 5.03157 20.7318 4.33721 20.0374C3.64285 19.3431 3.25181 18.402 3.24967 17.42V15.4375H22.7497V17.42Z" fill="currentColor"/>
</svg>
