<svg width="48" height="48" viewBox="0 0 48 48" fill="none" xmlns="http://www.w3.org/2000/svg">
<g clip-path="url(#clip0_643_219)">
<path d="M0 23C0 12.1577 0 6.73654 3.36827 3.36827C6.73654 0 12.1577 0 23 0H25C35.8423 0 41.2635 0 44.6317 3.36827C48 6.73654 48 12.1577 48 23V25C48 35.8423 48 41.2635 44.6317 44.6317C41.2635 48 35.8423 48 25 48H23C12.1577 48 6.73654 48 3.36827 44.6317C0 41.2635 0 35.8423 0 25L0 23Z" fill="#22A7D6"/>
<path fill-rule="evenodd" clip-rule="evenodd" d="M13.0009 15H9.5001C8.49986 15 8.2998 15.4708 8.2998 15.9898C8.2998 16.9169 9.48666 21.5148 13.826 27.5959C16.7189 31.7488 20.7947 34 24.5036 34C26.7289 34 27.0042 33.5 27.0042 32.6388V29.5C27.0042 28.5 27.215 28.3004 27.9196 28.3004C28.4389 28.3004 29.329 28.56 31.406 30.5623C33.7797 32.9354 34.171 34 35.5061 34H39.0069C40.0072 34 40.5073 33.5 40.2188 32.5133C39.9031 31.5299 38.7698 30.103 37.266 28.4117C36.45 27.4476 35.2261 26.4094 34.8552 25.8902C34.336 25.2228 34.4843 24.9261 34.8552 24.3329C34.8552 24.3329 39.1204 18.3259 39.5655 16.2866C39.788 15.5449 39.5655 15 38.5068 15H35.006C34.1159 15 33.7055 15.4708 33.4829 15.9898C33.4829 15.9898 31.7027 20.3282 29.1807 23.1463C28.3647 23.962 27.9938 24.2216 27.5487 24.2216C27.3262 24.2216 27.0041 23.962 27.0041 23.2205V16.2866C27.0041 15.3966 26.7458 15 26.0039 15H20.5026C19.9464 15 19.6118 15.413 19.6118 15.8045C19.6118 16.6481 20.8728 16.8427 21.0028 19.2158V24.37C21.0028 25.5 20.7986 25.7049 20.3536 25.7049C19.1668 25.7049 16.2799 21.3471 14.5677 16.3607C14.2322 15.3915 13.8956 15 13.0009 15Z" fill="white"/>
</g>
<defs>
<clipPath id="clip0_643_219">
<rect width="48" height="48" fill="white"/>
</clipPath>
</defs>
</svg>
