<svg width="24" height="24" viewBox="0 0 24 24" fill="none" xmlns="http://www.w3.org/2000/svg">
<path d="M12.0001 0.328125C11.9969 0.328125 11.9937 0.328125 11.9901 0.328125C11.9888 0.328125 11.9872 0.328125 11.9855 0.328125C11.9809 0.328125 11.9764 0.329062 11.9718 0.329062C5.53809 0.343641 0.328125 5.56312 0.328125 12C0.328125 18.435 5.53809 23.6555 11.9718 23.6709C11.9764 23.6709 11.9809 23.6719 11.9855 23.6719C11.9872 23.6719 11.9887 23.6719 11.9901 23.6719C11.9937 23.6719 11.9969 23.6719 12.0001 23.6719C18.445 23.6719 23.6719 18.445 23.6719 12C23.6719 5.55403 18.445 0.328125 12.0001 0.328125ZM12.4667 7.31302C13.7041 7.27927 14.9087 7.11605 16.0677 6.83339C16.4179 8.20941 16.634 9.79514 16.6686 11.5331H12.4667V7.31302H12.4667ZM12.4667 6.37927V1.33575C13.726 1.68408 15.0008 3.36192 15.8134 5.93522C14.7355 6.19505 13.6166 6.34645 12.4667 6.37927ZM11.5332 1.32478V6.37927C10.3743 6.34645 9.24623 6.19233 8.15977 5.92791C8.97905 3.33909 10.2662 1.65487 11.5332 1.32478ZM11.5332 7.31208V11.5331H7.30261C7.33678 9.79233 7.55428 8.20477 7.90397 6.82786C9.07252 7.11328 10.2858 7.27927 11.5332 7.31208ZM6.36291 11.5331H1.27373C1.37677 9.13312 2.27086 6.9337 3.70247 5.19202C4.74202 5.76469 5.84494 6.23339 7.00031 6.58355C6.62325 8.07258 6.39708 9.75131 6.36291 11.5331ZM6.36291 12.4669C6.39708 14.2477 6.62325 15.9265 7.00036 17.4156C5.84541 17.7666 4.74206 18.2353 3.70252 18.8079C2.27091 17.0663 1.37681 14.8669 1.27378 12.4669H6.36291ZM7.30261 12.4669H11.5332V16.6824C10.2858 16.7153 9.07209 16.8822 7.90355 17.1684C7.55381 15.7925 7.33678 14.2058 7.30261 12.4669ZM11.5332 17.6152V22.6752C10.2653 22.3442 8.97727 20.6581 8.15841 18.0666C9.2453 17.8022 10.3738 17.6481 11.5332 17.6152ZM12.4667 22.6642V17.6152C13.6166 17.6481 14.7355 17.8004 15.8143 18.0602C15.0017 20.6354 13.726 22.3159 12.4667 22.6642ZM12.4667 16.6824V12.4669H16.6687C16.6341 14.203 16.4179 15.7869 16.0695 17.1621C14.9087 16.8794 13.7051 16.7153 12.4667 16.6824ZM17.6079 12.4669H22.7262C22.6232 14.8669 21.7296 17.0655 20.298 18.8071C19.2501 18.2308 18.1377 17.7585 16.9723 17.4065C17.3489 15.9192 17.5741 14.2441 17.6079 12.4669ZM17.6079 11.5331C17.5741 9.75319 17.348 8.07717 16.9714 6.58898C18.1359 6.237 19.2484 5.76558 20.2952 5.1893C21.7287 6.93094 22.6232 9.1313 22.7262 11.5331H17.6079ZM19.6523 4.47619C18.7232 4.97039 17.7428 5.37891 16.7188 5.68898C16.1726 3.93272 15.4066 2.49928 14.5002 1.55822C16.4881 2.03517 18.2635 3.0637 19.6523 4.47619ZM9.46284 1.56736C8.56144 2.50659 7.79869 3.93366 7.25475 5.68078C6.2407 5.37164 5.26866 4.96678 4.34817 4.47619C5.72775 3.07284 7.48955 2.04698 9.46284 1.56736ZM4.34494 19.5202C5.26636 19.0287 6.23887 18.6238 7.25381 18.3147C7.79775 20.0636 8.5605 21.4925 9.4628 22.4326C7.48819 21.9521 5.7255 20.9253 4.34494 19.5202ZM14.5002 22.4408C15.4076 21.4998 16.1735 20.0654 16.7197 18.3064C17.7447 18.6174 18.7259 19.025 19.6551 19.521C18.2662 20.9345 16.4899 21.9648 14.5002 22.4408Z" fill="currentColor"/>
</svg>
