<svg width="69" height="69" viewBox="0 0 69 69" fill="none" xmlns="http://www.w3.org/2000/svg">
<path d="M20.7266 54.3594H14.6406V14.6406H20.7266V54.3594ZM15.9219 53.0781H19.4453V15.9219H15.9219V53.0781Z" fill="#22A7D6"/>
<path d="M27.4531 54.3594H21.3672V38.0234H27.4531V54.3594ZM22.6484 53.0781H26.1719V39.3047H22.6484V53.0781Z" fill="#22A7D6"/>
<path d="M27.4531 37.3828H21.3672V14.6406H27.4531V37.3828ZM22.6484 36.1016H26.1719V15.9219H22.6484V36.1016Z" fill="#22A7D6"/>
<path d="M20.7266 54.3594H14.6406V14.6406H20.7266V54.3594ZM15.9219 53.0781H19.4453V15.9219H15.9219V53.0781Z" fill="#22A7D6"/>
<path d="M27.4531 54.3594H21.3672V38.0234H27.4531V54.3594ZM22.6484 53.0781H26.1719V39.3047H22.6484V53.0781Z" fill="#22A7D6"/>
<path d="M27.4531 37.3828H21.3672V14.6406H27.4531V37.3828ZM22.6484 36.1016H26.1719V15.9219H22.6484V36.1016Z" fill="#22A7D6"/>
<g opacity="0.3">
<path opacity="0.3" d="M23.6094 35.6211C23.8747 35.6211 24.0898 35.406 24.0898 35.1406C24.0898 34.8753 23.8747 34.6602 23.6094 34.6602C23.344 34.6602 23.1289 34.8753 23.1289 35.1406C23.1289 35.406 23.344 35.6211 23.6094 35.6211Z" fill="#22A7D6"/>
</g>
<g opacity="0.3">
<path opacity="0.3" d="M25.2109 35.6211C25.4763 35.6211 25.6914 35.406 25.6914 35.1406C25.6914 34.8753 25.4763 34.6602 25.2109 34.6602C24.9456 34.6602 24.7305 34.8753 24.7305 35.1406C24.7305 35.406 24.9456 35.6211 25.2109 35.6211Z" fill="#22A7D6"/>
</g>
<g opacity="0.3">
<path opacity="0.3" d="M16.8828 52.5977C17.1482 52.5977 17.3633 52.3825 17.3633 52.1172C17.3633 51.8518 17.1482 51.6367 16.8828 51.6367C16.6175 51.6367 16.4023 51.8518 16.4023 52.1172C16.4023 52.3825 16.6175 52.5977 16.8828 52.5977Z" fill="#22A7D6"/>
</g>
<g opacity="0.3">
<path opacity="0.3" d="M18.4844 52.5977C18.7497 52.5977 18.9648 52.3825 18.9648 52.1172C18.9648 51.8518 18.7497 51.6367 18.4844 51.6367C18.219 51.6367 18.0039 51.8518 18.0039 52.1172C18.0039 52.3825 18.219 52.5977 18.4844 52.5977Z" fill="#22A7D6"/>
</g>
<g opacity="0.3">
<path opacity="0.3" d="M16.8828 17.3633C17.1482 17.3633 17.3633 17.1482 17.3633 16.8828C17.3633 16.6175 17.1482 16.4023 16.8828 16.4023C16.6175 16.4023 16.4023 16.6175 16.4023 16.8828C16.4023 17.1482 16.6175 17.3633 16.8828 17.3633Z" fill="#22A7D6"/>
</g>
<g opacity="0.3">
<path opacity="0.3" d="M18.4844 17.3633C18.7497 17.3633 18.9648 17.1482 18.9648 16.8828C18.9648 16.6175 18.7497 16.4023 18.4844 16.4023C18.219 16.4023 18.0039 16.6175 18.0039 16.8828C18.0039 17.1482 18.219 17.3633 18.4844 17.3633Z" fill="#22A7D6"/>
</g>
<g opacity="0.3">
<path opacity="0.3" d="M23.6094 40.7461C23.8747 40.7461 24.0898 40.531 24.0898 40.2656C24.0898 40.0003 23.8747 39.7852 23.6094 39.7852C23.344 39.7852 23.1289 40.0003 23.1289 40.2656C23.1289 40.531 23.344 40.7461 23.6094 40.7461Z" fill="#22A7D6"/>
</g>
<g opacity="0.3">
<path opacity="0.3" d="M25.2109 40.7461C25.4763 40.7461 25.6914 40.531 25.6914 40.2656C25.6914 40.0003 25.4763 39.7852 25.2109 39.7852C24.9456 39.7852 24.7305 40.0003 24.7305 40.2656C24.7305 40.531 24.9456 40.7461 25.2109 40.7461Z" fill="#22A7D6"/>
</g>
<path d="M34.1797 54.3594H28.0938V14.6406H34.1797V54.3594ZM29.375 53.0781H32.8984V15.9219H29.375V53.0781Z" fill="#22A7D6"/>
<path d="M40.9062 54.3594H34.8203V31.6172H40.9062V54.3594ZM36.1016 53.0781H39.625V32.8984H36.1016V53.0781Z" fill="#22A7D6"/>
<path d="M40.9062 30.9766H34.8203V14.6406H40.9062V30.9766ZM36.1016 29.6953H39.625V15.9219H36.1016V29.6953Z" fill="#22A7D6"/>
<path d="M34.1797 54.3594H28.0938V14.6406H34.1797V54.3594ZM29.375 53.0781H32.8984V15.9219H29.375V53.0781Z" fill="#22A7D6"/>
<path d="M40.9062 54.3594H34.8203V31.6172H40.9062V54.3594ZM36.1016 53.0781H39.625V32.8984H36.1016V53.0781Z" fill="#22A7D6"/>
<path d="M40.9062 30.9766H34.8203V14.6406H40.9062V30.9766ZM36.1016 29.6953H39.625V15.9219H36.1016V29.6953Z" fill="#22A7D6"/>
<g opacity="0.3">
<path opacity="0.3" d="M37.0625 29.2148C37.3279 29.2148 37.543 28.9997 37.543 28.7344C37.543 28.469 37.3279 28.2539 37.0625 28.2539C36.7971 28.2539 36.582 28.469 36.582 28.7344C36.582 28.9997 36.7971 29.2148 37.0625 29.2148Z" fill="#22A7D6"/>
</g>
<g opacity="0.3">
<path opacity="0.3" d="M38.6641 29.2148C38.9294 29.2148 39.1445 28.9997 39.1445 28.7344C39.1445 28.469 38.9294 28.2539 38.6641 28.2539C38.3987 28.2539 38.1836 28.469 38.1836 28.7344C38.1836 28.9997 38.3987 29.2148 38.6641 29.2148Z" fill="#22A7D6"/>
</g>
<g opacity="0.3">
<path opacity="0.3" d="M30.3359 52.5977C30.6013 52.5977 30.8164 52.3825 30.8164 52.1172C30.8164 51.8518 30.6013 51.6367 30.3359 51.6367C30.0706 51.6367 29.8555 51.8518 29.8555 52.1172C29.8555 52.3825 30.0706 52.5977 30.3359 52.5977Z" fill="#22A7D6"/>
</g>
<g opacity="0.3">
<path opacity="0.3" d="M31.9375 52.5977C32.2029 52.5977 32.418 52.3825 32.418 52.1172C32.418 51.8518 32.2029 51.6367 31.9375 51.6367C31.6721 51.6367 31.457 51.8518 31.457 52.1172C31.457 52.3825 31.6721 52.5977 31.9375 52.5977Z" fill="#22A7D6"/>
</g>
<g opacity="0.3">
<path opacity="0.3" d="M30.3359 17.3633C30.6013 17.3633 30.8164 17.1482 30.8164 16.8828C30.8164 16.6175 30.6013 16.4023 30.3359 16.4023C30.0706 16.4023 29.8555 16.6175 29.8555 16.8828C29.8555 17.1482 30.0706 17.3633 30.3359 17.3633Z" fill="#22A7D6"/>
</g>
<g opacity="0.3">
<path opacity="0.3" d="M31.9375 17.3633C32.2029 17.3633 32.418 17.1482 32.418 16.8828C32.418 16.6175 32.2029 16.4023 31.9375 16.4023C31.6721 16.4023 31.457 16.6175 31.457 16.8828C31.457 17.1482 31.6721 17.3633 31.9375 17.3633Z" fill="#22A7D6"/>
</g>
<g opacity="0.3">
<path opacity="0.3" d="M37.0625 34.3398C37.3279 34.3398 37.543 34.1247 37.543 33.8594C37.543 33.594 37.3279 33.3789 37.0625 33.3789C36.7971 33.3789 36.582 33.594 36.582 33.8594C36.582 34.1247 36.7971 34.3398 37.0625 34.3398Z" fill="#22A7D6"/>
</g>
<g opacity="0.3">
<path opacity="0.3" d="M38.6641 34.3398C38.9294 34.3398 39.1445 34.1247 39.1445 33.8594C39.1445 33.594 38.9294 33.3789 38.6641 33.3789C38.3987 33.3789 38.1836 33.594 38.1836 33.8594C38.1836 34.1247 38.3987 34.3398 38.6641 34.3398Z" fill="#22A7D6"/>
</g>
<path d="M47.6328 54.3594H41.5469V14.6406H47.6328V54.3594ZM42.8281 53.0781H46.3516V15.9219H42.8281V53.0781Z" fill="#22A7D6"/>
<path d="M54.3594 54.3594H48.2734V44.4297H54.3594V54.3594ZM49.5547 53.0781H53.0781V45.7109H49.5547V53.0781Z" fill="#22A7D6"/>
<path d="M54.3594 43.7891H48.2734V14.6406H54.3594V43.7891ZM49.5547 42.5078H53.0781V15.9219H49.5547V42.5078Z" fill="#22A7D6"/>
<path d="M47.6328 54.3594H41.5469V14.6406H47.6328V54.3594ZM42.8281 53.0781H46.3516V15.9219H42.8281V53.0781Z" fill="#22A7D6"/>
<path d="M54.3594 54.3594H48.2734V44.4297H54.3594V54.3594ZM49.5547 53.0781H53.0781V45.7109H49.5547V53.0781Z" fill="#22A7D6"/>
<path d="M54.3594 43.7891H48.2734V14.6406H54.3594V43.7891ZM49.5547 42.5078H53.0781V15.9219H49.5547V42.5078Z" fill="#22A7D6"/>
<g opacity="0.3">
<path opacity="0.3" d="M50.5156 42.0273C50.781 42.0273 50.9961 41.8122 50.9961 41.5469C50.9961 41.2815 50.781 41.0664 50.5156 41.0664C50.2503 41.0664 50.0352 41.2815 50.0352 41.5469C50.0352 41.8122 50.2503 42.0273 50.5156 42.0273Z" fill="#22A7D6"/>
</g>
<g opacity="0.3">
<path opacity="0.3" d="M52.1172 42.0273C52.3825 42.0273 52.5977 41.8122 52.5977 41.5469C52.5977 41.2815 52.3825 41.0664 52.1172 41.0664C51.8518 41.0664 51.6367 41.2815 51.6367 41.5469C51.6367 41.8122 51.8518 42.0273 52.1172 42.0273Z" fill="#22A7D6"/>
</g>
<g opacity="0.3">
<path opacity="0.3" d="M43.7891 52.5977C44.0544 52.5977 44.2695 52.3825 44.2695 52.1172C44.2695 51.8518 44.0544 51.6367 43.7891 51.6367C43.5237 51.6367 43.3086 51.8518 43.3086 52.1172C43.3086 52.3825 43.5237 52.5977 43.7891 52.5977Z" fill="#22A7D6"/>
</g>
<g opacity="0.3">
<path opacity="0.3" d="M45.3906 52.5977C45.656 52.5977 45.8711 52.3825 45.8711 52.1172C45.8711 51.8518 45.656 51.6367 45.3906 51.6367C45.1253 51.6367 44.9102 51.8518 44.9102 52.1172C44.9102 52.3825 45.1253 52.5977 45.3906 52.5977Z" fill="#22A7D6"/>
</g>
<g opacity="0.3">
<path opacity="0.3" d="M43.7891 17.3633C44.0544 17.3633 44.2695 17.1482 44.2695 16.8828C44.2695 16.6175 44.0544 16.4023 43.7891 16.4023C43.5237 16.4023 43.3086 16.6175 43.3086 16.8828C43.3086 17.1482 43.5237 17.3633 43.7891 17.3633Z" fill="#22A7D6"/>
</g>
<g opacity="0.3">
<path opacity="0.3" d="M45.3906 17.3633C45.656 17.3633 45.8711 17.1482 45.8711 16.8828C45.8711 16.6175 45.656 16.4023 45.3906 16.4023C45.1253 16.4023 44.9102 16.6175 44.9102 16.8828C44.9102 17.1482 45.1253 17.3633 45.3906 17.3633Z" fill="#22A7D6"/>
</g>
<g opacity="0.3">
<path opacity="0.3" d="M50.5156 47.1523C50.781 47.1523 50.9961 46.9372 50.9961 46.6719C50.9961 46.4065 50.781 46.1914 50.5156 46.1914C50.2503 46.1914 50.0352 46.4065 50.0352 46.6719C50.0352 46.9372 50.2503 47.1523 50.5156 47.1523Z" fill="#22A7D6"/>
</g>
<g opacity="0.3">
<path opacity="0.3" d="M52.1172 47.1523C52.3825 47.1523 52.5977 46.9372 52.5977 46.6719C52.5977 46.4065 52.3825 46.1914 52.1172 46.1914C51.8518 46.1914 51.6367 46.4065 51.6367 46.6719C51.6367 46.9372 51.8518 47.1523 52.1172 47.1523Z" fill="#22A7D6"/>
</g>
</svg>
