<svg width="28" height="20" viewBox="0 0 28 20" fill="none" xmlns="http://www.w3.org/2000/svg">
<path d="M26.9086 1.83902C25.8979 0.637551 24.0319 0.147461 20.4681 0.147461H7.53164C3.88631 0.147461 1.98863 0.669165 0.981716 1.94831C0 3.19549 0 5.0331 0 7.5764V12.4239C0 17.3511 1.1648 19.8528 7.53164 19.8528H20.4682C23.5587 19.8528 25.2712 19.4203 26.3791 18.36C27.5152 17.2727 28 15.4974 28 12.4239V7.5764C28 4.89427 27.924 3.04582 26.9086 1.83902ZM17.9761 10.6694L12.1017 13.7396C11.9704 13.8082 11.8267 13.8423 11.6833 13.8423C11.5209 13.8423 11.3589 13.7985 11.2154 13.7117C10.9451 13.5479 10.7801 13.255 10.7801 12.939V6.81842C10.7801 6.50301 10.9447 6.21036 11.2144 6.04652C11.4842 5.88267 11.8197 5.87147 12.0996 6.01689L17.974 9.06727C18.2729 9.22244 18.4606 9.53098 18.461 9.86762C18.4614 10.2045 18.2745 10.5135 17.9761 10.6694Z" fill="#B2D551"/>
</svg>
