<svg width="28" height="28" viewBox="0 0 28 28" fill="none" xmlns="http://www.w3.org/2000/svg">
<path d="M26.9086 5.83902C25.8979 4.63755 24.0319 4.14746 20.4681 4.14746H7.53164C3.88631 4.14746 1.98863 4.66916 0.981716 5.94831C0 7.19549 0 9.0331 0 11.5764V16.4239C0 21.3511 1.1648 23.8528 7.53164 23.8528H20.4682C23.5587 23.8528 25.2712 23.4203 26.3791 22.36C27.5152 21.2727 28 19.4974 28 16.4239V11.5764C28 8.89427 27.924 7.04582 26.9086 5.83902ZM17.9761 14.6694L12.1017 17.7396C11.9704 17.8082 11.8267 17.8423 11.6833 17.8423C11.5209 17.8423 11.3589 17.7985 11.2154 17.7117C10.9451 17.5479 10.7801 17.255 10.7801 16.939V10.8184C10.7801 10.503 10.9447 10.2104 11.2144 10.0465C11.4842 9.88267 11.8197 9.87147 12.0996 10.0169L17.974 13.0673C18.2729 13.2224 18.4606 13.531 18.461 13.8676C18.4614 14.2045 18.2745 14.5135 17.9761 14.6694Z" fill="#B2D551"/>
</svg>
