<svg width="42" height="42" viewBox="0 0 42 42" fill="none" xmlns="http://www.w3.org/2000/svg">
<g clip-path="url(#clip0_286_192)">
<path d="M39.4625 15.6605C40.8198 15.6605 41.9241 14.5562 41.9241 13.1988V10.0115C41.9241 9.00082 41.3188 8.10503 40.3815 7.72783L21.9231 0.180438C21.3221 -0.061705 20.6716 -0.0574381 20.0859 0.176992C20.0722 0.18249 20.3948 0.0506275 1.6188 7.72791C0.681489 8.10503 0.0761719 9.0009 0.0761719 10.0116V13.199C0.0761719 14.5563 1.18046 15.6606 2.53781 15.6606H4.0148V34.205H2.53781C1.18046 34.205 0.0761719 35.3093 0.0761719 36.6666V39.5385C0.0761719 40.8959 1.18046 42.0002 2.53781 42.0002H39.4624C40.8198 42.0002 41.924 40.8959 41.924 39.5385V36.6666C41.924 35.3093 40.8198 34.205 39.4624 34.205H37.9854V15.6606H39.4625V15.6605ZM39.4625 36.6665C39.464 39.6041 39.4707 39.5384 39.4625 39.5384H2.53789V36.6665H39.4625ZM6.47652 34.2048V15.6605H9.26637V34.2048H6.47652ZM11.728 34.2048V15.6605H17.1436V34.2048H11.728ZM19.6053 34.2048V15.6605H22.3951V34.2048H19.6053ZM24.8568 34.2048V15.6605H30.2724V34.2048H24.8568ZM32.734 34.2048V15.6605H35.5239V34.2048H32.734ZM2.53789 13.1988C2.53789 9.76541 2.5342 10.013 2.54651 10.008L21.0002 2.46246L39.4539 10.008C39.4666 10.013 39.4625 9.77353 39.4625 13.1988C39.0534 13.1988 3.02407 13.1988 2.53789 13.1988Z" fill="#22A7D6"/>
<path d="M21.0004 5.32153C20.3206 5.32153 19.7695 5.87261 19.7695 6.55235V9.1781C19.7695 9.85784 20.3206 10.4089 21.0004 10.4089C21.6801 10.4089 22.2312 9.85784 22.2312 9.1781V6.55235C22.2312 5.87261 21.6801 5.32153 21.0004 5.32153Z" fill="#22A7D6"/>
</g>
<defs>
<clipPath id="clip0_286_192">
<rect width="42" height="42" fill="white"/>
</clipPath>
</defs>
</svg>
