<svg width="42" height="42" viewBox="0 0 42 42" fill="none" xmlns="http://www.w3.org/2000/svg">
<g clip-path="url(#clip0_286_153)">
<path d="M40.4918 12.0624C40.4218 11.8916 40.3182 11.7376 40.1894 11.6088L28.9922 0.4116C28.8634 0.2828 28.7094 0.1792 28.5386 0.1092C28.3706 0.0392 28.1886 0 28.001 0H9.80098C8.25818 0 7.00098 1.2572 7.00098 2.8V15.4C7.00098 16.1728 7.62818 16.8 8.40098 16.8C9.17378 16.8 9.80098 16.1728 9.80098 15.4V2.8H26.601V11.2C26.601 12.7428 27.8582 14 29.401 14H37.801V36.4H21.001C20.2282 36.4 19.601 37.0272 19.601 37.8C19.601 38.5728 20.2282 39.2 21.001 39.2H37.801C39.3438 39.2 40.601 37.9428 40.601 36.4V12.6C40.601 12.4124 40.5618 12.2304 40.4918 12.0624ZM29.401 11.2V4.7796L35.8214 11.2H29.401Z" fill="#22A7D6"/>
<path d="M15.3616 40.2613L13.2168 31.6569C14.5552 30.3801 15.4008 28.5909 15.4008 26.6001C15.4008 22.7417 12.2592 19.6001 8.40084 19.6001C4.54244 19.6001 1.40084 22.7417 1.40084 26.6001C1.40084 28.5909 2.24644 30.3801 3.58484 31.6569L1.44004 40.2613C1.30844 40.7905 1.49884 41.3505 1.92444 41.6921C2.35004 42.0365 2.93804 42.0953 3.42524 41.8517L8.40084 39.3653L13.3736 41.8517C13.5724 41.9497 13.788 42.0001 14.0008 42.0001C14.3116 42.0001 14.6224 41.8965 14.8772 41.6921C15.3028 41.3505 15.4932 40.7905 15.3616 40.2613ZM9.02524 36.5485C8.63044 36.3525 8.16564 36.3525 7.77364 36.5485L4.89244 37.9877L6.09084 33.1773C6.81884 33.4349 7.58884 33.6001 8.40084 33.6001C9.21284 33.6001 9.98283 33.4349 10.708 33.1773L11.9064 37.9877L9.02524 36.5485ZM8.40084 30.8001C6.08524 30.8001 4.20084 28.9157 4.20084 26.6001C4.20084 24.2845 6.08524 22.4001 8.40084 22.4001C10.7164 22.4001 12.6008 24.2845 12.6008 26.6001C12.6008 28.9157 10.7164 30.8001 8.40084 30.8001Z" fill="#22A7D6"/>
<path d="M22.4006 8.40015H14.0006C13.2278 8.40015 12.6006 9.02735 12.6006 9.80015C12.6006 10.5729 13.2278 11.2001 14.0006 11.2001H22.4006C23.1734 11.2001 23.8006 10.5729 23.8006 9.80015C23.8006 9.02735 23.1734 8.40015 22.4006 8.40015Z" fill="#22A7D6"/>
<path d="M33.6014 16.8H16.8014C16.0286 16.8 15.4014 17.4272 15.4014 18.2C15.4014 18.9728 16.0286 19.6 16.8014 19.6H33.6014C34.3742 19.6 35.0014 18.9728 35.0014 18.2C35.0014 17.4272 34.3742 16.8 33.6014 16.8Z" fill="#22A7D6"/>
<path d="M33.6012 25.2H19.6012C18.8284 25.2 18.2012 25.8272 18.2012 26.5999C18.2012 27.3727 18.8284 27.9999 19.6012 27.9999H33.6012C34.374 27.9999 35.0012 27.3727 35.0012 26.5999C35.0012 25.8272 34.374 25.2 33.6012 25.2Z" fill="#22A7D6"/>
</g>
<defs>
<clipPath id="clip0_286_153">
<rect width="42" height="42" fill="white"/>
</clipPath>
</defs>
</svg>
