<svg width="42" height="42" viewBox="0 0 42 42" fill="none" xmlns="http://www.w3.org/2000/svg">
<path d="M22.9688 13.6992V23.543C22.9688 24.2225 23.5197 24.7734 24.1992 24.7734H35.6836C36.3631 24.7734 36.9141 24.2225 36.9141 23.543V13.6992C36.9141 13.0197 36.3631 12.4688 35.6836 12.4688H24.1992C23.5197 12.4688 22.9688 13.0197 22.9688 13.6992ZM31.1719 14.9297H34.4531V17.3906H31.1719V14.9297ZM31.1719 19.8516H34.4531V22.3125H31.1719V19.8516ZM25.4297 14.9297H28.7109V17.3906H25.4297V14.9297ZM25.4297 19.8516H28.7109V22.3125H25.4297V19.8516Z" fill="#22A7D6"/>
<path d="M41.1765 3.58583C40.7712 3.37345 40.2813 3.40348 39.905 3.66409L34.7265 7.24918V4.67578C34.7265 4.21813 34.4725 3.79829 34.0671 3.58583C33.6619 3.37345 33.1719 3.40364 32.7956 3.66409L27.6171 7.24918V4.67578C27.6171 4.21813 27.363 3.79829 26.9576 3.58583C26.5523 3.37345 26.0624 3.40348 25.6861 3.66409L18.5767 8.58597C18.245 8.81582 18.0469 9.1939 18.0469 9.59766V22.3125H14.6784L13.1216 1.14023C13.0744 0.497355 12.5391 0 11.8945 0H6.15234C5.50782 0 4.97249 0.497355 4.92524 1.14023L3.36845 22.3125H1.23047C0.550922 22.3125 0 22.8634 0 23.543V28.5531C0 29.2327 0.550922 29.7836 1.23047 29.7836H9.84375V33.475C9.84375 34.1545 10.3947 34.7055 11.0742 34.7055H12.6884C12.9392 35.2641 13.2465 35.7943 13.6079 36.2926L12.7992 37.6934C12.636 37.976 12.5918 38.3118 12.6762 38.627C12.7606 38.9423 12.9668 39.211 13.2495 39.3742L17.512 41.8351C17.7946 41.9983 18.1305 42.0424 18.4457 41.9581C18.761 41.8736 19.0297 41.6674 19.1929 41.3848L19.9977 39.9909C20.6086 40.0529 21.2271 40.0529 21.8382 39.9909L22.643 41.3848C22.8062 41.6674 23.0749 41.8736 23.3901 41.9581C23.4949 41.9861 23.6019 42 23.7086 42C23.9228 42 24.1352 41.9441 24.3238 41.8351L28.5863 39.3742C28.8689 39.211 29.0752 38.9422 29.1596 38.627C29.2441 38.3118 29.1999 37.976 29.0367 37.6934L28.2279 36.2926C28.5894 35.7943 28.8967 35.2641 29.1474 34.7055H30.7617C31.4413 34.7055 31.9922 34.1545 31.9922 33.475V29.7836H40.6055C41.285 29.7836 41.8359 29.2327 41.8359 28.5531V4.67578C41.8359 4.21813 41.5819 3.79829 41.1765 3.58583ZM7.29561 2.46094H10.7512L10.9321 4.92188H7.11473L7.29561 2.46094ZM6.01691 19.8516H6.97266C7.6522 19.8516 8.20312 19.3006 8.20312 18.6211C8.20312 17.9415 7.6522 17.3906 6.97266 17.3906H6.19787L6.93369 7.38281H11.113L11.3663 10.8281H10.2539C9.57436 10.8281 9.02344 11.379 9.02344 12.0586C9.02344 12.7381 9.57436 13.2891 10.2539 13.2891H11.5474L12.2108 22.3125H5.83603L6.01691 19.8516ZM29.5312 32.2445H28.308C27.7782 32.2445 27.3079 32.5836 27.1405 33.0863C26.861 33.9258 26.4173 34.6918 25.8216 35.3628C25.4699 35.7591 25.4113 36.336 25.6763 36.7949L26.2902 37.8582L24.1589 39.0887L23.5501 38.0342C23.2854 37.5757 22.7568 37.338 22.2385 37.4438C21.3746 37.62 20.4612 37.62 19.5973 37.4438C19.0788 37.3382 18.5504 37.5756 18.2857 38.0342L17.6769 39.0887L15.5457 37.8582L16.1596 36.7949C16.4245 36.336 16.366 35.7591 16.0142 35.3628C15.4186 34.6918 14.9749 33.9258 14.6953 33.0863C14.528 32.5836 14.0577 32.2445 13.5279 32.2445H12.3047V29.7836H16.5819C16.4671 30.1807 16.4062 30.5943 16.4062 31.014C16.4062 33.5018 18.4302 35.5258 20.918 35.5258C23.4057 35.5258 25.4297 33.5018 25.4297 31.014C25.4297 30.5943 25.3688 30.1807 25.2541 29.7836H29.5312V32.2445ZM18.8672 31.014C18.8672 30.5631 19.0158 30.1381 19.2913 29.7836H22.5446C22.8201 30.1381 22.9688 30.5631 22.9688 31.014C22.9688 32.1448 22.0488 33.0648 20.918 33.0648C19.7872 33.0648 18.8672 32.1448 18.8672 31.014ZM39.375 27.3226H2.46094V24.7734H19.2773C19.9569 24.7734 20.5078 24.2225 20.5078 23.543V10.2423L25.1563 7.02425V9.59766C25.1563 10.0553 25.4103 10.4751 25.8157 10.6876C26.2211 10.9001 26.711 10.8699 27.0872 10.6093L32.2658 7.02425V9.59766C32.2658 10.0553 32.5198 10.4751 32.9252 10.6876C33.3305 10.9 33.8205 10.8699 34.1967 10.6093L39.375 7.02425V27.3226Z" fill="#22A7D6"/>
</svg>
