<svg width="42" height="42" viewBox="0 0 42 42" fill="none" xmlns="http://www.w3.org/2000/svg">
<path d="M39.8246 14.1535C38.5028 12.3334 36.669 10.9344 34.5212 10.1077C32.3734 9.28099 30.075 9.08937 27.8739 9.55342C25.5041 10.0531 23.3586 11.3052 21.6693 13.1744L21 13.915L20.3306 13.1744C18.6414 11.3051 16.4958 10.0531 14.126 9.55334C11.9251 9.08937 9.62645 9.28099 7.47871 10.1076C5.33097 10.9343 3.49707 12.3334 2.1753 14.1535C0.752227 16.1131 0 18.4807 0 21.0001C0 23.5196 0.752227 25.8871 2.1753 27.8467C3.49707 29.6668 5.33097 31.0658 7.47871 31.8925C9.62645 32.7193 11.9251 32.9109 14.126 32.4469C16.4958 31.9472 18.6414 30.6951 20.3306 28.8258L20.9999 28.0853L21.6692 28.8258C23.3586 30.6951 25.504 31.9471 27.8738 32.4469C28.6571 32.612 29.4525 32.6941 30.2494 32.6941C31.6915 32.694 33.1378 32.425 34.5211 31.8926C36.6689 31.0659 38.5028 29.6668 39.8245 27.8467C41.2478 25.8872 42 23.5196 42 21.0001C42 18.4806 41.2478 16.1131 39.8246 14.1535ZM33.6372 29.5959C30.7838 30.694 26.6214 30.635 23.4951 27.1758L15.4973 17.6155L15.4618 17.5745C14.4541 16.4595 13.1733 15.8701 11.7579 15.8701C10.6075 15.8701 9.36961 16.2971 8.44676 17.0125C7.58715 17.6788 6.5625 18.9115 6.5625 21.0001C6.5625 23.0888 7.58715 24.3215 8.44676 24.9878C9.36969 25.7031 10.6075 26.1301 11.7579 26.1301C13.1732 26.1301 14.4541 25.5407 15.4618 24.4257L16.6984 22.9307L19.3943 26.1915L18.5048 27.1758C15.3783 30.635 11.2158 30.694 8.36268 29.5959C5.50963 28.4976 2.46094 25.6628 2.46094 21.0001C2.46094 16.3374 5.50963 13.5026 8.36276 12.4043C11.2158 11.306 15.3784 11.365 18.5049 14.8244L26.5027 24.3848L26.5381 24.4258C27.5458 25.5408 28.8266 26.1302 30.2421 26.1302C31.3925 26.1302 32.6303 25.7032 33.5532 24.9878C34.4128 24.3216 35.4374 23.0889 35.4374 21.0002C35.4374 18.9115 34.4128 17.6789 33.5532 17.0126C32.6303 16.2972 31.3925 15.8702 30.2421 15.8702C28.8266 15.8702 27.5458 16.4595 26.5381 17.5746L25.3037 19.0669L22.6131 15.8006L23.4952 14.8245C26.6214 11.3653 30.784 11.3062 33.6373 12.4044C36.4904 13.5027 39.5391 16.3375 39.5391 21.0001C39.5391 25.6628 36.4904 28.4976 33.6372 29.5959ZM15.1024 21.0001L13.6192 22.7942C13.08 23.383 12.4709 23.6693 11.7579 23.6693C10.9974 23.6693 9.02344 23.1898 9.02344 21.0002C9.02344 18.8106 10.9974 18.3311 11.7579 18.3311C12.4708 18.3311 13.0799 18.6174 13.6192 19.206L15.1024 21.0001ZM26.8975 21.0001L28.3808 19.206C28.92 18.6172 29.529 18.331 30.242 18.331C31.0025 18.331 32.9764 18.8106 32.9764 21.0001C32.9764 23.1897 31.0025 23.6692 30.242 23.6692C29.529 23.6692 28.92 23.383 28.3808 22.7942L26.8975 21.0001Z" fill="#22A7D6"/>
</svg>
