<svg width="42" height="42" viewBox="0 0 42 42" fill="none" xmlns="http://www.w3.org/2000/svg">
<g clip-path="url(#clip0_286_201)">
<path d="M20.2639 13.679C19.8109 13.679 19.4436 14.0463 19.4436 14.4993C19.4436 14.5923 19.3679 14.6679 19.2749 14.6679C18.8219 14.6679 18.4546 15.0353 18.4546 15.4882C18.4546 15.9412 18.8219 16.3085 19.2749 16.3085C20.2725 16.3085 21.0842 15.4969 21.0842 14.4993C21.0842 14.0463 20.7169 13.679 20.2639 13.679Z" fill="#22A7D6"/>
<path d="M36.6339 32.1447C36.2152 31.9705 35.7354 32.1689 35.5615 32.5871C33.6284 37.2361 27.97 40.3595 21.4814 40.3595C21.0849 40.3595 20.6899 40.3462 20.2965 40.3227L20.884 36.579C21.0825 36.5877 21.2816 36.5935 21.4814 36.5935C24.1541 36.5935 26.676 35.8152 28.5826 34.4018C30.5629 32.9338 31.6535 30.9589 31.6535 28.8409C31.6535 28.388 31.2861 28.0206 30.8332 28.0206C30.3802 28.0206 30.0129 28.388 30.0129 28.8409C30.0129 31.0217 28.4101 32.939 26.0045 34.0209C25.7048 31.4056 23.6479 29.2776 20.9848 28.9457C20.737 28.9149 20.5068 28.804 20.3362 28.6335C20.071 28.3682 19.9629 28.0055 20.0396 27.6381C20.1164 27.2708 20.3608 26.9816 20.7102 26.8448L22.219 26.2538C24.2579 25.4551 25.9059 23.9721 26.8592 22.0778C27.3065 21.1894 27.5868 20.2559 27.6975 19.293C31.4031 20.5946 34.2944 23.0413 35.538 25.9764C35.6705 26.2891 35.9741 26.477 36.2937 26.477C36.4004 26.477 36.5089 26.456 36.6133 26.4118C37.0304 26.235 37.2253 25.7536 37.0486 25.3365C36.2785 23.5189 34.9577 21.8311 33.2289 20.4554C32.3306 19.7406 31.3188 19.1093 30.2285 18.576C31.4239 16.6475 31.8891 14.2686 31.5417 11.7742C31.1495 8.9594 29.7458 6.22157 27.5893 4.0651C25.2736 1.74948 22.337 0.322904 19.3202 0.0482692C16.2477 -0.231452 13.4583 0.711233 11.4667 2.70283C8.69821 5.47133 8.01121 9.76526 9.59709 13.8883C6.52697 14.2545 4.13818 16.8726 4.13818 20.0398C4.13818 22.2943 5.34878 24.2709 7.15368 25.3552C7.03752 27.0565 7.17722 28.6854 7.56998 30.212C6.54731 30.8288 5.86187 31.9504 5.86187 33.2292C5.86187 35.1707 7.44135 36.7501 9.38283 36.7501C10.0282 36.7501 10.633 36.5748 11.1535 36.2706C12.1076 37.143 13.1955 37.8526 14.399 38.3872C14.4329 38.779 14.5318 39.1689 14.6992 39.5431C15.1694 40.5945 16.085 41.332 17.211 41.5661C18.5962 41.8541 20.0329 42.0001 21.4812 42.0001C24.9947 42.0001 28.3428 41.1543 31.1638 39.5544C33.9696 37.963 36.014 35.7716 37.0762 33.2171C37.2503 32.7987 37.0522 32.3186 36.6339 32.1447ZM12.6269 3.86298C14.268 2.22181 16.5923 1.44778 19.1715 1.68205C21.8069 1.92199 24.3843 3.18024 26.4292 5.22508C30.178 8.97375 31.1036 14.3265 28.7036 17.9144C28.3455 17.7779 27.9813 17.6513 27.6119 17.5359C27.2909 16.582 26.4502 15.8422 25.4496 15.6888C26.247 13.5243 25.7797 10.9953 24.0444 9.25995L23.8212 9.03675C22.453 7.66874 20.3161 7.36892 18.6243 8.30751C18.2219 8.53087 17.7659 8.64883 17.3057 8.64883H15.3573C15.1025 8.64883 14.8622 8.7672 14.7069 8.96924C14.5516 9.17128 14.499 9.43394 14.5646 9.68011C14.99 11.278 14.5273 12.9965 13.3569 14.1647C13.3569 14.1647 13.0711 14.4519 13.0541 14.4725C12.5367 14.2188 11.9788 14.0361 11.3932 13.9349C9.71645 10.2271 10.1868 6.30295 12.6269 3.86298ZM16.3767 18.6665C17.3903 19.3345 18.561 19.6686 19.7316 19.6686C20.5955 19.6686 21.4592 19.4859 22.2599 19.1221C21.8039 20.6822 20.0075 22.0548 17.5804 22.6068C17.0063 22.7373 16.3788 22.8984 15.7324 23.079C16.2405 22.1803 16.532 21.1438 16.532 20.0398C16.532 19.5678 16.4772 19.1086 16.3767 18.6665ZM16.5791 16.7251L14.8358 14.9817C15.9532 13.6841 16.49 11.9809 16.3334 10.2896H17.3056C18.0437 10.2896 18.7749 10.1003 19.4203 9.74221C20.4752 9.15668 21.8079 9.34387 22.661 10.197L22.8842 10.4202C23.7263 11.2622 24.19 12.3818 24.19 13.5727C24.19 14.7636 23.7263 15.8831 22.8842 16.7251C21.146 18.4634 18.3175 18.4634 16.5791 16.7251ZM5.77878 20.0398C5.77878 17.5274 7.82271 15.4835 10.335 15.4835C12.8177 15.4835 14.8416 17.4797 14.8892 19.9511C14.7888 20.1419 14.5644 20.2426 14.3501 20.1798C13.9153 20.053 13.4598 20.3021 13.3326 20.737C13.2054 21.1718 13.4549 21.6273 13.8897 21.7545C14.0853 21.8116 14.2846 21.84 14.4828 21.84C14.4953 21.84 14.5079 21.839 14.5204 21.8389C13.8214 23.459 12.2088 24.5961 10.3351 24.5961C7.82271 24.5961 5.77878 22.5521 5.77878 20.0398ZM9.38291 35.1096C8.34606 35.1096 7.50255 34.266 7.50255 33.2292C7.50255 32.1922 8.34606 31.3487 9.38291 31.3487C10.4198 31.3487 11.2633 32.1922 11.2633 33.2292C11.2633 34.266 10.4197 35.1096 9.38291 35.1096ZM14.8676 36.3094C14.7933 36.4378 14.7278 36.5692 14.6706 36.7027C13.8187 36.2824 13.0392 35.7576 12.342 35.1337C12.6969 34.5842 12.9039 33.9306 12.9039 33.2292C12.9039 31.2877 11.3244 29.7081 9.38291 29.7081C9.29998 29.7081 9.21795 29.7121 9.13633 29.7177C8.84627 28.5553 8.7211 27.3217 8.76162 26.0336C9.2643 26.1657 9.7915 26.2366 10.335 26.2366C11.1308 26.2366 11.8911 26.0842 12.5908 25.8098C14.2666 25.1925 16.3398 24.5712 17.9441 24.2065C19.608 23.8282 21.1195 23.0753 22.2 22.0868C23.3873 21.0008 24.0148 19.7077 24.0148 18.3477C24.0148 18.0648 24.1258 17.7995 24.3273 17.6009C24.5287 17.4024 24.7919 17.2968 25.079 17.2994C25.6324 17.3075 26.1147 17.8164 26.1112 18.3885C26.105 19.4137 25.8636 20.4067 25.3937 21.34C24.6224 22.8726 23.2823 24.0751 21.6204 24.726L20.1117 25.317C19.2502 25.6545 18.6228 26.3967 18.4336 27.3024C18.2442 28.208 18.5219 29.1393 19.176 29.7933C19.6034 30.2207 20.1737 30.4978 20.7819 30.5735C22.8142 30.8267 24.3534 32.5422 24.4007 34.584C23.4895 34.8224 22.5063 34.9527 21.4813 34.9527C20.5546 34.9527 19.6432 34.846 18.7724 34.6356C17.256 34.2692 15.6502 34.9574 14.8676 36.3094ZM18.662 40.1554C18.2863 40.1007 17.9135 40.0363 17.5451 39.9598C16.941 39.8342 16.4497 39.4383 16.197 38.8733C15.9427 38.3048 15.9757 37.6699 16.2874 37.1314C16.7086 36.4039 17.5718 36.0337 18.387 36.2305C18.6713 36.2992 18.9595 36.3571 19.2504 36.4064L18.662 40.1554Z" fill="#22A7D6"/>
<path d="M12.5908 25.8099C12.579 25.8142 12.6027 25.8061 12.5908 25.8099V25.8099Z" fill="#22A7D6"/>
<path d="M37.04 28.4895C36.5871 28.4895 36.2197 28.8568 36.2197 29.3098C36.2197 29.7628 36.5871 30.1301 37.04 30.1301H37.0444C37.4974 30.1301 37.8626 29.7628 37.8626 29.3098C37.8626 28.8568 37.493 28.4895 37.04 28.4895Z" fill="#22A7D6"/>
</g>
<defs>
<clipPath id="clip0_286_201">
<rect width="42" height="42" fill="white"/>
</clipPath>
</defs>
</svg>
